<?xml version="1.0" encoding="UTF-8"?>
<svg width="1471px" height="773px" viewBox="0 0 1471 773" version="1.1" xmlns="http://www.w3.org/2000/svg" xmlns:xlink="http://www.w3.org/1999/xlink">
    <!-- Generator: Sketch 48.2 (47327) - http://www.bohemiancoding.com/sketch -->
    <title>Desktop HD Copy 7</title>
    <desc>Created with Sketch.</desc>
    <defs>
        <circle id="path-1" cx="80" cy="80" r="80"></circle>
        <path d="M20,0 C8.96,0 0,8.96 0,20 C0,31.04 8.96,40 20,40 C31.04,40 40,31.04 40,20 C40,8.96 31.04,0 20,0 L20,0 Z" id="path-3"></path>
        <path d="M20,0 C8.96,0 0,8.96 0,20 C0,31.04 8.96,40 20,40 C31.04,40 40,31.04 40,20 C40,8.96 31.04,0 20,0 L20,0 Z" id="path-4"></path>
        <path d="M20,0 C8.96,0 0,8.96 0,20 C0,31.04 8.96,40 20,40 C31.04,40 40,31.04 40,20 C40,8.96 31.04,0 20,0 L20,0 Z" id="path-5"></path>
        <path d="M20,0 C8.96,0 0,8.96 0,20 C0,31.04 8.96,40 20,40 C31.04,40 40,31.04 40,20 C40,8.96 31.04,0 20,0 L20,0 Z" id="path-6"></path>
    </defs>
    <g id="E-coupons" stroke="none" stroke-width="1" fill="none" fill-rule="evenodd">
        <g id="Desktop-HD-Copy-7">
            <text id="Journey" font-family="AvenirNext-Bold, Avenir Next" font-size="24" font-weight="bold" fill="#000000">
                <tspan x="573" y="59">Journey</tspan>
            </text>
            <rect id="Rectangle" fill="#000000" x="568" y="84" width="871" height="3"></rect>
            <g id="Group-5" transform="translate(23.000000, 329.000000)" fill="#000000">
                <text id="The-E-coupon-in-SMS" font-family="AvenirNext-DemiBold, Avenir Next" font-size="24" font-weight="500">
                    <tspan x="0" y="89">The E-coupon in SMS is </tspan>
                    <tspan x="0" y="122">sorted by the most recently </tspan>
                    <tspan x="0" y="155">received. So I usually have </tspan>
                    <tspan x="0" y="188">to scroll to the bottom of the </tspan>
                    <tspan x="0" y="221">list to use them, or I’ll  </tspan>
                    <tspan x="0" y="254">probably lose coupons that </tspan>
                    <tspan x="0" y="287">are about to expire.</tspan>
                </text>
                <text id="“" font-family="Helvetica-Bold, Helvetica" font-size="72" font-weight="bold">
                    <tspan x="0" y="69">“</tspan>
                </text>
                <text id="“-copy" transform="translate(318.000000, 312.000000) scale(-1, -1) translate(-318.000000, -312.000000) " font-family="Helvetica-Bold, Helvetica" font-size="72" font-weight="bold">
                    <tspan x="300" y="338">“</tspan>
                </text>
            </g>
            <path d="M448.5,35.9856589 L448.5,742.004906" id="Line" stroke-opacity="0.36" stroke="#000000" stroke-width="2" stroke-linecap="round" stroke-linejoin="round" stroke-dasharray="1,5"></path>
            <path d="M1438.99609,361 L574,361" id="Line-Copy-3" stroke-opacity="0.821897645" stroke="#000000" stroke-width="4" stroke-linecap="round" stroke-linejoin="round" stroke-dasharray="1,12"></path>
            <text id="Pain-Points" font-family="AvenirNext-Bold, Avenir Next" font-size="24" font-weight="bold" fill="#000000">
                <tspan x="573" y="510">Pain-Points</tspan>
            </text>
            <g id="Group-4" transform="translate(86.000000, 51.000000)">
                <circle id="Oval" fill="#CAE2FF" cx="104" cy="80" r="80"></circle>
                <g id="users-6" transform="translate(24.000000, 0.000000)">
                    <mask id="mask-2" fill="white">
                        <use xlink:href="#path-1"></use>
                    </mask>
                    <circle stroke="#979797" cx="80" cy="80" r="80.5"></circle>
                    <g mask="url(#mask-2)">
                        <g transform="translate(26.000000, 9.000000)">
                            <path d="M1.09459459,153.275294 C1.09459459,153.275294 -2.66419946,120.550792 29.7145953,116.899893 C29.7145953,116.899893 43.5697285,116.899893 43.5697285,116.899893 C43.5697285,116.899893 43.5697285,110.561128 43.5697285,110.561128 C43.5697285,110.561128 53.3158784,114.718522 63.1848673,111.024939 C63.1848673,111.024939 63.4962182,116.899893 63.4962182,116.899893 C63.4962182,116.899893 79.6864843,116.899893 79.6864843,116.899893 C79.6864843,116.899893 107.880858,119.69518 106.175676,153.275294 C106.175676,153.275294 1.09459459,153.275294 1.09459459,153.275294 Z" id="body-bg-flat" fill="#FFFFFF" fill-rule="nonzero"></path>
                            <path d="M105.906381,153.850229 C105.906381,153.850229 105.906381,153.850229 105.906381,153.850229 C105.906381,153.850229 2.09634714,153.850229 2.09634714,153.850229 C2.09634714,153.850229 2.09634714,153.850229 2.09634714,153.850229 C2.09634714,153.850229 0.0830655,153.850229 0.0830655,153.850229 C0.0830655,153.850229 0.585612122,145.324131 0.585612122,145.324131 C1.56684357,128.676828 14.7740651,115.972271 29.8879087,115.972271 C29.8879087,115.972271 41.390271,115.972271 41.390271,115.972271 C41.390271,115.972271 41.390271,117.672912 41.390271,117.672912 C41.390271,117.672912 30.8054376,117.672912 30.8054376,117.672912 C16.2388026,117.672912 3.50975335,129.901749 2.56404186,145.925693 C2.56404186,145.925693 2.21496616,151.84038 2.21496616,151.84038 C2.21496616,151.84038 105.632086,151.84038 105.632086,151.84038 C105.632086,151.84038 105.438686,145.925693 105.438686,145.925693 C104.492975,129.901749 91.7639254,117.672912 77.1972791,117.672912 C77.1972791,117.672912 63.0291919,117.672912 63.0291919,117.672912 C63.0291919,117.672912 63.0291919,115.972271 63.0291919,115.972271 C63.0291919,115.972271 78.02249,115.972271 78.02249,115.972271 C93.1363333,115.972271 106.343555,128.676828 107.324786,145.324131 C107.324786,145.324131 107.827333,153.850229 107.827333,153.850229 C107.827333,153.850229 105.906381,153.850229 105.906381,153.850229 Z" id="Rounded-Rectangle-13-copy" fill="#3B434F" fill-rule="nonzero"></path>
                            <path d="M45.1264839,109.845877 C45.1264839,109.845877 45.1264839,119.381228 45.1264839,119.381228 C45.1264839,124.329334 49.1689922,128.340584 54.1556754,128.340584 C59.1423587,128.340584 63.1848673,124.329334 63.1848673,119.381228 C63.1848673,119.381228 63.1848673,110.042601 63.1848673,110.042601 C63.7088705,109.884204 64.2279411,109.712161 64.7416224,109.526297 C64.7416224,109.526297 64.7416224,119.446128 64.7416224,119.446128 C64.7416224,125.297629 59.9672908,130.041225 54.0778432,130.041225 C48.1883956,130.041225 43.4140531,125.297629 43.4140531,119.446128 C43.4140531,119.446128 43.4140531,109.232625 43.4140531,109.232625 C43.9780747,109.454109 44.5493454,109.657822 45.1264839,109.845877 Z" id="neck-copy-5" fill="#3B434F" fill-rule="nonzero"></path>
                            <path d="M43.3362208,128.18598 C43.895065,128.18598 44.348106,128.635891 44.348106,129.190899 C44.348106,129.190899 44.348106,144.34208 44.348106,144.34208 C44.348106,144.897088 43.895065,145.34701 43.3362208,145.34701 C42.7773657,145.34701 42.3243243,144.897088 42.3243243,144.34208 C42.3243243,144.34208 42.3243243,129.190899 42.3243243,129.190899 C42.3243243,128.635891 42.7773657,128.18598 43.3362208,128.18598 Z" id="Rounded-Rectangle-14" fill="#3B434F" fill-rule="nonzero"></path>
                            <path d="M64.5859469,128.031376 C65.1877824,128.031376 65.6756757,128.5159 65.6756757,129.113603 C65.6756757,129.113603 65.6756757,138.544433 65.6756757,138.544433 C65.6756757,139.142136 65.1877824,139.626671 64.5859469,139.626671 C63.9841005,139.626671 63.4962182,139.142136 63.4962182,138.544433 C63.4962182,138.544433 63.4962182,129.113603 63.4962182,129.113603 C63.4962182,128.5159 63.9841005,128.031376 64.5859469,128.031376 Z" id="Rounded-Rectangle-15" fill="#3B434F" fill-rule="nonzero"></path>
                            <path d="M43.3362208,144.264783 C43.6371384,144.264783 43.8810797,144.507045 43.8810797,144.805902 C43.8810797,144.805902 43.8810797,148.670997 43.8810797,148.670997 C43.8810797,148.969843 43.6371384,149.212104 43.3362208,149.212104 C43.035292,149.212104 42.791351,148.969843 42.791351,148.670997 C42.791351,148.670997 42.791351,144.805902 42.791351,144.805902 C42.791351,144.507045 43.035292,144.264783 43.3362208,144.264783 Z" id="Rounded-Rectangle-16" fill="#3B434F" fill-rule="nonzero"></path>
                            <path d="M64.6637792,138.544433 C64.964708,138.544433 65.208649,138.786706 65.208649,139.085551 C65.208649,139.085551 65.208649,142.950646 65.208649,142.950646 C65.208649,143.249503 64.964708,143.491765 64.6637792,143.491765 C64.3628616,143.491765 64.1189203,143.249503 64.1189203,142.950646 C64.1189203,142.950646 64.1189203,139.085551 64.1189203,139.085551 C64.1189203,138.786706 64.3628616,138.544433 64.6637792,138.544433 Z" id="Rounded-Rectangle-16-copy" fill="#3B434F" fill-rule="nonzero"></path>
                            <path d="M37.4955214,106.041193 C37.4955214,106.041193 27.6355406,108.289676 27.6355406,108.289676 C27.6355406,108.289676 15.5610611,111.005886 23.5942233,119.087635 C31.6273968,127.169384 52.2875691,128.596646 52.2875691,128.596646 C52.2875691,128.596646 46.8250408,126.027112 44.5037818,122.412484 C44.5037818,122.412484 43.7254039,109.425756 43.7254039,109.425756 C43.7254039,109.425756 37.4955214,106.041193 37.4955214,106.041193 Z" id="Shape-1-copy" fill="#F5F3EF" fill-rule="nonzero"></path>
                            <path d="M52.5989204,129.369665 C51.9871303,130.13867 34.7837986,129.609914 22.864861,119.320408 C14.2348517,111.87019 27.2237869,107.570511 27.2237869,107.570511 C27.2237869,107.570511 36.7200055,105.406058 36.7200055,105.406058 C36.7200055,105.406058 44.9708081,109.58036 44.9708081,109.58036 C44.9708081,109.58036 45.5935102,122.103276 45.5935102,122.103276 C49.0668307,127.511887 53.5838147,128.131662 52.5989204,129.369665 Z M44.0367552,122.721692 C44.0367552,122.721692 43.1027019,109.58036 43.1027019,109.58036 C43.1027019,109.58036 38.1210851,106.797492 38.1210851,106.797492 C38.1210851,106.797492 28.6248669,109.116548 28.6248669,109.116548 C28.6248669,109.116548 17.1225265,111.458993 24.4216164,118.238182 C32.2988025,125.554255 46.8711163,127.517648 48.3956811,127.359816 C49.9758193,127.19621 47.5100753,128.130313 44.0367552,122.721692 Z" id="Shape-1-copy-2" fill="#3B434F" fill-rule="evenodd"></path>
                            <path d="M70.8054075,106.405448 C70.8054075,106.405448 80.6712341,108.660666 80.6712341,108.660666 C80.6712341,108.660666 92.7528621,111.385003 84.7149453,119.490958 C76.6770059,127.596913 56.0045854,129.028444 56.0045854,129.028444 C56.0045854,129.028444 61.4703655,126.451224 63.7929828,122.825771 C63.7929828,122.825771 64.5718281,109.800151 64.5718281,109.800151 C64.5718281,109.800151 70.8054075,106.405448 70.8054075,106.405448 Z" id="Shape-1-copy-4" fill="#F5F3EF" fill-rule="nonzero"></path>
                            <path d="M55.6930562,129.64917 C56.3052027,130.420486 73.5187338,129.890149 85.4447305,119.569825 C94.0798621,112.097291 81.0832326,107.78474 81.0832326,107.78474 C81.0832326,107.78474 71.5813802,105.613807 71.5813802,105.613807 C71.5813802,105.613807 63.3256891,109.800605 63.3256891,109.800605 C63.3256891,109.800605 62.7026083,122.36103 62.7026083,122.36103 C59.2272394,127.785841 54.7075828,128.407463 55.6930562,129.64917 Z M64.2602879,122.981292 C64.2602879,122.981292 65.1948976,109.800605 65.1948976,109.800605 C65.1948976,109.800605 70.1794764,107.00941 70.1794764,107.00941 C70.1794764,107.00941 79.6813178,109.335411 79.6813178,109.335411 C79.6813178,109.335411 91.1904838,111.684866 83.8870513,118.484358 C76.0051996,125.822348 61.4242451,127.791614 59.8987896,127.633306 C58.317705,127.469214 60.7849187,128.406103 64.2602879,122.981292 Z" id="Shape-1-copy-6" fill="#3B434F" fill-rule="evenodd"></path>
                            <path d="M54.808052,12.8514428 C74.1743059,12.8514428 89.4601037,30.8245933 88.9630801,52.4197694 C88.9630801,52.4197694 88.4348233,75.3716236 88.4348233,75.3716236 C87.9665827,95.716423 72.9165751,111.797958 54.808052,111.797958 C36.6995285,111.797958 21.6495209,95.716423 21.1812807,75.3716236 C21.1812807,75.3716236 20.6530239,52.4197694 20.6530239,52.4197694 C20.1560112,30.8245933 35.4417981,12.8514428 54.808052,12.8514428 Z" id="2-copy-5" fill="#FFFFFF" fill-rule="nonzero"></path>
                            <path d="M90.5191003,51.7081782 C90.5191003,51.7081782 89.9655788,75.5924433 89.9655788,75.5924433 C89.4749464,96.7637498 73.7049966,113.498599 54.730242,113.498599 C35.7554761,113.498599 19.9855376,96.7637498 19.4948939,75.5924433 C19.4948939,75.5924433 18.9413614,51.7081782 18.9413614,51.7081782 C18.420576,29.2356941 34.4375846,10.5323861 54.730242,10.5323861 C75.0228994,10.5323861 91.0398967,29.2356941 90.5191003,51.7081782 Z M54.6524878,13.0060468 C35.5509857,13.0060468 20.4741657,30.8387808 20.9643748,52.2652429 C20.9643748,52.2652429 21.4854164,75.0377893 21.4854164,75.0377893 C21.9472539,95.2236393 36.7915241,111.179543 54.6524878,111.179543 C72.5134512,111.179543 87.3577101,95.2236393 87.819548,75.0377893 C87.819548,75.0377893 88.3405783,52.2652429 88.3405783,52.2652429 C88.8308096,30.8387808 73.7539896,13.0060468 54.6524878,13.0060468 Z" id="2-line" fill="#3B434F" fill-rule="evenodd"></path>
                            <path d="M89.5475673,55.6767324 C89.5475673,55.6767324 87.9908123,81.0317845 87.9908123,81.0317845 C87.9908123,81.0317845 81.0765406,110.299371 54.3648649,113.764824 C54.3648649,113.764824 54.3648649,113.807807 54.3648649,113.807807 C54.3123645,113.801437 54.261534,113.792889 54.2091894,113.786321 C54.1568448,113.792889 54.1060144,113.801437 54.0535136,113.807807 C54.0535136,113.807807 54.0535136,113.764824 54.0535136,113.764824 C27.3418492,110.299371 20.4275666,81.0317845 20.4275666,81.0317845 C20.4275666,81.0317845 18.8708112,55.6767324 18.8708112,55.6767324 C25.8024307,86.2327569 31.6362156,88.1435694 31.6362156,88.1435694 C30.4556716,78.8777927 40.0427054,79.7949543 40.0427054,79.7949543 C45.8856984,80.7751477 50.5371241,81.2488114 54.2091894,81.4258966 C57.8812657,81.2488114 62.5326801,80.7751477 68.3756735,79.7949543 C68.3756735,79.7949543 77.9626959,78.8777927 76.7821629,88.1435694 C76.7821629,88.1435694 82.6159478,86.2327569 89.5475673,55.6767324 Z M72.2370745,91.2862691 C71.7838995,85.8358917 68.4745059,86.2980551 68.4745059,86.2980551 C62.5911935,88.0172854 57.9729161,88.9723763 54.3648649,89.4577843 C54.3648649,89.4577843 54.3648649,89.4221549 54.3648649,89.4221549 C50.7820783,88.940706 46.1961477,87.9934552 40.3540562,86.2883129 C40.3540562,86.2883129 37.0678341,85.8299313 36.6178324,91.2356448 C36.6178324,91.2356448 35.2982373,96.6516092 39.7313541,98.9658335 C39.7313541,98.9658335 45.335673,104.840788 45.335673,104.840788 C45.335673,104.840788 49.1655405,106.046213 49.0718969,101.439494 C49.0718969,101.439494 48.6820902,98.0037868 50.9400032,97.419796 C50.9400032,97.419796 54.3648649,97.419796 54.3648649,97.419796 C54.3648649,97.419796 54.3648649,97.5215305 54.3648649,97.5215305 C54.3648649,97.5215305 57.813889,97.5215305 57.813889,97.5215305 C60.0877247,98.1103541 59.695179,101.574458 59.695179,101.574458 C59.6008672,106.219251 63.4577366,105.003851 63.4577366,105.003851 C63.4577366,105.003851 69.1015951,99.0803515 69.1015951,99.0803515 C73.5659787,96.7469968 72.2370745,91.2862691 72.2370745,91.2862691 Z" id="1-copy-4" fill="#3B434F" fill-rule="evenodd" opacity="0.058824"></path>
                            <path d="M71.542698,89.2569245 C68.713091,91.6969458 62.3218429,94.0185016 54.8854165,94.0185016 C47.4489787,94.0185016 41.0577306,91.6969458 38.2281127,89.2569245 C38.2281127,89.2569245 37.9386081,88.4658033 38.363367,88.0439687 C38.7959869,87.6143272 39.4735169,87.7078345 39.4735169,87.7078345 C42.3001619,90.149515 47.4461393,92.1632676 54.8854165,92.1632676 C62.3246823,92.1632676 67.4706598,90.149515 70.2973047,87.7078345 C70.2973047,87.7078345 70.9887309,87.4527565 71.3246117,87.7863252 C71.971532,88.4287919 71.542698,89.2569245 71.542698,89.2569245 Z" id="usta" fill="#3B434F" fill-rule="nonzero"></path>
                            <path d="M49.748113,97.7290033 C49.748113,97.7290033 59.7113578,97.7290033 59.7113578,97.7290033 C59.7113578,97.7290033 59.7113578,99.2750412 59.7113578,99.2750412 C59.7113578,99.2750412 49.748113,99.2750412 49.748113,99.2750412 C49.748113,99.2750412 49.748113,97.7290033 49.748113,97.7290033 Z" id="-" fill="#3B434F" fill-rule="nonzero"></path>
                            <path d="M18.9026343,55.1911146 C18.8983366,55.1913578 18.5203993,54.8916161 17.8067259,54.6684629 C17.450034,54.5571296 17.0067246,54.465546 16.5014389,54.4429656 C16.3752482,54.4373259 16.245372,54.4359878 16.1124784,54.4397363 C15.9795844,54.4434852 15.843662,54.4523096 15.7055016,54.4669617 C15.4292142,54.4962768 15.1438629,54.5489578 14.8567186,54.6309869 C13.7069736,54.9591261 12.5340903,55.7569371 11.8452587,57.4036261 C11.4994788,58.2270148 11.2713715,59.2627195 11.2110655,60.5585672 C11.1959776,60.8825372 11.1913679,61.2227627 11.1979818,61.5799959 C11.204607,61.9372288 11.2224675,62.3114691 11.2522974,62.7034691 C11.3119244,63.4874356 11.4195978,64.3424505 11.5800278,65.2741425 C11.5765204,65.2732247 11.4303986,68.0896209 12.4442434,71.3258501 C13.3973595,74.4899029 15.6860937,78.3766604 19.9118921,79.4873392 C19.4258805,71.4505749 19.410782,63.2631656 18.9026343,55.1911146 C18.9026343,55.1911146 18.9026343,55.1911146 18.9026343,55.1911146 Z" id="Shape-11-copy" fill="#FFFFFF" fill-rule="nonzero"></path>
                            <path d="M19.3844927,55.5151067 C19.3844927,55.5151067 12.0228362,53.2497928 12.2819096,60.7658961 C12.2819096,60.7658961 13.3779294,71.6644834 13.8538748,72.6689268 C13.8538748,72.6689268 16.7450012,79.0144602 21.5163934,79.2956798 C26.1797334,79.5705296 21.5163934,79.2956798 21.5163934,79.2956798 C21.5163934,79.2956798 21.5743055,81.3409922 21.5743055,81.3409922 C21.5743055,81.3409922 13.1880143,80.2731414 11.5682584,70.675278 C11.5682584,70.675278 10.2898171,61.9560831 10.2898171,61.9560831 C10.2898171,61.9560831 9.29716176,50.417086 18.9259729,53.3509635 C28.3063895,56.2091597 18.9259729,53.3509635 18.9259729,53.3509635 C18.9259729,53.3509635 19.3844927,55.5151067 19.3844927,55.5151067" id="Shape-3" fill="#3B434F" fill-rule="nonzero"></path>
                            <path d="M16.9546584,70.6569436 C16.9546584,70.6569436 16.5426709,70.9661514 16.1887516,70.9661514 C15.8348323,70.9661514 15.4278668,70.6569436 15.4278668,70.6569436 C15.4278668,70.6569436 14.66814,63.0537687 14.66814,63.0537687 C14.66814,63.0537687 15.7163691,59.3094069 20.1643958,61.2881938 C20.1643958,61.2881938 20.2695414,63.4622118 20.2695414,63.4622118 C20.2695414,63.4622118 16.3670753,62.08773 16.4477691,63.7992747 C16.5254456,65.4467269 16.9546584,70.6569436 16.9546584,70.6569436 Z" id="Shape-4" fill="#3B434F" fill-rule="nonzero"></path>
                            <path d="M90.4184085,55.208863 C90.4227285,55.2091062 90.8023248,54.9095744 91.5191161,54.686565 C91.877378,54.5753092 92.3226248,54.4837923 92.8301263,54.4612224 C92.9568624,54.455594 93.0873067,54.4542558 93.2207907,54.4580047 C93.3542634,54.461742 93.4907758,54.4705664 93.6295488,54.4852076 C93.9070388,54.5145006 94.1936485,54.5671483 94.4820508,54.6491223 C95.6368288,54.9770401 96.8148454,55.7743094 97.5066945,57.4198816 C97.8539885,58.2427062 98.0830981,59.2777032 98.1436602,60.5726772 C98.1588149,60.8964262 98.1634468,61.2364198 98.1568103,61.5934095 C98.1501519,61.9503989 98.1322137,62.3243852 98.1022499,62.7161195 C98.0423672,63.4995552 97.9342146,64.353995 97.7730834,65.2850457 C97.7766131,65.2841279 97.9233694,68.0986221 96.9050816,71.3326511 C95.9478013,74.4945584 93.6490348,78.3786729 89.4047304,79.4885998 C89.8928685,71.4572871 89.9080341,63.2754399 90.4184085,55.208863 C90.4184085,55.208863 90.4184085,55.208863 90.4184085,55.208863 Z" id="Shape-11-copy_1" fill="#FFFFFF" fill-rule="nonzero"></path>
                            <path d="M89.9328424,55.532645 C89.9328424,55.532645 97.3267449,53.2688681 97.0665361,60.7798623 C97.0665361,60.7798623 95.9657173,71.6710521 95.4876782,72.67481 C95.4876782,72.67481 92.5838917,79.0160415 87.7916106,79.2970731 C83.1078386,79.5717351 87.7916106,79.2970731 87.7916106,79.2970731 C87.7916106,79.2970731 87.7334424,81.3409922 87.7334424,81.3409922 C87.7334424,81.3409922 96.1564562,80.2738711 97.7833051,70.682521 C97.7833051,70.682521 99.067347,61.969242 99.067347,61.969242 C99.067347,61.969242 100.064356,50.4380742 90.393366,53.3699614 C80.9718737,56.2262222 90.393366,53.3699614 90.393366,53.3699614 C90.393366,53.3699614 89.9328424,55.532645 89.9328424,55.532645" id="Shape-3_1" fill="#3B434F" fill-rule="nonzero"></path>
                            <path d="M92.3733216,70.6641979 C92.3733216,70.6641979 92.7871127,70.9731951 93.1425797,70.9731951 C93.4980468,70.9731951 93.9067939,70.6641979 93.9067939,70.6641979 C93.9067939,70.6641979 94.6698501,63.0661869 94.6698501,63.0661869 C94.6698501,63.0661869 93.6170332,59.3243688 89.1495209,61.3018064 C89.1495209,61.3018064 89.0439184,63.4743536 89.0439184,63.4743536 C89.0439184,63.4743536 92.9634767,62.1008008 92.8824264,63.8111845 C92.8044161,65.4575195 92.3733216,70.6641979 92.3733216,70.6641979 Z" id="Shape-4_1" fill="#3B434F" fill-rule="nonzero"></path>
                            <path d="M57.6097325,70.0549058 C57.7913298,70.0549058 57.9729942,70.0549058 58.1545914,70.0549058 C59.2810982,71.5742379 59.7394064,73.9090414 60.3340486,75.9298489 C60.5183294,76.5561042 60.3395493,77.6515012 60.1783731,78.0943019 C59.5881068,79.7160215 57.7346426,79.6869166 56.2086529,80.4133585 C55.7988257,80.6084682 55.4939771,80.9452325 54.9632487,81.0317845 C54.6172459,80.7291013 54.1994796,80.669653 54.0291844,80.1814585 C53.6087456,79.6065018 54.1506202,79.2474553 54.5740543,79.0219247 C55.342544,78.6126188 57.7148672,78.2092069 57.9989156,77.4758868 C58.3503633,77.0788444 58.1166772,75.8850969 57.9989156,75.4660379 C57.6973187,74.3926909 57.5525553,73.4966062 57.1427059,72.5285662 C56.8704605,71.8855687 56.3924769,71.2076056 56.6756796,70.4414096 C56.9103563,70.3413335 57.4175571,70.2275453 57.6097325,70.0549058 Z" id="new_vector_shape_done" fill="#3B434F" fill-rule="evenodd"></path>
                            <path d="M34.9589155,59.1398638 C34.9589155,59.1398638 40.5632457,59.1398638 40.5632457,59.1398638 C41.3370358,59.1398638 41.9643253,59.8874269 41.9643253,60.8095868 C41.9643253,61.7317465 41.3370358,62.4793096 40.5632457,62.4793096 C40.5632457,62.4793096 34.9589155,62.4793096 34.9589155,62.4793096 C34.1851254,62.4793096 33.5578359,61.7317465 33.5578359,60.8095868 C33.5578359,59.8874269 34.1851254,59.1398638 34.9589155,59.1398638 Z" id="Rounded-Rectangle-9" fill="#3B434F" fill-rule="nonzero"></path>
                            <path d="M69.207565,58.7688191 C69.207565,58.7688191 74.8118952,58.7688191 74.8118952,58.7688191 C75.5856853,58.7688191 76.2129748,59.5163709 76.2129748,60.4385421 C76.2129748,61.3607021 75.5856853,62.108254 74.8118952,62.108254 C74.8118952,62.108254 69.207565,62.108254 69.207565,62.108254 C68.4337749,62.108254 67.806485,61.3607021 67.806485,60.4385421 C67.806485,59.5163709 68.4337749,58.7688191 69.207565,58.7688191 Z" id="Rounded-Rectangle-9-copy" fill="#3B434F" fill-rule="nonzero"></path>
                            <path d="M37.4497352,68.3542643 C40.4589348,68.3542643 42.8983786,68.5257315 42.8983786,71.9101511 C42.8983786,75.4010271 40.4589348,75.4660379 37.4497352,75.4660379 C34.4405243,75.4660379 32.0010918,74.8302835 32.0010918,71.9101511 C32.0010918,68.4990703 34.4405243,68.3542643 37.4497352,68.3542643 Z" id="Ellipse-3-copy" fill="#000000" fill-rule="nonzero" opacity="0.121569"></path>
                            <path d="M73.5664906,68.3542643 C76.5756906,68.3542643 79.0151344,68.5257315 79.0151344,71.9101511 C79.0151344,75.4010271 76.5756906,75.4660379 73.5664906,75.4660379 C70.5572797,75.4660379 68.1178472,74.8302835 68.1178472,71.9101511 C68.1178472,68.4990703 70.5572797,68.3542643 73.5664906,68.3542643 Z" id="Ellipse-3-copy-2" fill="#000000" fill-rule="nonzero" opacity="0.121569"></path>
                            <path d="M88.6402378,53.5846109 C88.4296455,55.370975 88.2446298,57.5569583 87.8556915,59.5113505 C86.6926512,65.3555636 81.6360974,70.7701902 73.0020126,71.3871345 C64.3679391,72.0040788 57.0195439,67.6873812 56.5889173,61.7455141 C56.5159063,60.7380627 56.3205909,59.6075121 56.1707055,58.508367 C54.9488289,57.8356233 53.6894617,57.8340862 52.3926148,58.5037887 C52.2411594,59.6278148 52.0384839,60.7881008 51.9637359,61.8196478 C51.5317618,67.7812096 44.1601955,72.1122161 35.498886,71.493226 C26.8375768,70.8742358 21.7650776,65.4416731 20.5983631,59.5780865 C20.2082,57.617214 20.0226053,55.423988 19.8113449,53.6316965 C19.8113449,53.6316965 18.5385824,53.5407321 18.5385824,53.5407321 C18.5385824,53.5407321 18.7173625,51.0734525 18.7173625,51.0734525 C18.7173625,51.0734525 19.0279121,51.0956462 19.0279121,51.0956462 C19.0279121,51.0956462 26.9048086,51.6585825 26.9048086,51.6585825 C26.9048086,51.6585825 33.5537717,52.1337617 33.5537717,52.1337617 C33.5537717,52.1337617 40.2150942,52.6098145 40.2150942,52.6098145 C40.2150942,52.6098145 50.5906381,53.3513176 50.5906381,53.3513176 C51.3062042,53.4411981 51.7820164,53.7459714 52.0884347,54.2009472 C53.5785037,54.8487215 55.025637,54.8513091 56.429823,54.2085993 C56.7334691,53.7243527 57.2156832,53.3983368 57.9576947,53.3051498 C57.9576947,53.3051498 68.3006248,52.5661016 68.3006248,52.5661016 C68.3006248,52.5661016 74.9410139,52.0916189 74.9410139,52.0916189 C74.9410139,52.0916189 81.5690768,51.6180102 81.5690768,51.6180102 C81.5690768,51.6180102 89.4212099,51.0569317 89.4212099,51.0569317 C89.4212099,51.0569317 89.7307791,51.0348151 89.7307791,51.0348151 C89.7307791,51.0348151 89.9090028,53.4939455 89.9090028,53.4939455 C89.9090028,53.4939455 88.6402378,53.5846109 88.6402378,53.5846109 Z M47.8045461,56.2506828 C47.8045461,56.2506828 27.4700554,54.7974562 27.4700554,54.7974562 C24.8104656,54.5697471 23.8677606,57.5378496 23.7038455,59.8000234 C23.3582659,64.5692639 28.7091237,68.8379359 35.6553189,69.3343576 C42.601514,69.8307684 48.5126743,66.3669627 48.8582535,61.597711 C49.0221691,59.3355485 49.7661847,57.9384638 47.8045461,56.2506828 Z M84.7599744,59.7325576 C84.5965711,57.4778592 83.6568281,54.519554 81.0056007,54.7465112 C81.0056007,54.7465112 60.7350347,56.1949388 60.7350347,56.1949388 C58.7795648,57.8771576 59.5212424,59.269609 59.6846344,61.524307 C60.0291336,66.2778007 65.9217099,69.7301724 72.8460697,69.2353874 C79.7704295,68.7406133 85.1044736,64.4860404 84.7599744,59.7325576 Z" id="glasses" fill="#3B444F" fill-rule="evenodd"></path>
                            <path d="M19.9766965,53.8214984 C19.9766965,53.8214984 21.1778846,35.1977537 32.7505078,26.9204084 C32.7505078,26.9204084 49.4601671,38.2089056 75.7453246,26.9204084 C75.7453246,26.9204084 87.371495,32.1793584 89.1422608,53.8214984 C89.1422608,53.8214984 89.7663885,53.8214984 89.7663885,53.8214984 C89.7663885,53.8214984 93.0951232,29.0317158 84.4688998,19.1902085 C84.4688998,19.1902085 82.3439918,11.653272 71.0719745,6.20348054 C71.0719745,6.20348054 67.0217384,8.6771521 67.0217384,8.6771521 C67.0217384,8.6771521 64.3004843,5.37006225 57.0519238,1.25615988 C57.0519238,1.25615988 51.690956,3.62836175 48.9514521,7.74951843 C48.9514521,7.74951843 44.5896645,4.96665038 44.5896645,4.96665038 C44.5896645,4.96665038 38.4948355,7.73744302 34.9314127,12.6968503 C34.9314127,12.6968503 28.3887202,13.6244619 28.3887202,13.6244619 C28.3887202,13.6244619 24.9615981,19.8086236 24.9615981,19.8086236 C24.9615981,19.8086236 16.7809889,26.3539222 19.3525579,53.2030721 C19.3525579,53.2030721 19.9766965,53.8214984 19.9766965,53.8214984 Z" id="Shape-6-copy-3" fill="#9EA0A4" fill-rule="nonzero"></path>
                            <path d="M91.0117926,53.8214984 C91.0117926,53.8214984 88.0525324,53.6668944 88.0525324,53.6668944 C86.2817663,32.0247548 75.7453246,28.1572386 75.7453246,28.1572386 C49.4601671,39.4457357 32.7505078,28.0026349 32.7505078,28.0026349 C22.6426108,36.5662419 21.0664253,53.9761021 21.0664253,53.9761021 C21.0664253,53.9761021 18.418505,53.2030721 18.418505,53.2030721 C15.846936,26.3539222 24.0275448,19.3448125 24.0275448,19.3448125 C24.0275448,19.3448125 27.7660181,12.5422354 27.7660181,12.5422354 C27.7660181,12.5422354 34.6200615,11.6146238 34.6200615,11.6146238 C38.1834843,6.65521653 44.7453399,3.57521653 44.7453399,3.57521653 C44.7453399,3.57521653 48.8140596,6.20348054 48.8140596,6.20348054 C51.5535636,2.08232423 57.2205381,0.0193297176 57.2205381,0.0193297176 C64.4690986,4.13323209 67.1837829,7.28570703 67.1837829,7.28570703 C67.1837829,7.28570703 71.3833254,4.96665038 71.3833254,4.96665038 C82.6553426,10.4164419 85.714304,19.0356048 85.714304,19.0356048 C94.3405274,28.8771122 91.0117926,53.8214984 91.0117926,53.8214984 Z M83.6854112,19.6540199 C83.6854112,19.6540199 82.3476886,12.8901022 71.0756713,7.44031071 C71.0756713,7.44031071 66.8724321,9.91397104 66.8724321,9.91397104 C66.8724321,9.91397104 64.1577474,6.60689242 56.9091872,2.49299005 C56.9091872,2.49299005 52.0205902,5.01979596 49.2810863,9.14095227 C49.2810863,9.14095227 44.6108095,6.20348054 44.6108095,6.20348054 C44.6108095,6.20348054 38.989365,8.81966914 35.4259422,13.7790764 C35.4259422,13.7790764 29.1989209,14.7066992 29.1989209,14.7066992 C29.1989209,14.7066992 25.929735,20.5816427 25.929735,20.5816427 C25.929735,20.5816427 19.1395159,25.7322894 19.8583781,46.5551099 C19.8583781,46.5551099 20.0140539,46.4005062 20.0140539,46.4005062 C20.0140539,46.4005062 22.1743703,33.4568493 32.7505078,25.5289746 C32.7505078,25.5289746 49.9271938,37.1266791 76.2123512,25.838182 C76.2123512,25.838182 85.9232927,30.3736204 89.2897301,46.5551099 C89.2897301,46.5551099 91.28798,29.9118327 83.6854112,19.6540199 Z" id="Shape-6-copy" fill="#3B434F" fill-rule="evenodd"></path>
                            <path d="M55.1453582,8.21562968 C55.3744007,8.38484126 55.2610153,8.54142448 55.2112762,8.75301069 C55.137074,9.06867627 55.0490423,9.38112379 54.999459,9.69611503 C54.9243103,10.1734172 54.8557978,10.6512832 54.8361338,11.1221829 C54.8195985,11.5181524 54.8267696,11.9128175 54.8336954,12.30495 C54.8376925,12.5313985 54.8767203,12.7574596 54.8823319,12.984273 C54.88457,13.074762 54.9093896,13.1655162 54.9119505,13.2576082 C54.9175403,13.2825996 54.92313,13.307602 54.9287197,13.3325822 C54.931971,13.4483279 54.9625248,13.5587322 54.9657429,13.6742564 C54.9847498,13.7788554 55.0037794,13.8834765 55.0227863,13.9880755 C55.0507568,14.1538367 55.0643524,14.3268744 55.1154054,14.4883454 C55.1210064,14.5296916 55.1266071,14.57106 55.1322078,14.6124067 C55.1727162,14.7407253 55.1859779,14.8731685 55.2267424,15.0018962 C55.2296595,15.0273189 55.232577,15.0527525 55.2354941,15.078186 C55.2946533,15.2637857 55.321299,15.4590614 55.3802911,15.6435113 C55.4760838,15.9430207 55.5540273,16.2438019 55.6596853,16.5426369 C55.7297565,16.740832 55.7901628,16.9484595 55.8606572,17.1478156 C55.986135,17.5026932 56.1392607,17.8492881 56.2771764,18.2003066 C56.3611325,18.4139829 56.4737721,18.6114037 56.563708,18.8241512 C56.8182272,19.4262224 57.1452669,20.0179654 57.4579987,20.6081267 C57.559036,20.798791 57.6699385,20.9741402 57.7819097,21.1603591 C57.8533397,21.2791786 57.9275083,21.4123187 57.993393,21.5346991 C58.0298481,21.6024188 58.075523,21.6534744 58.115174,21.7192371 C58.2011347,21.8617875 58.2942661,22.0150091 58.3788461,22.1586321 C58.4570681,22.2914514 58.5453781,22.4048748 58.631773,22.5343431 C58.7248821,22.673886 58.8170893,22.8309446 58.9114788,22.9711063 C59.0755056,23.214684 59.2494867,23.4500782 59.4119544,23.6906701 C59.5807468,23.9406172 59.7704834,24.1619126 59.9491968,24.408288 C60.2955448,24.8857449 60.7003835,25.343784 61.0737887,25.8229994 C61.1855596,25.9664342 61.3192775,26.0918446 61.4310039,26.2306464 C61.4867337,26.2998924 61.5799096,26.3603913 61.6176341,26.4331539 C61.632989,26.4627788 61.6417633,26.5084378 61.6524637,26.5419768 C61.6696893,26.5959518 61.6652354,26.6626103 61.6659703,26.7197696 C61.6671393,26.8112757 61.6716268,26.9039649 61.6554924,26.9997065 C61.6387681,27.0989089 61.5753331,27.2080968 61.5340899,27.3060607 C61.5009638,27.3846953 61.4184773,27.4540188 61.3718115,27.4923021 C61.3325389,27.5245363 61.3163378,27.5545149 61.2763081,27.5857432 C61.1721643,27.6670204 61.0543137,27.7338669 60.9402712,27.7678487 C60.8220531,27.8030687 60.6692616,27.6976294 60.5758741,27.5863958 C60.4125157,27.3918057 60.2082257,27.2131614 60.0514476,27.0180517 C60.0179319,26.9763293 59.9806974,26.9578181 59.9477716,26.9164497 C59.7667644,26.6890501 59.5445697,26.4749205 59.3658005,26.2512034 C59.3249914,26.200137 59.2802743,26.1715072 59.2407124,26.1203966 C59.1017277,25.9408568 58.9388816,25.7790431 58.7978595,25.5959095 C58.4443408,25.1368529 58.06313,24.6933003 57.7434836,24.2310148 C57.6687469,24.1229329 57.588543,24.0375748 57.5153431,23.9289729 C56.9976086,23.1607535 56.4780815,22.4058368 56.0632437,21.6230425 C55.9540779,21.4170626 55.8334438,21.229749 55.731282,21.0230502 C55.4412319,20.4361729 55.1706897,19.8496604 54.922551,19.2577185 C54.8899481,19.1799467 54.866287,19.0929856 54.8361561,19.0141854 C54.7002559,18.6588433 54.5771053,18.3079353 54.4550456,17.9517749 C54.3319059,17.5924853 54.2618456,17.2171279 54.1467676,16.8569313 C54.1224939,16.7809618 54.1150893,16.6985679 54.0904369,16.6207185 C54.0870739,16.5926307 54.0837113,16.5645433 54.0803487,16.5364667 C54.0536585,16.4519936 54.0507414,16.3621906 54.0246747,16.2796857 C53.9621861,16.0818113 53.9428673,15.867969 53.9085835,15.6646434 C53.8762258,15.4727405 53.8320206,15.2764916 53.826598,15.080796 C53.8192157,15.0451999 53.811833,15.0095814 53.804462,14.9739744 C53.800921,14.846861 53.7685856,14.7212296 53.765401,14.5958305 C53.7598558,14.3769458 53.7248926,14.1587687 53.7207952,13.9403815 C53.7156955,13.6688048 53.7051731,13.396244 53.7067986,13.1244351 C53.7084354,12.8523055 53.7311395,12.586291 53.7469509,12.3118503 C53.7897751,11.5684006 53.9266775,10.8213684 54.1074731,10.051468 C54.1730569,9.77219465 54.2782584,9.49894828 54.3668246,9.21919949 C54.4278431,9.02648969 54.5238361,8.8408012 54.5922932,8.65025863 C54.6101642,8.60053004 54.6379345,8.57098305 54.6570308,8.52096712 C54.6980511,8.41349287 54.7518321,8.28125977 54.8519452,8.2106977 C54.8967404,8.17913784 54.9996929,8.16224096 55.0524272,8.17773336 C55.0891607,8.18851518 55.1123657,8.21654752 55.1453582,8.21562968 Z M47.8396205,13.5452856 C48.0054177,13.6643928 47.9923898,13.8388346 47.9963541,13.9859079 C48.0004515,14.1383222 48.0445786,14.2900397 48.0488322,14.4436814 C48.0667369,14.5498287 48.0846419,14.6559977 48.1025465,14.7621447 C48.1049181,14.8481216 48.1266754,14.9296644 48.1408278,15.0135955 C48.1554257,15.1000924 48.1617389,15.1870977 48.188485,15.2716926 C48.2045967,15.3672237 48.2207087,15.4627769 48.2368208,15.5583084 C48.2633884,15.6424605 48.266384,15.7324186 48.2924948,15.8150891 C48.3732445,16.0707642 48.4041099,16.3420535 48.4862516,16.5973746 C48.5733255,16.8680668 48.6369499,17.1479261 48.7314951,17.4161963 C48.8553364,17.7676239 48.9765274,18.1212963 49.1112585,18.4706448 C49.1801494,18.649267 49.2621126,18.8162447 49.3355577,18.9942585 C49.3917104,19.1303511 49.4450796,19.2786516 49.508982,19.4116812 C49.7743909,19.9641455 50.0484183,20.5161231 50.3403503,21.0669069 C50.5715086,21.5030504 50.8472728,21.9192345 51.100578,22.3492634 C51.1786777,22.4818502 51.2669097,22.5958265 51.3535049,22.7249633 C51.5489539,23.0164447 51.7569294,23.3195703 51.9570439,23.6157844 C52.1462355,23.8958209 52.3735966,24.1568259 52.5725644,24.4309901 C52.6050665,24.4757755 52.6427133,24.499993 52.6742361,24.5451875 C52.775095,24.6897949 52.9071203,24.829083 53.0181005,24.9713902 C53.0738971,25.0429473 53.1446031,25.0926205 53.1953664,25.1672518 C53.3065028,25.3306799 53.3758169,25.6354422 53.3228488,25.8254318 C53.231098,26.1545886 52.9111845,26.3762043 52.6676777,26.4609652 C52.594199,26.4865426 52.4795329,26.5328318 52.3997078,26.5091234 C52.2739068,26.4717688 52.1936361,26.3605351 52.1201465,26.2687196 C52.0251554,26.1500215 51.9144423,26.0638452 51.8224799,25.9453797 C51.6525631,25.7264729 51.4525599,25.5308212 51.2826321,25.3100123 C50.9267972,24.8476387 50.5623447,24.4003593 50.2462947,23.9298799 C49.5145495,22.8406093 48.9073691,21.7410217 48.4338398,20.6113227 C48.2372776,20.1423695 48.0790408,19.6587638 47.9207931,19.1819483 C47.8644401,19.0121725 47.8335966,18.8305319 47.7793704,18.661066 C47.7050456,18.4287897 47.6720308,18.1892484 47.5990425,17.9583987 C47.5952344,17.9276571 47.591415,17.8969158 47.5876069,17.8661741 C47.5757707,17.8146098 47.5581999,17.7648925 47.5493924,17.7128974 C47.5433462,17.6688969 47.5373001,17.6248855 47.5312539,17.5808741 C47.5037285,17.4938025 47.4972704,17.4038886 47.4822606,17.3148153 C47.467674,17.2283188 47.4450816,17.1439895 47.4426209,17.0554138 C47.431664,16.9985751 47.4207075,16.9417252 47.4097397,16.8848974 C47.4032035,16.6530302 47.3471511,16.4257969 47.3423743,16.1922822 C47.3412498,16.1371904 47.3235454,16.0788037 47.322198,16.0237674 C47.3167418,15.8004261 47.2945168,15.5764325 47.2956194,15.3530804 C47.2968775,15.0987322 47.2944055,14.8400161 47.3104063,14.5855904 C47.3167086,14.4853487 47.3343907,14.3908789 47.3389223,14.2904159 C47.3438775,14.1802214 47.3634748,14.0746717 47.3780946,13.9607617 C47.3867685,13.8932296 47.3868801,13.8114657 47.4073458,13.7432151 C47.4281234,13.6738807 47.4995307,13.5617951 47.5655822,13.5330772 C47.6106558,13.5134935 47.6974962,13.4939978 47.7466898,13.5073893 C47.7836127,13.5174301 47.8064499,13.5461592 47.8396205,13.5452856 Z M42.257048,14.700761 C42.4433775,14.8364444 42.3916452,15.0076464 42.3904094,15.1738613 C42.3884274,15.4413242 42.4156963,15.7083008 42.4224328,15.9745697 C42.4278109,16.1868414 42.4825053,16.3976649 42.4884179,16.610136 C42.501167,16.6775793 42.5139274,16.7450451 42.5266769,16.8124996 C42.5299505,16.9302357 42.555583,17.0822188 42.5911252,17.1946577 C42.5944878,17.2227342 42.5978504,17.2508332 42.6012133,17.2789098 C42.6122144,17.3441083 42.625988,17.4082455 42.6461421,17.4719957 C42.6508521,17.5080343 42.6555508,17.5440949 42.6602609,17.5801334 C42.7081738,17.731906 42.7229498,17.8942836 42.7715644,18.0445971 C42.887845,18.4040968 42.9802751,18.771813 43.1072448,19.1308377 C43.3824525,19.9090316 43.7596881,20.6633403 44.1609858,21.4204575 C44.2921318,21.6678942 44.4553676,21.8981358 44.5879496,22.1439358 C44.644492,22.2487449 44.7186719,22.3338482 44.7813276,22.4353396 C44.9525919,22.7127552 45.1511364,22.9894849 45.3373656,23.2644122 C45.5951138,23.6449227 45.9090928,23.9917944 46.1830198,24.3690647 C46.2790016,24.5012645 46.4002038,24.616059 46.4934242,24.7435043 C46.5763226,24.8568501 46.6836064,24.941865 46.772362,25.0535632 C46.9481805,25.2748253 47.1698293,25.4855604 47.3563373,25.7062141 C47.4639885,25.8335819 47.592005,25.9364224 47.6961378,26.0594553 C47.8124516,26.1968856 47.9587628,26.3067706 48.0733734,26.4392581 C48.1023572,26.4644927 48.1313409,26.4897382 48.1603251,26.5149728 C48.2772292,26.6523481 48.4404096,26.7740541 48.560966,26.9113851 C48.6124196,26.9699932 48.6734717,26.9974063 48.7254934,27.0561582 C48.8945864,27.2471211 49.1330716,27.4018795 49.3067075,27.5947002 C49.3562685,27.6497365 49.422231,27.6869915 49.4665584,27.7361559 C49.485276,27.7494368 49.5040049,27.7627287 49.5227334,27.7760096 C49.5826497,27.8423249 49.6759817,27.9030564 49.7367555,27.969925 C49.7570317,27.9843115 49.7773193,27.9987092 49.7976069,28.0130957 C49.8968848,28.122527 50.0498548,28.2091457 50.1500678,28.3192513 C50.1765909,28.3380723 50.2031137,28.3568933 50.2296368,28.3757142 C50.3573975,28.5159644 50.5600617,28.6163282 50.6897599,28.7582593 C50.7479394,28.8018725 50.8061295,28.8454969 50.864309,28.88911 C50.8927028,28.9201615 50.9540107,28.9469883 50.9873597,28.9834251 C51.0756694,29.0799182 51.2245751,29.1556996 51.3204011,29.2477586 C51.3770438,29.3021869 51.4658661,29.3396738 51.5136678,29.3919015 C51.5558239,29.4379584 51.6322646,29.4687997 51.6694768,29.5094604 C51.7911804,29.5958135 51.9129058,29.6821886 52.0345978,29.7685305 C52.3226662,29.972929 52.6097211,30.1645221 52.8885472,30.360417 C53.0205279,30.4531395 53.1843876,30.5262007 53.265716,30.6420456 C53.3116584,30.7074877 53.3299862,30.801515 53.3541151,30.8729837 C53.4084085,31.033747 53.4308229,31.2246102 53.3852593,31.3997159 C53.3713853,31.4530712 53.3433925,31.4890764 53.3232162,31.5449313 C53.290903,31.6344024 53.2371555,31.7732597 53.1409954,31.857202 C53.0784513,31.9117959 53.013246,31.9853876 52.9439651,32.0328051 C52.8371713,32.1058772 52.7207013,32.0668863 52.5903909,32.0132211 C52.5487135,31.9859848 52.5070248,31.9587377 52.4653474,31.9315014 C52.2655222,31.8462985 52.0788252,31.6639831 51.8782543,31.5780283 C51.8396165,31.5614742 51.799164,31.5199507 51.7672514,31.5062719 C51.7006099,31.4613318 51.6339568,31.4163692 51.5673153,31.3714179 C51.4939592,31.3399244 51.4280636,31.2634907 51.3453096,31.2279167 C51.2760959,31.1981701 51.2053121,31.142592 51.1373451,31.0943784 C51.112381,31.0766746 51.087417,31.0589483 51.0624525,31.0412441 C50.9956549,31.0125041 50.9167427,30.9518281 50.854488,30.9077062 C50.7639956,30.8435026 50.6734811,30.779277 50.5829884,30.7150623 C50.4858041,30.673141 50.3780193,30.5766366 50.2847431,30.5104648 C50.2074676,30.4556386 50.1028007,30.3965551 50.0446656,30.3331144 C49.9916198,30.2954724 49.9385622,30.2578196 49.8855163,30.2201889 C49.7747251,30.1415877 49.6654817,30.0640369 49.5691989,29.9817313 C49.5161531,29.9440894 49.4630846,29.9064474 49.4100383,29.8688055 C49.3332306,29.7846421 49.200025,29.7209582 49.1238073,29.6376794 C49.0879199,29.6122237 49.0520325,29.5867456 49.0161452,29.5612899 C48.9605044,29.500227 48.8645004,29.4468161 48.8094831,29.3866268 C48.7782836,29.3644885 48.7470726,29.3423389 48.7158621,29.3202006 C48.6736611,29.2737343 48.5983231,29.2251228 48.5560221,29.1787449 C48.5310577,29.1610298 48.5060936,29.1433147 48.4811296,29.1256105 C48.3349519,28.9645044 48.1208631,28.8428318 47.978182,28.6846451 C47.9335984,28.6483414 47.8890145,28.6120263 47.8444309,28.5757226 C47.6599275,28.3696655 47.4104968,28.2041582 47.2324405,28.0013301 C47.1840262,27.9461611 47.1294326,27.9212802 47.0819538,27.8665203 C46.9173593,27.6766412 46.7072901,27.5074517 46.5488644,27.3200493 C46.5227309,27.2891529 46.4972882,27.2819762 46.4712773,27.2509914 C46.396596,27.1620065 46.3001243,27.0700914 46.2277928,26.9801003 C46.1941212,26.9382119 46.1576212,26.9205081 46.1241168,26.8785092 C45.8734948,26.5644028 45.5788569,26.2840681 45.3360962,25.9689334 C44.9061709,25.4108624 44.4576501,24.8662604 44.1177384,24.2914476 C44.0407526,24.16126 43.9489461,24.0523045 43.8741648,23.9223825 C43.7418612,23.6925058 43.5975768,23.4661569 43.4733013,23.2314258 C43.2788097,22.86413 43.0967783,22.49376 42.9197126,22.1237436 C42.79517,21.8634793 42.6965715,21.5835316 42.5942762,21.3181142 C42.51032,21.100247 42.4302606,20.8884393 42.3531746,20.6704395 C42.2773356,20.4559338 42.2229977,20.2328026 42.1521694,20.0161627 C42.0801272,19.7958296 42.0506421,19.5620605 41.9805486,19.3406988 C41.9539256,19.2566129 41.9566869,19.1504769 41.9302196,19.0666784 C41.8649361,18.860035 41.849236,18.6354885 41.8134267,18.4231059 C41.6605906,17.5165713 41.6447347,16.588285 41.7117213,15.6455126 C41.7271766,15.4279218 41.7727957,15.2218423 41.8088057,14.9994964 C41.8252184,14.8982039 41.8586783,14.7695095 41.9716521,14.6945133 C42.0076621,14.6706056 42.1222056,14.6517734 42.1641169,14.6628538 C42.198501,14.6719434 42.2254361,14.7015241 42.257048,14.700761 Z" id="new_vector_shape_done-copy" fill="#3B434F" fill-rule="evenodd" opacity="0.2"></path>
                        </g>
                    </g>
                </g>
                <text id="Philip-Man" font-family="AvenirNext-Bold, Avenir Next" font-size="24" font-weight="bold" fill="#000000">
                    <tspan x="41.708" y="208">Philip Man</tspan>
                </text>
                <text id="3-year-partner" font-family="AvenirNext-Regular, Avenir Next" font-size="18" font-weight="normal" fill="#000000">
                    <tspan x="45.995" y="239">3-year partner</tspan>
                </text>
            </g>
            <text id="•-I-need-to-scroll-t" font-family="AvenirNext-Regular, Avenir Next" font-size="24" font-weight="normal" fill="#000000">
                <tspan x="575" y="559">• 	I need to scroll to the bottom to use the coupons of a few months ago, or </tspan>
                <tspan x="611" y="592">may have expired.</tspan>
            </text>
            <path d="M1439.75391,273 L667,273" id="Line-Copy" stroke-opacity="0.36" stroke="#000000" stroke-width="2" stroke-linecap="round" stroke-linejoin="round" stroke-dasharray="1,5"></path>
            <path d="M1438.99609,185 L574,185" id="Line-Copy-2" stroke-opacity="0.36" stroke="#000000" stroke-width="2" stroke-linecap="round" stroke-linejoin="round" stroke-dasharray="1,5"></path>
            <text id="Stage" font-family="AvenirNext-Bold, Avenir Next" font-size="24" font-weight="bold" fill="#000000">
                <tspan x="573" y="159">Stage</tspan>
            </text>
            <text id="Find" font-family="AvenirNext-Regular, Avenir Next" font-size="24" font-weight="normal" fill="#000000">
                <tspan x="702" y="159">Find</tspan>
            </text>
            <text id="Use" font-family="AvenirNext-Regular, Avenir Next" font-size="24" font-weight="normal" fill="#000000">
                <tspan x="915" y="159">Use</tspan>
            </text>
            <text id="Send-Copy" font-family="AvenirNext-Regular, Avenir Next" font-size="24" font-weight="normal" fill="#000000">
                <tspan x="1110" y="159">Send</tspan>
            </text>
            <text id="Check/Manage" font-family="AvenirNext-Regular, Avenir Next" font-size="24" font-weight="normal" fill="#000000">
                <tspan x="1268" y="159">Check/Manage</tspan>
            </text>
            <text id="Mood-Copy-2" font-family="AvenirNext-Bold, Avenir Next" font-size="24" font-weight="bold" fill="#000000">
                <tspan x="573" y="278">Mood</tspan>
            </text>
            <g id="ic_face-copy" transform="translate(915.000000, 251.000000)">
                <g id="Group">
                    <g id="Group-2">
                        <circle id="Oval-2" fill="#FFFFFF" cx="20" cy="20" r="17"></circle>
                        <g id="Group-3">
                            <g id="Path">
                                <use fill="#00A862" fill-rule="evenodd" xlink:href="#path-3"></use>
                                <path stroke="#FFFFFF" stroke-width="4" d="M20,-2 C32.1445695,-2 42,7.8554305 42,20 C42,32.1445695 32.1445695,42 20,42 C7.8554305,42 -2,32.1445695 -2,20 C-2,7.8554305 7.8554305,-2 20,-2 Z"></path>
                            </g>
                            <path d="M14,19.5 C12.62,19.5 11.5,20.62 11.5,22 C11.5,23.38 12.62,24.5 14,24.5 C15.38,24.5 16.5,23.38 16.5,22 C16.5,20.62 15.38,19.5 14,19.5 L14,19.5 Z M26,19.5 C24.62,19.5 23.5,20.62 23.5,22 C23.5,23.38 24.62,24.5 26,24.5 C27.38,24.5 28.5,23.38 28.5,22 C28.5,20.62 27.38,19.5 26,19.5 L26,19.5 Z M20,36 C11.18,36 4,28.82 4,20 C4,19.42 4.04,18.84 4.1,18.28 C8.82,16.18 12.56,12.32 14.52,7.54 C18.14,12.66 24.1,16 30.84,16 C32.4,16 33.9,15.82 35.34,15.48 C35.76,16.9 36,18.42 36,20 C36,28.82 28.82,36 20,36 L20,36 Z" id="Icon" fill="#FFFFFF"></path>
                            <path d="M14,30 C14,30 15.4006757,31.8200684 19.5990195,31.75 C23.7973633,31.6799316 25.198039,30 25.198039,30" id="Line" stroke="#00A862" stroke-width="2" stroke-linecap="round" stroke-linejoin="round"></path>
                        </g>
                    </g>
                </g>
            </g>
            <g id="ic_face-copy-2" transform="translate(1119.000000, 251.000000)">
                <g id="Group">
                    <circle id="Oval-3" fill="#FFFFFF" cx="20" cy="20" r="17.3333333"></circle>
                    <g id="Path">
                        <use fill="#F5A623" fill-rule="evenodd" xlink:href="#path-4"></use>
                        <path stroke="#FFFFFF" stroke-width="4" d="M20,-2 C32.1445695,-2 42,7.8554305 42,20 C42,32.1445695 32.1445695,42 20,42 C7.8554305,42 -2,32.1445695 -2,20 C-2,7.8554305 7.8554305,-2 20,-2 Z"></path>
                    </g>
                    <path d="M14,19.5 C12.62,19.5 11.5,20.62 11.5,22 C11.5,23.38 12.62,24.5 14,24.5 C15.38,24.5 16.5,23.38 16.5,22 C16.5,20.62 15.38,19.5 14,19.5 L14,19.5 Z M26,19.5 C24.62,19.5 23.5,20.62 23.5,22 C23.5,23.38 24.62,24.5 26,24.5 C27.38,24.5 28.5,23.38 28.5,22 C28.5,20.62 27.38,19.5 26,19.5 L26,19.5 Z M20,36 C11.18,36 4,28.82 4,20 C4,19.42 4.04,18.84 4.1,18.28 C8.82,16.18 12.56,12.32 14.52,7.54 C18.14,12.66 24.1,16 30.84,16 C32.4,16 33.9,15.82 35.34,15.48 C35.76,16.9 36,18.42 36,20 C36,28.82 28.82,36 20,36 L20,36 Z" id="Icon" fill="#FFFFFF"></path>
                    <path d="M16.5,29.3333333 L23.698039,29.3333333" id="Line" stroke="#F5A623" stroke-width="2.66666667" stroke-linecap="round" stroke-linejoin="round"></path>
                </g>
            </g>
            <g id="ic_face-copy-3" transform="translate(707.000000, 251.000000)">
                <g id="Group">
                    <circle id="Oval-2" fill="#FFFFFF" cx="20" cy="21.3333333" r="17.3333333"></circle>
                    <g id="Path">
                        <use fill="#FC605F" fill-rule="evenodd" xlink:href="#path-5"></use>
                        <path stroke="#FFFFFF" stroke-width="4" d="M20,-2 C32.1445695,-2 42,7.8554305 42,20 C42,32.1445695 32.1445695,42 20,42 C7.8554305,42 -2,32.1445695 -2,20 C-2,7.8554305 7.8554305,-2 20,-2 Z"></path>
                    </g>
                    <path d="M14,19.5 C12.62,19.5 11.5,20.62 11.5,22 C11.5,23.38 12.62,24.5 14,24.5 C15.38,24.5 16.5,23.38 16.5,22 C16.5,20.62 15.38,19.5 14,19.5 L14,19.5 Z M26,19.5 C24.62,19.5 23.5,20.62 23.5,22 C23.5,23.38 24.62,24.5 26,24.5 C27.38,24.5 28.5,23.38 28.5,22 C28.5,20.62 27.38,19.5 26,19.5 L26,19.5 Z M20,36 C11.18,36 4,28.82 4,20 C4,19.42 4.04,18.84 4.1,18.28 C8.82,16.18 12.56,12.32 14.52,7.54 C18.14,12.66 24.1,16 30.84,16 C32.4,16 33.9,15.82 35.34,15.48 C35.76,16.9 36,18.42 36,20 C36,28.82 28.82,36 20,36 L20,36 Z" id="Icon" fill="#FFFFFF"></path>
                    <path d="M14.5,28.3720414 C14.5,28.3720414 15.9006757,31.1021439 20.0990195,30.9970414 C24.2973633,30.8919389 25.698039,28.3720414 25.698039,28.3720414" id="Line" stroke="#FC605F" stroke-width="2.66666667" stroke-linecap="round" stroke-linejoin="round" transform="translate(20.099020, 29.686021) scale(1, -1) translate(-20.099020, -29.686021) "></path>
                </g>
            </g>
            <g id="ic_face-copy-4" transform="translate(1332.000000, 251.000000)">
                <g id="Group">
                    <circle id="Oval-2" fill="#FFFFFF" cx="20" cy="21.3333333" r="17.3333333"></circle>
                    <g id="Path">
                        <use fill="#FC605F" fill-rule="evenodd" xlink:href="#path-6"></use>
                        <path stroke="#FFFFFF" stroke-width="4" d="M20,-2 C32.1445695,-2 42,7.8554305 42,20 C42,32.1445695 32.1445695,42 20,42 C7.8554305,42 -2,32.1445695 -2,20 C-2,7.8554305 7.8554305,-2 20,-2 Z"></path>
                    </g>
                    <path d="M14,19.5 C12.62,19.5 11.5,20.62 11.5,22 C11.5,23.38 12.62,24.5 14,24.5 C15.38,24.5 16.5,23.38 16.5,22 C16.5,20.62 15.38,19.5 14,19.5 L14,19.5 Z M26,19.5 C24.62,19.5 23.5,20.62 23.5,22 C23.5,23.38 24.62,24.5 26,24.5 C27.38,24.5 28.5,23.38 28.5,22 C28.5,20.62 27.38,19.5 26,19.5 L26,19.5 Z M20,36 C11.18,36 4,28.82 4,20 C4,19.42 4.04,18.84 4.1,18.28 C8.82,16.18 12.56,12.32 14.52,7.54 C18.14,12.66 24.1,16 30.84,16 C32.4,16 33.9,15.82 35.34,15.48 C35.76,16.9 36,18.42 36,20 C36,28.82 28.82,36 20,36 L20,36 Z" id="Icon" fill="#FFFFFF"></path>
                    <path d="M14.5,28.3720414 C14.5,28.3720414 15.9006757,31.1021439 20.0990195,30.9970414 C24.2973633,30.8919389 25.698039,28.3720414 25.698039,28.3720414" id="Line" stroke="#FC605F" stroke-width="2.66666667" stroke-linecap="round" stroke-linejoin="round" transform="translate(20.099020, 29.686021) scale(1, -1) translate(-20.099020, -29.686021) "></path>
                </g>
            </g>
        </g>
    </g>
</svg>