<?xml version="1.0" encoding="UTF-8"?>
<svg width="1471px" height="773px" viewBox="0 0 1471 773" version="1.1" xmlns="http://www.w3.org/2000/svg" xmlns:xlink="http://www.w3.org/1999/xlink">
    <!-- Generator: Sketch 48.2 (47327) - http://www.bohemiancoding.com/sketch -->
    <title>Desktop HD Copy 7</title>
    <desc>Created with Sketch.</desc>
    <defs>
        <circle id="path-1" cx="80" cy="80" r="80"></circle>
        <path d="M20,0 C8.96,0 0,8.96 0,20 C0,31.04 8.96,40 20,40 C31.04,40 40,31.04 40,20 C40,8.96 31.04,0 20,0 L20,0 Z" id="path-3"></path>
        <path d="M20,0 C8.96,0 0,8.96 0,20 C0,31.04 8.96,40 20,40 C31.04,40 40,31.04 40,20 C40,8.96 31.04,0 20,0 L20,0 Z" id="path-4"></path>
        <path d="M20,0 C8.96,0 0,8.96 0,20 C0,31.04 8.96,40 20,40 C31.04,40 40,31.04 40,20 C40,8.96 31.04,0 20,0 L20,0 Z" id="path-5"></path>
        <path d="M20,0 C8.96,0 0,8.96 0,20 C0,31.04 8.96,40 20,40 C31.04,40 40,31.04 40,20 C40,8.96 31.04,0 20,0 L20,0 Z" id="path-6"></path>
    </defs>
    <g id="E-coupons" stroke="none" stroke-width="1" fill="none" fill-rule="evenodd">
        <g id="Desktop-HD-Copy-7">
            <g id="Group-5" transform="translate(23.000000, 329.000000)" fill="#000000">
                <text id="Partner-E-coupon-is" font-family="AvenirNext-DemiBold, Avenir Next" font-size="24" font-weight="500">
                    <tspan x="0" y="89">Partner E-coupon is a benefit. </tspan>
                    <tspan x="0" y="122">I love to share/send to my </tspan>
                    <tspan x="0" y="155">friends via WeChat. </tspan>
                    <tspan x="0" y="188">Meanwhile, I want to easily </tspan>
                    <tspan x="0" y="221">check and manage my </tspan>
                    <tspan x="0" y="254">coupons to make sure they </tspan>
                    <tspan x="0" y="287">are all available to use.</tspan>
                </text>
                <text id="“" font-family="Helvetica-Bold, Helvetica" font-size="72" font-weight="bold">
                    <tspan x="0" y="69">“</tspan>
                </text>
                <text id="“" transform="translate(318.000000, 306.000000) scale(-1, -1) translate(-318.000000, -306.000000) " font-family="Helvetica-Bold, Helvetica" font-size="72" font-weight="bold">
                    <tspan x="300" y="332">“</tspan>
                </text>
            </g>
            <path d="M448.5,35.9856589 L448.5,742.004906" id="Line" stroke-opacity="0.36" stroke="#000000" stroke-width="2" stroke-linecap="round" stroke-linejoin="round" stroke-dasharray="1,5"></path>
            <path d="M1441,273 L668,273" id="Line-Copy" stroke-opacity="0.36" stroke="#000000" stroke-width="2" stroke-linecap="round" stroke-linejoin="round" stroke-dasharray="1,5"></path>
            <path d="M1439,185 L574,185" id="Line-Copy-2" stroke-opacity="0.36" stroke="#000000" stroke-width="2" stroke-linecap="round" stroke-linejoin="round" stroke-dasharray="1,5"></path>
            <path d="M1439,361 L574,361" id="Line-Copy-3" stroke-opacity="0.821897645" stroke="#000000" stroke-width="4" stroke-linecap="round" stroke-linejoin="round" stroke-dasharray="1,12"></path>
            <text id="Journey" font-family="AvenirNext-Bold, Avenir Next" font-size="24" font-weight="bold" fill="#000000">
                <tspan x="573" y="59">Journey</tspan>
            </text>
            <rect id="Rectangle" fill="#000000" x="568" y="84" width="871" height="3"></rect>
            <text id="Stage" font-family="AvenirNext-Bold, Avenir Next" font-size="24" font-weight="bold" fill="#000000">
                <tspan x="573" y="159">Stage</tspan>
            </text>
            <text id="•-Too-many-steps-for" font-family="AvenirNext-Regular, Avenir Next" font-size="24" font-weight="normal" line-spacing="36" fill="#000000">
                <tspan x="575" y="559">•	Too many steps for sending coupons to friend, I need to repeat the same </tspan>
                <tspan x="611" y="595">operation many times.</tspan>
                <tspan x="575" y="631"></tspan>
                <tspan x="575" y="667">•	I Don’t know the status of each coupon. I may forget that the coupon has </tspan>
                <tspan x="611" y="703">been used or sent to others.</tspan>
            </text>
            <text id="Find" font-family="AvenirNext-Regular, Avenir Next" font-size="24" font-weight="normal" fill="#000000">
                <tspan x="702" y="159">Find</tspan>
            </text>
            <text id="Use" font-family="AvenirNext-Regular, Avenir Next" font-size="24" font-weight="normal" fill="#000000">
                <tspan x="915" y="159">Use</tspan>
            </text>
            <text id="Send-Copy" font-family="AvenirNext-Regular, Avenir Next" font-size="24" font-weight="normal" fill="#000000">
                <tspan x="1110" y="159">Send</tspan>
            </text>
            <text id="Check/Manage" font-family="AvenirNext-Regular, Avenir Next" font-size="24" font-weight="normal" fill="#000000">
                <tspan x="1268" y="159">Check/Manage</tspan>
            </text>
            <text id="Mood-Copy-2" font-family="AvenirNext-Bold, Avenir Next" font-size="24" font-weight="bold" fill="#000000">
                <tspan x="573" y="278">Mood</tspan>
            </text>
            <text id="Pain-Points" font-family="AvenirNext-Bold, Avenir Next" font-size="24" font-weight="bold" fill="#000000">
                <tspan x="573" y="510">Pain-Points</tspan>
            </text>
            <g id="Group-4" transform="translate(86.000000, 51.000000)">
                <g id="users-5" transform="translate(24.000000, 0.000000)">
                    <mask id="mask-2" fill="white">
                        <use xlink:href="#path-1"></use>
                    </mask>
                    <use id="Mask" stroke="#979797" fill="#D8D8D8" xlink:href="#path-1"></use>
                    <circle id="Oval" fill="#FBE5FF" mask="url(#mask-2)" cx="80" cy="80" r="80"></circle>
                    <g mask="url(#mask-2)">
                        <g transform="translate(30.000000, 9.000000)">
                            <path d="M69.3683062,89.5701233 C69.3683062,89.5701233 54.168301,71.2563034 70.4874308,90.4090229 C86.8065607,109.561732 99.864482,97.9591214 99.864482,97.9591214 C99.864482,97.9591214 99.864482,60.3942878 99.864482,32.8045077 C99.864482,5.21472759 82.7978115,4.28188319 82.7978115,4.28188319 C82.7978115,4.28188319 88.1136636,2.883717 88.1136636,2.883717 C66.9741672,-5.84452765 59.720299,9.42964783 58.0351482,14.1461917 C57.7421295,14.9663206 57.6174875,15.4672344 57.6174875,15.4672344 C57.6174875,15.4672344 56.1035557,22.3384607 58.876503,24.9747659" id="Shape-16" fill="#3B444F" fill-rule="nonzero"></path>
                            <path d="M47.8251374,20.2210002 C67.2172672,20.2210002 82.937702,35.9331263 82.937702,55.3150066 C82.937702,55.3150066 82.937702,62.5854819 82.937702,62.5854819 C82.937702,81.9673622 67.2172672,97.6794883 47.8251374,97.6794883 C28.4330075,97.6794883 12.7125725,81.9673622 12.7125725,62.5854819 C12.7125725,62.5854819 12.7125725,55.3150066 12.7125725,55.3150066 C12.7125725,35.9331263 28.4330075,20.2210002 47.8251374,20.2210002 Z" id="Rounded-Rectangle-7" fill="#3B444F" fill-rule="nonzero"></path>
                            <path d="M1.10163443,153.689218 C1.10163443,153.689218 -1.06721475,124.200478 26.70164,121.448347 C26.70164,121.448347 39.1519115,121.448347 39.1519115,121.448347 C39.1519115,121.448347 39.1519115,115.715855 39.1519115,115.715855 C39.1519115,115.715855 47.9098361,119.475613 56.7781443,116.135305 C56.7781443,116.135305 57.0579252,121.448347 57.0579252,121.448347 C57.0579252,121.448347 71.6065554,121.448347 71.6065554,121.448347 C71.6065554,121.448347 96.5198052,122.426273 95.3879734,153.968851 C95.3879734,153.968851 1.10163443,153.689218 1.10163443,153.689218 Z" id="body-bg-flat-copy" fill="#FFFFFF" fill-rule="nonzero"></path>
                            <path d="M95.1678466,154.864554 C95.1678466,154.864554 1.88378492,154.864554 1.88378492,154.864554 C1.88378492,154.864554 0.0746429508,154.864554 0.0746429508,154.864554 C0.0746429508,154.864554 0.526233115,147.153937 0.526233115,147.153937 C1.40797115,132.098873 13.2760269,120.609447 26.85738,120.609447 C26.85738,120.609447 36.196279,120.609447 36.196279,120.609447 C35.5904302,121.110271 35.1464443,121.629746 34.8271403,122.14743 C34.8271403,122.14743 27.6818748,122.14743 27.6818748,122.14743 C14.5922452,122.14743 3.15387672,133.206635 2.30405705,147.697963 C2.30405705,147.697963 1.99037639,153.046937 1.99037639,153.046937 C1.99037639,153.046937 94.9213646,153.046937 94.9213646,153.046937 C94.9213646,153.046937 94.7475748,147.697963 94.7475748,147.697963 C93.8977551,133.206635 82.4593866,122.14743 69.3697469,122.14743 C69.3697469,122.14743 62.2183977,122.14743 62.2183977,122.14743 C61.9449203,121.633556 61.5560462,121.114121 61.0131236,120.609447 C61.0131236,120.609447 70.1112843,120.609447 70.1112843,120.609447 C83.692637,120.609447 95.5606931,132.098873 96.4424308,147.153937 C96.4424308,147.153937 96.894021,154.864554 96.894021,154.864554 C96.894021,154.864554 95.1678466,154.864554 95.1678466,154.864554 Z M58.2460397,122.14743 C58.2460397,122.14743 57.7573784,122.14743 57.7573784,122.14743 C57.7573784,122.14743 57.7573784,120.609447 57.7573784,120.609447 C57.7573784,120.609447 58.3003311,120.609447 58.3003311,120.609447 C58.2678721,121.009166 58.2470102,121.51298 58.2460397,122.14743 Z M38.5702564,120.609447 C38.5702564,120.609447 39.1519115,120.609447 39.1519115,120.609447 C39.1519115,120.609447 39.1519115,122.14743 39.1519115,122.14743 C39.1519115,122.14743 38.649202,122.14743 38.649202,122.14743 C38.6416875,121.494289 38.6117403,120.993085 38.5702564,120.609447 Z" id="Rounded-Rectangle-13-copy-4" fill="#3B434F" fill-rule="evenodd"></path>
                            <path d="M52.861198,142.001413 C53.4020197,142.001413 53.840442,142.439594 53.840442,142.980129 C53.840442,143.520655 53.4020197,143.958846 52.861198,143.958846 C52.3203866,143.958846 51.8819639,143.520655 51.8819639,142.980129 C51.8819639,142.439594 52.3203866,142.001413 52.861198,142.001413 Z" id="Ellipse-5" fill="#3B434F" fill-rule="nonzero"></path>
                            <path d="M52.861198,148.432978 C53.4020197,148.432978 53.840442,148.871169 53.840442,149.411695 C53.840442,149.95223 53.4020197,150.390411 52.861198,150.390411 C52.3203866,150.390411 51.8819639,149.95223 51.8819639,149.411695 C51.8819639,148.871169 52.3203866,148.432978 52.861198,148.432978 Z" id="Ellipse-5-copy" fill="#3B434F" fill-rule="nonzero"></path>
                            <path d="M64.1923449,128.858639 C64.1923449,128.858639 57.0579252,139.484713 57.0579252,139.484713 C55.1171275,133.472388 49.5038243,135.709654 49.5038243,135.709654 C49.5038243,135.709654 49.5038243,153.466877 49.5038243,153.466877 C49.5038243,153.929919 49.0654016,154.305287 48.5245902,154.305287 C47.9837787,154.305287 47.5453561,153.929919 47.5453561,153.466877 C47.5453561,153.466877 47.5453561,135.709234 47.5453561,135.709234 C47.49994,135.691233 41.9313023,133.496919 40.0005203,139.484713 C40.0005203,139.484713 32.8738452,128.858639 32.8738452,128.858639 C32.8738452,128.858639 30.1170974,121.853586 38.4633948,118.791831 C38.4633948,115.736846 38.4633948,115.576038 38.4633948,115.576038 C38.4633948,115.576038 40.0416239,115.576038 40.0416239,115.576038 C40.0416239,115.576038 40.0416239,121.416825 40.0416239,125.696499 C40.2442407,127.438621 41.444362,132.402537 48.5245902,134.031854 C55.6125128,132.402537 56.8139449,127.438621 57.0167816,125.696499 C57.0167816,121.416825 57.0167816,115.576038 57.0167816,115.576038 C57.0167816,115.576038 58.5967216,115.576038 58.5967216,115.576038 C58.5967216,115.576038 58.5967216,115.736846 58.5967216,118.791831 C66.9520843,121.853586 64.1923449,128.858639 64.1923449,128.858639 Z M39.9177928,129.799293 C39.5373836,129.368723 38.9894679,128.299362 38.9894679,128.299362 C38.9894679,128.299362 38.4633948,126.549479 38.4633948,125.782663 C38.4633948,124.830267 38.4633948,123.580108 38.4633948,122.236254 C38.3444164,120.636788 38.0441836,120.609447 38.0441836,120.609447 C31.8167164,123.675112 34.5507111,128.439179 34.5507111,128.439179 C34.5507111,128.439179 39.7210492,136.548554 39.7210492,136.548554 C41.7401023,133.129221 43.9132141,133.752221 43.9132141,133.752221 C41.994539,132.774845 40.7362039,131.257962 39.9177928,129.799293 Z M59.0163934,120.609447 C59.0163934,120.609447 58.7158302,120.636788 58.5967216,122.236254 C58.5967216,123.580108 58.5967216,124.830267 58.5967216,125.782663 C58.5967216,126.549479 58.0700784,128.299362 58.0700784,128.299362 C58.0700784,128.299362 57.5215623,129.368723 57.140743,129.799293 C56.3214413,131.257962 55.0617354,132.774845 53.1409793,133.752221 C53.1409793,133.752221 55.3164521,133.129221 57.3377066,136.548554 C57.3377066,136.548554 62.5136577,128.439179 62.5136577,128.439179 C62.5136577,128.439179 65.2506243,123.675112 59.0163934,120.609447 Z" id="Shape-2-copy-9" fill="#3B434F" fill-rule="evenodd"></path>
                            <path d="M48.5949708,27.3516487 C65.9975548,27.3516487 79.7334266,43.6057505 79.2867993,63.1354481 C79.2867993,63.1354481 78.8121059,83.8920637 78.8121059,83.8920637 C78.3913433,102.290977 64.8673534,116.834388 48.5949708,116.834388 C32.3225879,116.834388 18.798598,102.290977 18.3778357,83.8920637 C18.3778357,83.8920637 17.9031423,63.1354481 17.9031423,63.1354481 C17.4565249,43.6057505 31.1923869,27.3516487 48.5949708,27.3516487 Z" id="2-copy-5" fill="#FFFFFF" fill-rule="nonzero"></path>
                            <path d="M80.6850446,62.4919172 C80.6850446,62.4919172 80.1876482,84.091763 80.1876482,84.091763 C79.7467643,103.238132 65.5758318,118.372371 48.5250505,118.372371 C31.474259,118.372371 17.3033367,103.238132 16.8624426,84.091763 C16.8624426,84.091763 16.3650364,62.4919172 16.3650364,62.4919172 C15.8970567,42.1688222 30.289997,25.254399 48.5250505,25.254399 C66.7601039,25.254399 81.1530341,42.1688222 80.6850446,62.4919172 Z M48.4551803,27.4914655 C31.2905033,27.4914655 17.7424197,43.6185811 18.1829233,62.9957013 C18.1829233,62.9957013 18.6511331,83.5901591 18.6511331,83.5901591 C19.066142,101.845326 32.4052554,116.275121 48.4551803,116.275121 C64.5051049,116.275121 77.8442082,101.845326 78.2592174,83.5901591 C78.2592174,83.5901591 78.727417,62.9957013 78.727417,62.9957013 C79.1679407,43.6185811 65.619857,27.4914655 48.4551803,27.4914655 Z" id="2-line" fill="#3B434F" fill-rule="evenodd"></path>
                            <path d="M63.6327826,96.4492999 C61.0900879,98.6559444 55.3468898,100.755454 48.6644908,100.755454 C41.9820816,100.755454 36.2388836,98.6559444 33.696179,96.4492999 C33.696179,96.4492999 33.4360292,95.7338458 33.817719,95.3523577 C34.2064728,94.9638094 34.8153036,95.0483732 34.8153036,95.0483732 C37.3553367,97.2565182 41.9795302,99.0776647 48.6644908,99.0776647 C55.3494413,99.0776647 59.9736348,97.2565182 62.5136679,95.0483732 C62.5136679,95.0483732 63.1349859,94.8176922 63.4368095,95.1193566 C64.0181344,95.7003743 63.6327826,96.4492999 63.6327826,96.4492999 Z" id="usta" fill="#3B434F" fill-rule="nonzero"></path>
                            <path d="M44.0480918,104.111064 C44.0480918,104.111064 53.0010987,104.111064 53.0010987,104.111064 C53.0010987,104.111064 53.0010987,105.50923 53.0010987,105.50923 C53.0010987,105.50923 44.0480918,105.50923 44.0480918,105.50923 C44.0480918,105.50923 44.0480918,104.111064 44.0480918,104.111064 Z" id="-" fill="#3B434F" fill-rule="nonzero"></path>
                            <path d="M16.3302361,65.641727 C16.3263741,65.6419468 15.9867584,65.3708741 15.3454489,65.1690645 C15.0249243,65.0683797 14.6265649,64.9855556 14.1725134,64.9651349 C14.059118,64.9600347 13.9424108,64.9588245 13.8229921,64.9622145 C13.7035731,64.9656048 13.5814328,64.9735852 13.4572813,64.9868359 C13.2090085,65.0133471 12.9525908,65.0609895 12.694562,65.1351729 C11.661397,65.4319271 10.60744,66.1534311 9.98845344,67.642622 C9.67773443,68.3872574 9.47275639,69.3239017 9.41856525,70.4958076 C9.40500721,70.7887913 9.40086492,71.0964758 9.4068082,71.4195414 C9.41276164,71.7426066 9.42881115,72.0810525 9.45561639,72.4355595 C9.50919738,73.1445433 9.60595311,73.9177799 9.75011607,74.7603599 C9.74696426,74.7595299 9.61565869,77.3065508 10.5267033,80.2332497 C11.3831767,83.0946755 13.4398413,86.6096826 17.2371587,87.6141301 C16.8004269,80.3460451 16.7868593,72.9417236 16.3302361,65.641727 C16.3302361,65.641727 16.3302361,65.641727 16.3302361,65.641727 Z" id="Shape-11-copy" fill="#FFFFFF" fill-rule="nonzero"></path>
                            <path d="M16.7632357,65.9347307 C16.7632357,65.9347307 10.1480252,63.8860836 10.3808295,70.6833064 C10.3808295,70.6833064 11.3657167,80.5394943 11.793403,81.4478674 C11.793403,81.4478674 14.3913793,87.1864799 18.6789692,87.4408021 C22.869463,87.6893638 18.6789692,87.4408021 18.6789692,87.4408021 C18.6789692,87.4408021 18.7310092,89.2904899 18.7310092,89.2904899 C18.7310092,89.2904899 11.1950584,88.324774 9.73954,79.6449018 C9.73954,79.6449018 8.5907282,71.7596576 8.5907282,71.7596576 C8.5907282,71.7596576 7.69872459,61.3243121 16.3512082,63.9775778 C24.7804836,66.5624008 16.3512082,63.9775778 16.3512082,63.9775778 C16.3512082,63.9775778 16.7632357,65.9347307 16.7632357,65.9347307" id="Shape-3" fill="#3B434F" fill-rule="nonzero"></path>
                            <path d="M14.579778,79.6283211 C14.579778,79.6283211 14.2095646,79.9079545 13.8915315,79.9079545 C13.5734984,79.9079545 13.2077977,79.6283211 13.2077977,79.6283211 C13.2077977,79.6283211 12.5251046,72.7523546 12.5251046,72.7523546 C12.5251046,72.7523546 13.4670469,69.3661237 17.4640593,71.1556488 C17.4640593,71.1556488 17.5585436,73.121732 17.5585436,73.121732 C17.5585436,73.121732 14.0517738,71.878713 14.1242856,73.4265564 C14.1940859,74.9164374 14.579778,79.6283211 14.579778,79.6283211 Z" id="Shape-4" fill="#3B434F" fill-rule="nonzero"></path>
                            <path d="M80.9224315,65.6577778 C80.9263134,65.6579977 81.26742,65.3871147 81.9115311,65.1854351 C82.2334666,65.0848205 82.6335669,65.0020567 83.0896095,64.9816455 C83.2034951,64.9765554 83.3207128,64.9753453 83.440662,64.9787356 C83.560601,64.9821155 83.6832715,64.9900958 83.8079734,65.0033367 C84.0573269,65.0298279 84.3148754,65.0774401 84.5740348,65.1515737 C85.6117223,65.4481277 86.6702921,66.1691418 87.2919902,67.6573227 C87.6040698,68.4014479 87.8099485,69.3374523 87.8643698,70.508568 C87.8779879,70.8013519 87.8821502,71.1088267 87.8761866,71.431672 C87.8702033,71.754517 87.8540839,72.0927332 87.8271584,72.447 C87.7733475,73.1555037 87.6761613,73.9282203 87.5313682,74.7702203 C87.53454,74.7693902 87.6664157,77.3146911 86.7513787,80.2394002 C85.8911633,83.0988858 83.8254836,86.6115026 80.0115367,87.6152702 C80.4501793,80.3521153 80.4638072,72.952824 80.9224315,65.6577778 C80.9224315,65.6577778 80.9224315,65.6577778 80.9224315,65.6577778 Z" id="Shape-11-copy_1" fill="#FFFFFF" fill-rule="nonzero"></path>
                            <path d="M80.1582311,65.9505915 C80.1582311,65.9505915 86.802418,63.9033345 86.5685934,70.6959368 C86.5685934,70.6959368 85.5793938,80.5454348 85.1498262,81.4531878 C85.1498262,81.4531878 82.5404734,87.1879099 78.2341128,87.4420621 C74.0252587,87.690454 78.2341128,87.4420621 78.2341128,87.4420621 C78.2341128,87.4420621 78.1818426,89.2904899 78.1818426,89.2904899 C78.1818426,89.2904899 85.7507925,88.325434 87.2126846,79.6514521 C87.2126846,79.6514521 88.3665292,71.7715578 88.3665292,71.7715578 C88.3665292,71.7715578 89.2624452,61.3432929 80.5720593,63.9947586 C72.1058731,66.5778313 80.5720593,63.9947586 80.5720593,63.9947586 C80.5720593,63.9947586 80.1582311,65.9505915 80.1582311,65.9505915" id="Shape-3_1" fill="#3B434F" fill-rule="nonzero"></path>
                            <path d="M82.3512544,79.6348815 C82.3512544,79.6348815 82.7230885,79.9143246 83.0425125,79.9143246 C83.3619364,79.9143246 83.729238,79.6348815 83.729238,79.6348815 C83.729238,79.6348815 84.414923,72.763585 84.414923,72.763585 C84.414923,72.763585 83.468858,69.3796545 79.4543357,71.1679593 C79.4543357,71.1679593 79.359441,73.1327125 79.359441,73.1327125 C79.359441,73.1327125 82.8815698,71.8905336 82.8087377,73.4373271 C82.7386374,74.9261978 82.3512544,79.6348815 82.3512544,79.6348815 Z" id="Shape-4_1" fill="#3B434F" fill-rule="nonzero"></path>
                            <path d="M51.1125708,79.0838654 C51.2757548,79.0838654 51.438999,79.0838654 51.602183,79.0838654 C52.6144659,80.4578804 53.0263033,82.5693707 53.5606508,84.3968974 C53.7262462,84.9632543 53.5655938,85.9538815 53.4207603,86.3543304 C52.8903449,87.8209401 51.2248154,87.7946189 49.8535557,88.4515801 C49.4852836,88.6280284 49.2113456,88.9325827 48.7344311,89.0108564 C48.4235118,88.7371235 48.0481056,88.6833611 47.8950777,88.2418601 C47.5172698,87.7218954 48.0042003,87.3971901 48.3846997,87.1932304 C49.0752672,86.8230727 51.2070452,86.4582453 51.4622921,85.7950639 C51.7781043,85.4359967 51.5681131,84.3564257 51.4622921,83.9774477 C51.1912761,83.0067614 51.0611911,82.196383 50.692899,81.3209315 C50.4482584,80.7394338 50.0187407,80.1263148 50.2732275,79.4334018 C50.4841089,79.3428976 50.9398813,79.2399926 51.1125708,79.0838654 Z" id="new_vector_shape_done" fill="#3B434F" fill-rule="evenodd"></path>
                            <path d="M31.737701,68.317974 C31.737701,68.317974 33.696179,68.317974 33.696179,68.317974 C34.7778121,68.317974 35.6546472,69.1943456 35.6546472,70.2754071 C35.6546472,71.3564682 34.7778121,72.2328398 33.696179,72.2328398 C33.696179,72.2328398 31.737701,72.2328398 31.737701,72.2328398 C30.6560679,72.2328398 29.7792328,71.3564682 29.7792328,70.2754071 C29.7792328,69.1943456 30.6560679,68.317974 31.737701,68.317974 Z" id="Rounded-Rectangle-8" fill="#3B434F" fill-rule="nonzero"></path>
                            <path d="M63.6327826,68.317974 C63.6327826,68.317974 65.5912607,68.317974 65.5912607,68.317974 C66.6728934,68.317974 67.5497285,69.1943456 67.5497285,70.2754071 C67.5497285,71.3564682 66.6728934,72.2328398 65.5912607,72.2328398 C65.5912607,72.2328398 63.6327826,72.2328398 63.6327826,72.2328398 C62.5511495,72.2328398 61.6743144,71.3564682 61.6743144,70.2754071 C61.6743144,69.1943456 62.5511495,68.317974 63.6327826,68.317974 Z" id="Rounded-Rectangle-8-copy" fill="#3B434F" fill-rule="nonzero"></path>
                            <path d="M65.4513698,77.5458823 C67.3828525,77.5458823 68.9486344,79.1108364 68.9486344,81.0412981 C68.9486344,82.9717599 67.3828525,84.5367142 65.4513698,84.5367142 C63.5198774,84.5367142 61.9541056,82.9717599 61.9541056,81.0412981 C61.9541056,79.1108364 63.5198774,77.5458823 65.4513698,77.5458823 Z" id="Ellipse-3" fill="#EDF1F1" fill-rule="nonzero"></path>
                            <path d="M31.5978203,77.5458823 C33.529303,77.5458823 35.0950849,79.1108364 35.0950849,81.0412981 C35.0950849,82.9717599 33.529303,84.5367142 31.5978203,84.5367142 C29.6663279,84.5367142 28.1005561,82.9717599 28.1005561,81.0412981 C28.1005561,79.1108364 29.6663279,77.5458823 31.5978203,77.5458823 Z" id="Ellipse-3-copy" fill="#EDF1F1" fill-rule="nonzero"></path>
                            <path d="M56.0655738,62.1344102 C56.0655738,62.1344102 56.8758807,63.1630994 56.8758807,63.1630994 C56.8758807,63.1630994 57.3786302,63.8006596 57.3786302,63.8006596 C57.3786302,63.8006596 66.2803774,58.8878363 72.4590164,64.5560254 C72.4590164,64.5560254 73.1177557,64.8787806 73.1177557,64.8787806 C73.1177557,64.8787806 71.595639,56.6613805 58.2713744,61.4679587 C57.5683793,61.6585478 56.8348869,61.8785082 56.0655738,62.1344102 Z" id="R" fill="#3B434F" fill-rule="nonzero"></path>
                            <path d="M40.6557377,62.1401308 C40.6557377,62.1401308 39.8454308,63.1666794 39.8454308,63.1666794 C39.8454308,63.1666794 39.3426813,63.8029095 39.3426813,63.8029095 C39.3426813,63.8029095 30.4409341,58.9003067 24.2622951,64.5567053 C24.2622951,64.5567053 23.6035557,64.8787908 23.6035557,64.8787908 C23.6035557,64.8787908 25.1256725,56.6784712 38.449937,61.4750589 C39.1529321,61.665258 39.8864246,61.8847586 40.6557377,62.1401308 Z" id="L" fill="#3B434F" fill-rule="nonzero"></path>
                            <path d="M48.5245902,43.9142753 C48.5245902,43.9142753 48.5245902,12.954065 48.5245902,12.954065 C48.6179639,12.9533451 48.7108275,12.9505249 48.8043715,12.9505249 C68.4282846,12.9505249 84.3366079,28.8504498 84.3366079,48.4639912 C84.3366079,48.4639912 84.3366079,59.8776233 84.3366079,59.8776233 C84.3294738,60.275372 84.3291134,60.6657607 84.3366079,61.0474988 C84.3366079,61.0474988 51.33702,52.1276453 48.5245902,43.9142753 Z M12.7125725,61.0474988 C12.7200669,60.6657607 12.7197066,60.275372 12.7125725,59.8776233 C12.7125725,59.8776233 12.7125725,48.4639912 12.7125725,48.4639912 C12.7125725,28.8504498 28.6208957,12.9505249 48.2448089,12.9505249 C48.3383528,12.9505249 48.4312164,12.9533451 48.5245902,12.954065 C48.5245902,12.954065 48.5245902,43.9142753 48.5245902,43.9142753 C45.7121603,52.1276453 12.7125725,61.0474988 12.7125725,61.0474988 Z" id="Rounded-Rectangle-6" fill="#3B434F" fill-rule="evenodd"></path>
                        </g>
                    </g>
                </g>
                <text id="Rachel-Min" font-family="AvenirNext-Bold, Avenir Next" font-size="24" font-weight="bold" fill="#000000">
                    <tspan x="39.824" y="208">Rachel Min</tspan>
                </text>
                <text id="1-year-partner" font-family="AvenirNext-Regular, Avenir Next" font-size="18" font-weight="normal" fill="#000000">
                    <tspan x="45.995" y="239">1-year partner</tspan>
                </text>
            </g>
            <g id="ic_face-copy" transform="translate(915.000000, 251.000000)">
                <g id="Group">
                    <g id="Group-2">
                        <circle id="Oval-2" fill="#FFFFFF" cx="20" cy="20" r="17"></circle>
                        <g id="Group-3">
                            <g id="Path">
                                <use fill="#00A862" fill-rule="evenodd" xlink:href="#path-3"></use>
                                <path stroke="#FFFFFF" stroke-width="4" d="M20,-2 C32.1445695,-2 42,7.8554305 42,20 C42,32.1445695 32.1445695,42 20,42 C7.8554305,42 -2,32.1445695 -2,20 C-2,7.8554305 7.8554305,-2 20,-2 Z"></path>
                            </g>
                            <path d="M14,19.5 C12.62,19.5 11.5,20.62 11.5,22 C11.5,23.38 12.62,24.5 14,24.5 C15.38,24.5 16.5,23.38 16.5,22 C16.5,20.62 15.38,19.5 14,19.5 L14,19.5 Z M26,19.5 C24.62,19.5 23.5,20.62 23.5,22 C23.5,23.38 24.62,24.5 26,24.5 C27.38,24.5 28.5,23.38 28.5,22 C28.5,20.62 27.38,19.5 26,19.5 L26,19.5 Z M20,36 C11.18,36 4,28.82 4,20 C4,19.42 4.04,18.84 4.1,18.28 C8.82,16.18 12.56,12.32 14.52,7.54 C18.14,12.66 24.1,16 30.84,16 C32.4,16 33.9,15.82 35.34,15.48 C35.76,16.9 36,18.42 36,20 C36,28.82 28.82,36 20,36 L20,36 Z" id="Icon" fill="#FFFFFF"></path>
                            <path d="M14,30 C14,30 15.4006757,31.8200684 19.5990195,31.75 C23.7973633,31.6799316 25.198039,30 25.198039,30" id="Line" stroke="#00A862" stroke-width="2" stroke-linecap="round" stroke-linejoin="round"></path>
                        </g>
                    </g>
                </g>
            </g>
            <g id="ic_face-copy-3" transform="translate(1119.000000, 251.000000)">
                <g id="Group">
                    <circle id="Oval-2" fill="#FFFFFF" cx="20" cy="21.3333333" r="17.3333333"></circle>
                    <g id="Path">
                        <use fill="#FC605F" fill-rule="evenodd" xlink:href="#path-4"></use>
                        <path stroke="#FFFFFF" stroke-width="4" d="M20,-2 C32.1445695,-2 42,7.8554305 42,20 C42,32.1445695 32.1445695,42 20,42 C7.8554305,42 -2,32.1445695 -2,20 C-2,7.8554305 7.8554305,-2 20,-2 Z"></path>
                    </g>
                    <path d="M14,19.5 C12.62,19.5 11.5,20.62 11.5,22 C11.5,23.38 12.62,24.5 14,24.5 C15.38,24.5 16.5,23.38 16.5,22 C16.5,20.62 15.38,19.5 14,19.5 L14,19.5 Z M26,19.5 C24.62,19.5 23.5,20.62 23.5,22 C23.5,23.38 24.62,24.5 26,24.5 C27.38,24.5 28.5,23.38 28.5,22 C28.5,20.62 27.38,19.5 26,19.5 L26,19.5 Z M20,36 C11.18,36 4,28.82 4,20 C4,19.42 4.04,18.84 4.1,18.28 C8.82,16.18 12.56,12.32 14.52,7.54 C18.14,12.66 24.1,16 30.84,16 C32.4,16 33.9,15.82 35.34,15.48 C35.76,16.9 36,18.42 36,20 C36,28.82 28.82,36 20,36 L20,36 Z" id="Icon" fill="#FFFFFF"></path>
                    <path d="M14.5,28.3720414 C14.5,28.3720414 15.9006757,31.1021439 20.0990195,30.9970414 C24.2973633,30.8919389 25.698039,28.3720414 25.698039,28.3720414" id="Line" stroke="#FC605F" stroke-width="2.66666667" stroke-linecap="round" stroke-linejoin="round" transform="translate(20.099020, 29.686021) scale(1, -1) translate(-20.099020, -29.686021) "></path>
                </g>
            </g>
            <g id="ic_face-copy-4" transform="translate(1332.000000, 251.000000)">
                <g id="Group">
                    <circle id="Oval-2" fill="#FFFFFF" cx="20" cy="21.3333333" r="17.3333333"></circle>
                    <g id="Path">
                        <use fill="#FC605F" fill-rule="evenodd" xlink:href="#path-5"></use>
                        <path stroke="#FFFFFF" stroke-width="4" d="M20,-2 C32.1445695,-2 42,7.8554305 42,20 C42,32.1445695 32.1445695,42 20,42 C7.8554305,42 -2,32.1445695 -2,20 C-2,7.8554305 7.8554305,-2 20,-2 Z"></path>
                    </g>
                    <path d="M14,19.5 C12.62,19.5 11.5,20.62 11.5,22 C11.5,23.38 12.62,24.5 14,24.5 C15.38,24.5 16.5,23.38 16.5,22 C16.5,20.62 15.38,19.5 14,19.5 L14,19.5 Z M26,19.5 C24.62,19.5 23.5,20.62 23.5,22 C23.5,23.38 24.62,24.5 26,24.5 C27.38,24.5 28.5,23.38 28.5,22 C28.5,20.62 27.38,19.5 26,19.5 L26,19.5 Z M20,36 C11.18,36 4,28.82 4,20 C4,19.42 4.04,18.84 4.1,18.28 C8.82,16.18 12.56,12.32 14.52,7.54 C18.14,12.66 24.1,16 30.84,16 C32.4,16 33.9,15.82 35.34,15.48 C35.76,16.9 36,18.42 36,20 C36,28.82 28.82,36 20,36 L20,36 Z" id="Icon" fill="#FFFFFF"></path>
                    <path d="M14.5,28.3720414 C14.5,28.3720414 15.9006757,31.1021439 20.0990195,30.9970414 C24.2973633,30.8919389 25.698039,28.3720414 25.698039,28.3720414" id="Line" stroke="#FC605F" stroke-width="2.66666667" stroke-linecap="round" stroke-linejoin="round" transform="translate(20.099020, 29.686021) scale(1, -1) translate(-20.099020, -29.686021) "></path>
                </g>
            </g>
            <g id="ic_face-copy-2" transform="translate(707.000000, 251.000000)">
                <g id="Group">
                    <circle id="Oval-3" fill="#FFFFFF" cx="20" cy="20" r="17.3333333"></circle>
                    <g id="Path">
                        <use fill="#F5A623" fill-rule="evenodd" xlink:href="#path-6"></use>
                        <path stroke="#FFFFFF" stroke-width="4" d="M20,-2 C32.1445695,-2 42,7.8554305 42,20 C42,32.1445695 32.1445695,42 20,42 C7.8554305,42 -2,32.1445695 -2,20 C-2,7.8554305 7.8554305,-2 20,-2 Z"></path>
                    </g>
                    <path d="M14,19.5 C12.62,19.5 11.5,20.62 11.5,22 C11.5,23.38 12.62,24.5 14,24.5 C15.38,24.5 16.5,23.38 16.5,22 C16.5,20.62 15.38,19.5 14,19.5 L14,19.5 Z M26,19.5 C24.62,19.5 23.5,20.62 23.5,22 C23.5,23.38 24.62,24.5 26,24.5 C27.38,24.5 28.5,23.38 28.5,22 C28.5,20.62 27.38,19.5 26,19.5 L26,19.5 Z M20,36 C11.18,36 4,28.82 4,20 C4,19.42 4.04,18.84 4.1,18.28 C8.82,16.18 12.56,12.32 14.52,7.54 C18.14,12.66 24.1,16 30.84,16 C32.4,16 33.9,15.82 35.34,15.48 C35.76,16.9 36,18.42 36,20 C36,28.82 28.82,36 20,36 L20,36 Z" id="Icon" fill="#FFFFFF"></path>
                    <path d="M16.5,29.3333333 L23.698039,29.3333333" id="Line" stroke="#F5A623" stroke-width="2.66666667" stroke-linecap="round" stroke-linejoin="round"></path>
                </g>
            </g>
        </g>
    </g>
</svg>