<?xml version="1.0" encoding="UTF-8"?>
<svg width="1351px" height="246px" viewBox="0 0 1351 246" version="1.1" xmlns="http://www.w3.org/2000/svg" xmlns:xlink="http://www.w3.org/1999/xlink">
    <!-- Generator: Sketch 48.2 (47327) - http://www.bohemiancoding.com/sketch -->
    <title>Group-10</title>
    <desc>Created with Sketch.</desc>
    <defs></defs>
    <g id="Page-1" stroke="none" stroke-width="1" fill="none" fill-rule="evenodd">
        <g id="Group-10">
            <g id="Group-7" transform="translate(741.000000, 0.000000)">
                <g id="Group-6">
                    <circle id="Oval-4-Copy-2" fill="#F5A623" fill-rule="nonzero" cx="120" cy="120" r="120"></circle>
                    <text id="Click-the-link" fill="#FFFFFF" font-family="AvenirNext-Medium, Avenir Next" font-size="24" font-weight="400">
                        <tspan x="48.936" y="111">Click the link</tspan>
                    </text>
                    <text id="in-message" fill="#FFFFFF" font-family="AvenirNext-Medium, Avenir Next" font-size="24" font-weight="400">
                        <tspan x="57.504" y="144">in message</tspan>
                    </text>
                </g>
                <g id="Group-Copy-2" stroke-linecap="round" stroke-linejoin="round" transform="translate(17.000000, 34.000000)" stroke="#FECC81">
                    <path d="M340,175 C340,113.144108 289.739241,63 227.739453,63 C187.337203,63 151.919927,84.2936739 132.147492,116.245895 C122.527109,131.792419 101.373761,160.946485 55.4632365,147.317552 C50.9333397,145.972814 14.0246398,128.90183 9,126.669908" id="Oval-4-Copy-4" stroke-width="14" transform="translate(174.500000, 119.000000) rotate(156.000000) translate(-174.500000, -119.000000) "></path>
                    <polygon id="Triangle" stroke-width="10" fill="#FECC81" fill-rule="nonzero" points="341 43 318 60 318 26"></polygon>
                </g>
            </g>
            <g id="Group-8" transform="translate(1111.000000, 6.000000)">
                <g id="Oval-4-Copy-3">
                    <g id="path-2-link" fill="#E75B52">
                        <circle id="path-2" cx="120" cy="120" r="120"></circle>
                    </g>
                    <circle id="Oval" stroke="#FF9D97" stroke-width="16" cx="120" cy="120" r="112"></circle>
                </g>
                <g id="Show-QR-Code-to-Rede" transform="translate(35.000000, 87.000000)" fill="#FFFFFF" font-family="AvenirNext-Medium, Avenir Next" font-size="24" font-weight="400">
                    <text id="Show-QR-Code">
                        <tspan x="0" y="24">Show QR-Code</tspan>
                    </text>
                    <text id="to-Redeem">
                        <tspan x="24.744" y="57">to Redeem</tspan>
                    </text>
                </g>
            </g>
            <g id="Group-3">
                <g id="Group-2">
                    <circle id="Oval-4" fill="#39AA91" fill-rule="nonzero" cx="120" cy="120" r="120"></circle>
                    <text id="Open-SMS" fill="#FFFFFF" font-family="AvenirNext-Medium, Avenir Next" font-size="24" font-weight="400">
                        <tspan x="51.528" y="102">Open SMS</tspan>
                    </text>
                    <text id="App" fill="#FFFFFF" font-family="AvenirNext-Medium, Avenir Next" font-size="24" font-weight="400">
                        <tspan x="87.336" y="135">App</tspan>
                    </text>
                </g>
                <g id="Group" stroke-linecap="round" stroke-linejoin="round" transform="translate(17.000000, 34.000000)" stroke="#6EDDC4">
                    <path d="M340,175 C340,113.144108 289.739241,63 227.739453,63 C187.337203,63 151.919927,84.2936739 132.147492,116.245895 C122.527109,131.792419 101.373761,160.946485 55.4632365,147.317552 C50.9333397,145.972814 14.0246398,128.90183 9,126.669908" id="Oval-4-Copy-4" stroke-width="14" transform="translate(174.500000, 119.000000) rotate(156.000000) translate(-174.500000, -119.000000) "></path>
                    <polygon id="Triangle" stroke-width="10" fill="#50E3C2" fill-rule="nonzero" points="341 45 318 62 318 28"></polygon>
                </g>
            </g>
            <g id="Group-5" transform="translate(370.000000, 0.000000)">
                <g id="Group-4">
                    <circle id="Oval-4-Copy" fill="#564BA3" fill-rule="nonzero" cx="120" cy="120" r="120"></circle>
                    <text id="Found-&amp;-open" fill="#FFFFFF" font-family="AvenirNext-Medium, Avenir Next" font-size="24" font-weight="400">
                        <tspan x="41.124" y="111">Found &amp; open</tspan>
                    </text>
                    <text id="SMS" fill="#FFFFFF" font-family="AvenirNext-Medium, Avenir Next" font-size="24" font-weight="400">
                        <tspan x="95.184" y="144">SMS</tspan>
                    </text>
                </g>
                <g id="Group-Copy" stroke-linecap="round" stroke-linejoin="round" transform="translate(18.000000, 34.000000)" stroke="#9889FF">
                    <path d="M340,175 C340,160.007652 337.047389,145.703323 331.690661,132.634233 C314.946435,91.7824673 274.712016,63 227.739453,63 C187.337203,63 151.919927,84.2936739 132.147492,116.245895 C122.527109,131.792419 101.373761,160.946485 55.4632365,147.317552 C50.9333397,145.972814 14.0246398,128.90183 9,126.669908" id="Oval-4-Copy-4" stroke-width="14" transform="translate(174.500000, 119.000000) rotate(156.000000) translate(-174.500000, -119.000000) "></path>
                    <polygon id="Triangle" stroke-width="10" fill="#9889FF" fill-rule="nonzero" points="341 45 318 62 318 28"></polygon>
                </g>
            </g>
        </g>
    </g>
</svg>