<?xml version="1.0" encoding="utf-8"?>
<!-- Generator: Adobe Illustrator 20.0.0, SVG Export Plug-In . SVG Version: 6.00 Build 0)  -->
<svg version="1.1" id="Layer_1" xmlns="http://www.w3.org/2000/svg" xmlns:xlink="http://www.w3.org/1999/xlink" x="0px" y="0px"
	 viewBox="0 0 290 454" style="enable-background:new 0 0 290 454;" xml:space="preserve">
<style type="text/css">
	.st0{fill:none;}
	.st1{fill:#3D3D3D;}
	.st2{fill:#BABABA;}
	.st3{fill:#564BA3;}
	.st4{fill:#564EA1;}
	.st5{fill:none;stroke:#3D3D3D;stroke-width:1.2;stroke-linecap:square;}
	.st6{fill:#FFB73F;}
	.st7{fill:#FFFFFF;}
	.st8{fill:none;stroke:#474747;stroke-width:1.5;stroke-linecap:round;}
	.st9{fill:#FF9151;stroke:#474747;}
	.st10{fill:none;stroke:#474747;stroke-linecap:round;}
	.st11{fill:#5E5E5E;}
</style>
<title>Group 9 Copy</title>
<desc>Created with Sketch.</desc>
<g id="Page-1">
	<g id="Group-9-Copy" transform="translate(0.000000, -3.000000)">
		<g id="Group-3-Copy-4" transform="translate(126.000000, 217.000000)">
			<polygon id="Shape" class="st0" points="0,0 36,0 36,36 0,36 			"/>
			<g id="ic_face_unlock-copy" transform="translate(3.000000, 3.000000)">
				<polygon id="Bounds" class="st0" points="0,0 30,0 30,30 0,30 				"/>
				<path id="Shape_1_" class="st1" d="M15,0C6.7,0,0,6.7,0,15s6.7,15,15,15s15-6.7,15-15S23.3,0,15,0L15,0z M25,18.5
					c-1.4,4.7-5.3,8.1-10.1,8.1c-4.7,0-8.7-3.4-10-8.1c-1.5-0.1-2.7-1.5-2.7-3.2c0-1.6,1.1-2.9,2.5-3.1c2.6-1.8,4.7-4.4,5.1-6.3v0
					c1.7,3.3,7.9,6.5,14.8,6.3l0.4,0c1.6,0,2.9,1.4,2.9,3.2C27.8,17.1,26.5,18.5,25,18.5L25,18.5z M10.6,16.9c0.7,0,1.2-0.6,1.2-1.2
					c0-0.7-0.6-1.2-1.2-1.2s-1.2,0.6-1.2,1.2C9.4,16.3,9.9,16.9,10.6,16.9z M19.4,16.9c0.7,0,1.2-0.6,1.2-1.2c0-0.7-0.6-1.2-1.2-1.2
					s-1.2,0.6-1.2,1.2C18.1,16.3,18.7,16.9,19.4,16.9z M18.4,21.4c-0.9,0.7-2.1,1.1-3.4,1.1s-2.4-0.4-3.4-1.1
					c-0.3-0.2-0.7-0.2-0.9,0.1c-0.2,0.3-0.2,0.7,0.1,0.9c1.1,0.9,2.6,1.4,4.1,1.4s3-0.5,4.1-1.4c0.3-0.2,0.3-0.6,0.1-0.9
					C19,21.2,18.6,21.2,18.4,21.4L18.4,21.4z"/>
			</g>
		</g>
		<g id="ic_face_black_24px-copy-7" transform="translate(94.000000, 270.000000)">
			<polygon id="Shape_2_" class="st0" points="0,0 36,0 36,36 0,36 			"/>
			<path id="Shape_3_" class="st1" d="M21.6,24.8c-1,0.8-2.3,1.2-3.6,1.2s-2.6-0.4-3.6-1.2c-0.3-0.2-0.7-0.2-0.9,0.1
				c-0.2,0.3-0.2,0.7,0.1,0.9c1.2,1,2.8,1.5,4.4,1.5s3.2-0.5,4.4-1.5c0.3-0.2,0.3-0.6,0.1-0.9C22.3,24.6,21.9,24.6,21.6,24.8
				L21.6,24.8z M13.5,17.6c-1,0-1.9,0.8-1.9,1.9s0.8,1.9,1.9,1.9s1.9-0.8,1.9-1.9S14.5,17.6,13.5,17.6L13.5,17.6z M22.5,17.6
				c-1,0-1.9,0.8-1.9,1.9s0.8,1.9,1.9,1.9s1.9-0.8,1.9-1.9S23.5,17.6,22.5,17.6L22.5,17.6z M18,3C9.7,3,3,9.7,3,18s6.7,15,15,15
				s15-6.7,15-15S26.3,3,18,3L18,3z M18,30c-6.6,0-12-5.4-12-12c0-0.4,0-0.9,0.1-1.3c3.5-1.6,6.3-4.5,7.8-8.1
				c2.7,3.8,7.2,6.3,12.2,6.3c1.2,0,2.3-0.1,3.4-0.4c0.3,1.1,0.5,2.2,0.5,3.4C30,24.6,24.6,30,18,30L18,30z"/>
		</g>
		<g id="ic_face_black_24px-copy-9" transform="translate(190.000000, 217.000000)">
			<polygon id="Shape_4_" class="st0" points="0,0 36,0 36,36 0,36 			"/>
			<path id="Shape_5_" class="st1" d="M21.6,24.8c-1,0.8-2.3,1.2-3.6,1.2s-2.6-0.4-3.6-1.2c-0.3-0.2-0.7-0.2-0.9,0.1
				c-0.2,0.3-0.2,0.7,0.1,0.9c1.2,1,2.8,1.5,4.4,1.5s3.2-0.5,4.4-1.5c0.3-0.2,0.3-0.6,0.1-0.9C22.3,24.6,21.9,24.6,21.6,24.8
				L21.6,24.8z M13.5,17.6c-1,0-1.9,0.8-1.9,1.9s0.8,1.9,1.9,1.9s1.9-0.8,1.9-1.9S14.5,17.6,13.5,17.6L13.5,17.6z M22.5,17.6
				c-1,0-1.9,0.8-1.9,1.9s0.8,1.9,1.9,1.9s1.9-0.8,1.9-1.9S23.5,17.6,22.5,17.6L22.5,17.6z M18,3C9.7,3,3,9.7,3,18s6.7,15,15,15
				s15-6.7,15-15S26.3,3,18,3L18,3z M18,30c-6.6,0-12-5.4-12-12c0-0.4,0-0.9,0.1-1.3c3.5-1.6,6.3-4.5,7.8-8.1
				c2.7,3.8,7.2,6.3,12.2,6.3c1.2,0,2.3-0.1,3.4-0.4c0.3,1.1,0.5,2.2,0.5,3.4C30,24.6,24.6,30,18,30L18,30z"/>
		</g>
		<g id="ic_face_black_24px-copy-11" transform="translate(253.000000, 217.000000)">
			<polygon id="Shape_6_" class="st0" points="0,0 36,0 36,36 0,36 			"/>
			<path id="Shape_7_" class="st1" d="M21.6,24.8c-1,0.8-2.3,1.2-3.6,1.2s-2.6-0.4-3.6-1.2c-0.3-0.2-0.7-0.2-0.9,0.1
				c-0.2,0.3-0.2,0.7,0.1,0.9c1.2,1,2.8,1.5,4.4,1.5s3.2-0.5,4.4-1.5c0.3-0.2,0.3-0.6,0.1-0.9C22.3,24.6,21.9,24.6,21.6,24.8
				L21.6,24.8z M13.5,17.6c-1,0-1.9,0.8-1.9,1.9s0.8,1.9,1.9,1.9s1.9-0.8,1.9-1.9S14.5,17.6,13.5,17.6L13.5,17.6z M22.5,17.6
				c-1,0-1.9,0.8-1.9,1.9s0.8,1.9,1.9,1.9s1.9-0.8,1.9-1.9S23.5,17.6,22.5,17.6L22.5,17.6z M18,3C9.7,3,3,9.7,3,18s6.7,15,15,15
				s15-6.7,15-15S26.3,3,18,3L18,3z M18,30c-6.6,0-12-5.4-12-12c0-0.4,0-0.9,0.1-1.3c3.5-1.6,6.3-4.5,7.8-8.1
				c2.7,3.8,7.2,6.3,12.2,6.3c1.2,0,2.3-0.1,3.4-0.4c0.3,1.1,0.5,2.2,0.5,3.4C30,24.6,24.6,30,18,30L18,30z"/>
		</g>
		<g id="ic_face_black_24px-copy-10" transform="translate(32.000000, 255.000000)">
			<polygon id="Shape_8_" class="st0" points="0,0 36,0 36,36 0,36 			"/>
			<path id="Shape_9_" class="st1" d="M21.6,24.8c-1,0.8-2.3,1.2-3.6,1.2s-2.6-0.4-3.6-1.2c-0.3-0.2-0.7-0.2-0.9,0.1
				c-0.2,0.3-0.2,0.7,0.1,0.9c1.2,1,2.8,1.5,4.4,1.5s3.2-0.5,4.4-1.5c0.3-0.2,0.3-0.6,0.1-0.9C22.3,24.6,21.9,24.6,21.6,24.8
				L21.6,24.8z M13.5,17.6c-1,0-1.9,0.8-1.9,1.9s0.8,1.9,1.9,1.9s1.9-0.8,1.9-1.9S14.5,17.6,13.5,17.6L13.5,17.6z M22.5,17.6
				c-1,0-1.9,0.8-1.9,1.9s0.8,1.9,1.9,1.9s1.9-0.8,1.9-1.9S23.5,17.6,22.5,17.6L22.5,17.6z M18,3C9.7,3,3,9.7,3,18s6.7,15,15,15
				s15-6.7,15-15S26.3,3,18,3L18,3z M18,30c-6.6,0-12-5.4-12-12c0-0.4,0-0.9,0.1-1.3c3.5-1.6,6.3-4.5,7.8-8.1
				c2.7,3.8,7.2,6.3,12.2,6.3c1.2,0,2.3-0.1,3.4-0.4c0.3,1.1,0.5,2.2,0.5,3.4C30,24.6,24.6,30,18,30L18,30z"/>
		</g>
		<g id="Group-3" transform="translate(62.044177, 118.800000)">
			<polygon id="Shape_10_" class="st0" points="0,0 42,0 42,42 0,42 			"/>
			<g id="ic_face_unlock-copy_1_" transform="translate(3.500000, 3.500000)">
				<polygon id="Bounds_1_" class="st0" points="0,0 35,0 35,35 0,35 				"/>
				<path id="Shape_11_" class="st2" d="M17.5,0C7.8,0,0,7.8,0,17.5S7.8,35,17.5,35S35,27.2,35,17.5S27.2,0,17.5,0L17.5,0z
					 M29.1,21.6c-1.6,5.5-6.2,9.4-11.7,9.4c-5.5,0-10.1-4-11.7-9.4c-1.7-0.2-3.1-1.7-3.1-3.7c0-1.9,1.2-3.4,2.9-3.6
					c3-2.1,5.5-5.1,6-7.4v0c2,3.8,9.2,7.6,17.3,7.4l0.4,0c1.9,0,3.4,1.7,3.4,3.7C32.4,20,31,21.6,29.1,21.6L29.1,21.6z M22.6,19.7
					c0.8,0,1.5-0.7,1.5-1.5c0-0.8-0.7-1.5-1.5-1.5c-0.8,0-1.5,0.7-1.5,1.5C21.1,19,21.8,19.7,22.6,19.7z M12.4,19.7
					c0.8,0,1.5-0.7,1.5-1.5c0-0.8-0.7-1.5-1.5-1.5s-1.5,0.7-1.5,1.5C10.9,19,11.6,19.7,12.4,19.7z M21.4,24.9
					c-1.1,0.8-2.5,1.3-3.9,1.3s-2.8-0.5-3.9-1.3c-0.3-0.2-0.8-0.2-1,0.1c-0.2,0.3-0.2,0.8,0.1,1c1.3,1.1,3,1.6,4.8,1.6
					s3.5-0.6,4.8-1.6c0.3-0.2,0.4-0.7,0.1-1C22.2,24.7,21.7,24.7,21.4,24.9L21.4,24.9z"/>
			</g>
		</g>
		<path id="Looper" class="st2" d="M0.1,171h1.4v8.8h5.1v1.2H0.1V171z M12.3,179.3c0.3-0.6,0.5-1.3,0.5-2.1c0-0.7-0.1-1.2-0.3-1.7
			c-0.3-0.7-0.9-1-1.8-1c-0.8,0-1.3,0.3-1.6,0.9s-0.5,1.3-0.5,2.1c0,0.8,0.2,1.4,0.5,1.9s0.9,0.8,1.6,0.8
			C11.4,180.2,12,179.9,12.3,179.3L12.3,179.3z M13,174.4c0.7,0.6,1,1.6,1,2.8c0,1.2-0.3,2.2-0.9,2.9s-1.5,1.2-2.7,1.2
			c-1,0-1.8-0.3-2.4-1s-0.9-1.6-0.9-2.7c0-1.2,0.3-2.2,0.9-2.9s1.5-1.1,2.5-1.1C11.6,173.5,12.4,173.8,13,174.4L13,174.4z
			 M20.1,179.3c0.3-0.6,0.5-1.3,0.5-2.1c0-0.7-0.1-1.2-0.3-1.7c-0.3-0.7-0.9-1-1.8-1c-0.8,0-1.3,0.3-1.6,0.9s-0.5,1.3-0.5,2.1
			c0,0.8,0.2,1.4,0.5,1.9s0.9,0.8,1.6,0.8C19.2,180.2,19.8,179.9,20.1,179.3L20.1,179.3z M20.8,174.4c0.7,0.6,1,1.6,1,2.8
			c0,1.2-0.3,2.2-0.9,2.9s-1.5,1.2-2.7,1.2c-1,0-1.8-0.3-2.4-1s-0.9-1.6-0.9-2.7c0-1.2,0.3-2.2,0.9-2.9c0.6-0.7,1.5-1.1,2.5-1.1
			C19.4,173.5,20.2,173.8,20.8,174.4L20.8,174.4z M27.8,179.5c0.4-0.5,0.6-1.2,0.6-2.2c0-0.6-0.1-1.1-0.3-1.5
			c-0.3-0.8-0.9-1.2-1.8-1.2c-0.9,0-1.4,0.4-1.8,1.3c-0.2,0.5-0.3,1-0.3,1.7c0,0.6,0.1,1,0.3,1.4c0.3,0.8,0.9,1.1,1.8,1.1
			C26.9,180.2,27.4,179.9,27.8,179.5L27.8,179.5z M23.2,173.7h1.2v1c0.2-0.3,0.5-0.6,0.8-0.8c0.4-0.3,0.9-0.4,1.5-0.4
			c0.8,0,1.5,0.3,2.1,1s0.9,1.5,0.9,2.7c0,1.6-0.4,2.7-1.3,3.4c-0.5,0.4-1.1,0.6-1.8,0.6c-0.6,0-1-0.1-1.4-0.4
			c-0.2-0.1-0.5-0.4-0.7-0.7v3.7h-1.2V173.7z M35.6,173.9c0.5,0.2,0.9,0.6,1.1,0.9c0.2,0.4,0.4,0.8,0.5,1.3c0.1,0.3,0.1,0.9,0.1,1.6
			H32c0,0.7,0.2,1.3,0.5,1.8s0.8,0.7,1.5,0.7c0.6,0,1.2-0.2,1.5-0.6c0.2-0.2,0.4-0.5,0.5-0.9h1.2c0,0.3-0.1,0.6-0.3,0.9
			s-0.4,0.6-0.6,0.8c-0.4,0.4-0.8,0.6-1.4,0.7c-0.3,0.1-0.6,0.1-1,0.1c-0.9,0-1.7-0.3-2.3-1c-0.6-0.7-1-1.6-1-2.8
			c0-1.2,0.3-2.1,1-2.9s1.5-1.1,2.5-1.1C34.6,173.5,35.1,173.6,35.6,173.9L35.6,173.9z M36.1,176.8c-0.1-0.5-0.2-1-0.3-1.3
			c-0.3-0.6-0.9-0.9-1.7-0.9c-0.6,0-1,0.2-1.4,0.6c-0.4,0.4-0.6,0.9-0.6,1.6H36.1z M38.9,173.7H40v1.3c0.1-0.2,0.3-0.5,0.7-0.9
			s0.8-0.5,1.3-0.5c0,0,0.1,0,0.1,0s0.1,0,0.3,0v1.3c-0.1,0-0.1,0-0.2,0s-0.1,0-0.2,0c-0.6,0-1.1,0.2-1.4,0.6s-0.5,0.9-0.5,1.4v4.2
			h-1.2V173.7z"/>
		<path id="Looper-Copy" class="st2" d="M59.5,171.4h1.4v8.8H66v1.2h-6.4V171.4z M71.7,179.7c0.3-0.6,0.5-1.3,0.5-2.1
			c0-0.7-0.1-1.2-0.3-1.7c-0.3-0.7-0.9-1-1.8-1c-0.8,0-1.3,0.3-1.6,0.9c-0.3,0.6-0.5,1.3-0.5,2.1c0,0.8,0.2,1.4,0.5,1.9
			c0.3,0.5,0.9,0.8,1.6,0.8C70.9,180.6,71.4,180.3,71.7,179.7L71.7,179.7z M72.5,174.8c0.7,0.6,1,1.6,1,2.8c0,1.2-0.3,2.2-0.9,2.9
			c-0.6,0.8-1.5,1.2-2.7,1.2c-1,0-1.8-0.3-2.4-1c-0.6-0.7-0.9-1.6-0.9-2.7c0-1.2,0.3-2.2,0.9-2.9c0.6-0.7,1.5-1.1,2.5-1.1
			C71,173.9,71.8,174.2,72.5,174.8L72.5,174.8z M79.5,179.7c0.3-0.6,0.5-1.3,0.5-2.1c0-0.7-0.1-1.2-0.3-1.7c-0.3-0.7-0.9-1-1.8-1
			c-0.8,0-1.3,0.3-1.6,0.9c-0.3,0.6-0.5,1.3-0.5,2.1c0,0.8,0.2,1.4,0.5,1.9c0.3,0.5,0.9,0.8,1.6,0.8
			C78.6,180.6,79.2,180.3,79.5,179.7L79.5,179.7z M80.3,174.8c0.7,0.6,1,1.6,1,2.8c0,1.2-0.3,2.2-0.9,2.9c-0.6,0.8-1.5,1.2-2.7,1.2
			c-1,0-1.8-0.3-2.4-1c-0.6-0.7-0.9-1.6-0.9-2.7c0-1.2,0.3-2.2,0.9-2.9c0.6-0.7,1.5-1.1,2.5-1.1C78.8,173.9,79.6,174.2,80.3,174.8
			L80.3,174.8z M87.2,179.9c0.4-0.5,0.6-1.2,0.6-2.2c0-0.6-0.1-1.1-0.3-1.5c-0.3-0.8-0.9-1.2-1.8-1.2c-0.9,0-1.4,0.4-1.8,1.3
			c-0.2,0.5-0.3,1-0.3,1.7c0,0.6,0.1,1,0.3,1.4c0.3,0.8,0.9,1.1,1.8,1.1C86.4,180.6,86.8,180.3,87.2,179.9L87.2,179.9z M82.6,174.1
			h1.2v1c0.2-0.3,0.5-0.6,0.8-0.8c0.4-0.3,0.9-0.4,1.5-0.4c0.8,0,1.5,0.3,2.1,1c0.6,0.6,0.9,1.5,0.9,2.7c0,1.6-0.4,2.7-1.3,3.4
			c-0.5,0.4-1.1,0.6-1.8,0.6c-0.6,0-1-0.1-1.4-0.4c-0.2-0.1-0.5-0.4-0.7-0.7v3.7h-1.2V174.1z M95,174.3c0.5,0.2,0.9,0.6,1.1,0.9
			c0.2,0.4,0.4,0.8,0.5,1.3c0.1,0.3,0.1,0.9,0.1,1.6h-5.4c0,0.7,0.2,1.3,0.5,1.8c0.3,0.4,0.8,0.7,1.5,0.7c0.6,0,1.2-0.2,1.5-0.6
			c0.2-0.2,0.4-0.5,0.5-0.9h1.2c0,0.3-0.1,0.6-0.3,0.9c-0.2,0.3-0.4,0.6-0.6,0.8c-0.4,0.4-0.8,0.6-1.4,0.7c-0.3,0.1-0.6,0.1-1,0.1
			c-0.9,0-1.7-0.3-2.3-1c-0.6-0.7-1-1.6-1-2.8c0-1.2,0.3-2.1,1-2.9c0.6-0.7,1.5-1.1,2.5-1.1C94.1,173.9,94.6,174,95,174.3L95,174.3z
			 M95.5,177.2c-0.1-0.5-0.2-1-0.3-1.3c-0.3-0.6-0.9-0.9-1.7-0.9c-0.6,0-1,0.2-1.4,0.6c-0.4,0.4-0.6,0.9-0.6,1.6H95.5z M98.3,174.1
			h1.2v1.3c0.1-0.2,0.3-0.5,0.7-0.9c0.4-0.4,0.8-0.5,1.3-0.5c0,0,0.1,0,0.1,0c0.1,0,0.1,0,0.3,0v1.3c-0.1,0-0.1,0-0.2,0
			c-0.1,0-0.1,0-0.2,0c-0.6,0-1.1,0.2-1.4,0.6c-0.3,0.4-0.5,0.9-0.5,1.4v4.2h-1.2V174.1z"/>
		<path id="Looper-Copy-2" d="M121.9,171.4h1.4v8.8h5.1v1.2h-6.4V171.4z M134.2,179.7c0.3-0.6,0.5-1.3,0.5-2.1
			c0-0.7-0.1-1.2-0.3-1.7c-0.3-0.7-0.9-1-1.8-1c-0.8,0-1.3,0.3-1.6,0.9c-0.3,0.6-0.5,1.3-0.5,2.1c0,0.8,0.2,1.4,0.5,1.9
			c0.3,0.5,0.9,0.8,1.6,0.8C133.3,180.6,133.9,180.3,134.2,179.7L134.2,179.7z M134.9,174.8c0.7,0.6,1,1.6,1,2.8
			c0,1.2-0.3,2.2-0.9,2.9s-1.5,1.2-2.7,1.2c-1,0-1.8-0.3-2.4-1s-0.9-1.6-0.9-2.7c0-1.2,0.3-2.2,0.9-2.9c0.6-0.7,1.5-1.1,2.5-1.1
			C133.5,173.9,134.3,174.2,134.9,174.8L134.9,174.8z M141.9,179.7c0.3-0.6,0.5-1.3,0.5-2.1c0-0.7-0.1-1.2-0.3-1.7
			c-0.3-0.7-0.9-1-1.8-1c-0.8,0-1.3,0.3-1.6,0.9c-0.3,0.6-0.5,1.3-0.5,2.1c0,0.8,0.2,1.4,0.5,1.9c0.3,0.5,0.9,0.8,1.6,0.8
			C141.1,180.6,141.6,180.3,141.9,179.7L141.9,179.7z M142.7,174.8c0.7,0.6,1,1.6,1,2.8c0,1.2-0.3,2.2-0.9,2.9s-1.5,1.2-2.7,1.2
			c-1,0-1.8-0.3-2.4-1s-0.9-1.6-0.9-2.7c0-1.2,0.3-2.2,0.9-2.9c0.6-0.7,1.5-1.1,2.5-1.1C141.3,173.9,142.1,174.2,142.7,174.8
			L142.7,174.8z M149.7,179.9c0.4-0.5,0.6-1.2,0.6-2.2c0-0.6-0.1-1.1-0.3-1.5c-0.3-0.8-0.9-1.2-1.8-1.2c-0.9,0-1.4,0.4-1.8,1.3
			c-0.2,0.5-0.3,1-0.3,1.7c0,0.6,0.1,1,0.3,1.4c0.3,0.8,0.9,1.1,1.8,1.1C148.8,180.6,149.3,180.3,149.7,179.9L149.7,179.9z
			 M145,174.1h1.2v1c0.2-0.3,0.5-0.6,0.8-0.8c0.4-0.3,0.9-0.4,1.5-0.4c0.8,0,1.5,0.3,2.1,1c0.6,0.6,0.9,1.5,0.9,2.7
			c0,1.6-0.4,2.7-1.3,3.4c-0.5,0.4-1.1,0.6-1.8,0.6c-0.6,0-1-0.1-1.4-0.4c-0.2-0.1-0.5-0.4-0.7-0.7v3.7H145V174.1z M157.5,174.3
			c0.5,0.2,0.9,0.6,1.1,0.9c0.2,0.4,0.4,0.8,0.5,1.3c0.1,0.3,0.1,0.9,0.1,1.6h-5.4c0,0.7,0.2,1.3,0.5,1.8c0.3,0.4,0.8,0.7,1.5,0.7
			c0.6,0,1.2-0.2,1.5-0.6c0.2-0.2,0.4-0.5,0.5-0.9h1.2c0,0.3-0.1,0.6-0.3,0.9c-0.2,0.3-0.4,0.6-0.6,0.8c-0.4,0.4-0.8,0.6-1.4,0.7
			c-0.3,0.1-0.6,0.1-1,0.1c-0.9,0-1.7-0.3-2.3-1c-0.6-0.7-1-1.6-1-2.8c0-1.2,0.3-2.1,1-2.9c0.6-0.7,1.5-1.1,2.5-1.1
			C156.5,173.9,157,174,157.5,174.3L157.5,174.3z M157.9,177.2c-0.1-0.5-0.2-1-0.3-1.3c-0.3-0.6-0.9-0.9-1.7-0.9
			c-0.6,0-1,0.2-1.4,0.6c-0.4,0.4-0.6,0.9-0.6,1.6H157.9z M160.8,174.1h1.2v1.3c0.1-0.2,0.3-0.5,0.7-0.9c0.4-0.4,0.8-0.5,1.3-0.5
			c0,0,0.1,0,0.1,0c0.1,0,0.1,0,0.3,0v1.3c-0.1,0-0.1,0-0.2,0c-0.1,0-0.1,0-0.2,0c-0.6,0-1.1,0.2-1.4,0.6c-0.3,0.4-0.5,0.9-0.5,1.4
			v4.2h-1.2V174.1z"/>
		<path id="Looper-Copy-3" class="st2" d="M184.4,171.4h1.4v8.8h5.1v1.2h-6.4V171.4z M196.6,179.7c0.3-0.6,0.5-1.3,0.5-2.1
			c0-0.7-0.1-1.2-0.3-1.7c-0.3-0.7-0.9-1-1.8-1c-0.8,0-1.3,0.3-1.6,0.9c-0.3,0.6-0.5,1.3-0.5,2.1c0,0.8,0.2,1.4,0.5,1.9
			c0.3,0.5,0.9,0.8,1.6,0.8C195.7,180.6,196.3,180.3,196.6,179.7L196.6,179.7z M197.4,174.8c0.7,0.6,1,1.6,1,2.8
			c0,1.2-0.3,2.2-0.9,2.9s-1.5,1.2-2.7,1.2c-1,0-1.8-0.3-2.4-1s-0.9-1.6-0.9-2.7c0-1.2,0.3-2.2,0.9-2.9c0.6-0.7,1.5-1.1,2.5-1.1
			C195.9,173.9,196.7,174.2,197.4,174.8L197.4,174.8z M204.4,179.7c0.3-0.6,0.5-1.3,0.5-2.1c0-0.7-0.1-1.2-0.3-1.7
			c-0.3-0.7-0.9-1-1.8-1c-0.8,0-1.3,0.3-1.6,0.9c-0.3,0.6-0.5,1.3-0.5,2.1c0,0.8,0.2,1.4,0.5,1.9c0.3,0.5,0.9,0.8,1.6,0.8
			C203.5,180.6,204.1,180.3,204.4,179.7L204.4,179.7z M205.1,174.8c0.7,0.6,1,1.6,1,2.8c0,1.2-0.3,2.2-0.9,2.9s-1.5,1.2-2.7,1.2
			c-1,0-1.8-0.3-2.4-1s-0.9-1.6-0.9-2.7c0-1.2,0.3-2.2,0.9-2.9c0.6-0.7,1.5-1.1,2.5-1.1C203.7,173.9,204.5,174.2,205.1,174.8
			L205.1,174.8z M212.1,179.9c0.4-0.5,0.6-1.2,0.6-2.2c0-0.6-0.1-1.1-0.3-1.5c-0.3-0.8-0.9-1.2-1.8-1.2c-0.9,0-1.4,0.4-1.8,1.3
			c-0.2,0.5-0.3,1-0.3,1.7c0,0.6,0.1,1,0.3,1.4c0.3,0.8,0.9,1.1,1.8,1.1C211.3,180.6,211.7,180.3,212.1,179.9L212.1,179.9z
			 M207.5,174.1h1.2v1c0.2-0.3,0.5-0.6,0.8-0.8c0.4-0.3,0.9-0.4,1.5-0.4c0.8,0,1.5,0.3,2.1,1c0.6,0.6,0.9,1.5,0.9,2.7
			c0,1.6-0.4,2.7-1.3,3.4c-0.5,0.4-1.1,0.6-1.8,0.6c-0.6,0-1-0.1-1.4-0.4c-0.2-0.1-0.5-0.4-0.7-0.7v3.7h-1.2V174.1z M219.9,174.3
			c0.5,0.2,0.9,0.6,1.1,0.9c0.2,0.4,0.4,0.8,0.5,1.3c0.1,0.3,0.1,0.9,0.1,1.6h-5.4c0,0.7,0.2,1.3,0.5,1.8c0.3,0.4,0.8,0.7,1.5,0.7
			c0.6,0,1.2-0.2,1.5-0.6c0.2-0.2,0.4-0.5,0.5-0.9h1.2c0,0.3-0.1,0.6-0.3,0.9c-0.2,0.3-0.4,0.6-0.6,0.8c-0.4,0.4-0.8,0.6-1.4,0.7
			c-0.3,0.1-0.6,0.1-1,0.1c-0.9,0-1.7-0.3-2.3-1c-0.6-0.7-1-1.6-1-2.8c0-1.2,0.3-2.1,1-2.9c0.6-0.7,1.5-1.1,2.5-1.1
			C218.9,173.9,219.4,174,219.9,174.3L219.9,174.3z M220.4,177.2c-0.1-0.5-0.2-1-0.3-1.3c-0.3-0.6-0.9-0.9-1.7-0.9
			c-0.6,0-1,0.2-1.4,0.6c-0.4,0.4-0.6,0.9-0.6,1.6H220.4z M223.2,174.1h1.2v1.3c0.1-0.2,0.3-0.5,0.7-0.9c0.4-0.4,0.8-0.5,1.3-0.5
			c0,0,0.1,0,0.1,0c0.1,0,0.1,0,0.3,0v1.3c-0.1,0-0.1,0-0.2,0c-0.1,0-0.1,0-0.2,0c-0.6,0-1.1,0.2-1.4,0.6c-0.3,0.4-0.5,0.9-0.5,1.4
			v4.2h-1.2V174.1z"/>
		<path id="Looper-Copy-4" class="st2" d="M246.8,171.4h1.4v8.8h5.1v1.2h-6.4V171.4z M259,179.7c0.3-0.6,0.5-1.3,0.5-2.1
			c0-0.7-0.1-1.2-0.3-1.7c-0.3-0.7-0.9-1-1.8-1c-0.8,0-1.3,0.3-1.6,0.9c-0.3,0.6-0.5,1.3-0.5,2.1c0,0.8,0.2,1.4,0.5,1.9
			c0.3,0.5,0.9,0.8,1.6,0.8C258.2,180.6,258.7,180.3,259,179.7L259,179.7z M259.8,174.8c0.7,0.6,1,1.6,1,2.8c0,1.2-0.3,2.2-0.9,2.9
			s-1.5,1.2-2.7,1.2c-1,0-1.8-0.3-2.4-1c-0.6-0.7-0.9-1.6-0.9-2.7c0-1.2,0.3-2.2,0.9-2.9c0.6-0.7,1.5-1.1,2.5-1.1
			C258.4,173.9,259.1,174.2,259.8,174.8L259.8,174.8z M266.8,179.7c0.3-0.6,0.5-1.3,0.5-2.1c0-0.7-0.1-1.2-0.3-1.7
			c-0.3-0.7-0.9-1-1.8-1c-0.8,0-1.3,0.3-1.6,0.9c-0.3,0.6-0.5,1.3-0.5,2.1c0,0.8,0.2,1.4,0.5,1.9c0.3,0.5,0.9,0.8,1.6,0.8
			C266,180.6,266.5,180.3,266.8,179.7L266.8,179.7z M267.6,174.8c0.7,0.6,1,1.6,1,2.8c0,1.2-0.3,2.2-0.9,2.9s-1.5,1.2-2.7,1.2
			c-1,0-1.8-0.3-2.4-1c-0.6-0.7-0.9-1.6-0.9-2.7c0-1.2,0.3-2.2,0.9-2.9c0.6-0.7,1.5-1.1,2.5-1.1
			C266.1,173.9,266.9,174.2,267.6,174.8L267.6,174.8z M274.5,179.9c0.4-0.5,0.6-1.2,0.6-2.2c0-0.6-0.1-1.1-0.3-1.5
			c-0.3-0.8-0.9-1.2-1.8-1.2c-0.9,0-1.4,0.4-1.8,1.3c-0.2,0.5-0.3,1-0.3,1.7c0,0.6,0.1,1,0.3,1.4c0.3,0.8,0.9,1.1,1.8,1.1
			C273.7,180.6,274.2,180.3,274.5,179.9L274.5,179.9z M269.9,174.1h1.2v1c0.2-0.3,0.5-0.6,0.8-0.8c0.4-0.3,0.9-0.4,1.5-0.4
			c0.8,0,1.5,0.3,2.1,1c0.6,0.6,0.9,1.5,0.9,2.7c0,1.6-0.4,2.7-1.3,3.4c-0.5,0.4-1.1,0.6-1.8,0.6c-0.6,0-1-0.1-1.4-0.4
			c-0.2-0.1-0.5-0.4-0.7-0.7v3.7h-1.2V174.1z M282.4,174.3c0.5,0.2,0.9,0.6,1.1,0.9c0.2,0.4,0.4,0.8,0.5,1.3
			c0.1,0.3,0.1,0.9,0.1,1.6h-5.4c0,0.7,0.2,1.3,0.5,1.8c0.3,0.4,0.8,0.7,1.5,0.7c0.6,0,1.2-0.2,1.5-0.6c0.2-0.2,0.4-0.5,0.5-0.9h1.2
			c0,0.3-0.1,0.6-0.3,0.9c-0.2,0.3-0.4,0.6-0.6,0.8c-0.4,0.4-0.8,0.6-1.4,0.7c-0.3,0.1-0.6,0.1-1,0.1c-0.9,0-1.7-0.3-2.3-1
			c-0.6-0.7-1-1.6-1-2.8c0-1.2,0.3-2.1,1-2.9c0.6-0.7,1.5-1.1,2.5-1.1C281.4,173.9,281.9,174,282.4,174.3L282.4,174.3z M282.8,177.2
			c-0.1-0.5-0.2-1-0.3-1.3c-0.3-0.6-0.9-0.9-1.7-0.9c-0.6,0-1,0.2-1.4,0.6c-0.4,0.4-0.6,0.9-0.6,1.6H282.8z M285.6,174.1h1.2v1.3
			c0.1-0.2,0.3-0.5,0.7-0.9c0.4-0.4,0.8-0.5,1.3-0.5c0,0,0.1,0,0.1,0c0.1,0,0.1,0,0.3,0v1.3c-0.1,0-0.1,0-0.2,0c-0.1,0-0.1,0-0.2,0
			c-0.6,0-1.1,0.2-1.4,0.6c-0.3,0.4-0.5,0.9-0.5,1.4v4.2h-1.2V174.1z"/>
		<g id="ic_face_black_24px-copy" transform="translate(124.485944, 118.800000)">
			<polygon id="Shape_12_" class="st0" points="0,0 42,0 42,42 0,42 			"/>
			<path id="Shape_13_" class="st3" d="M25.2,28.9c-1.2,0.9-2.6,1.4-4.2,1.4s-3-0.5-4.2-1.4c-0.3-0.3-0.8-0.2-1.1,0.1
				s-0.2,0.8,0.1,1.1c1.4,1.1,3.3,1.7,5.1,1.7s3.7-0.6,5.1-1.7c0.3-0.3,0.4-0.7,0.1-1.1C26,28.7,25.5,28.7,25.2,28.9L25.2,28.9z
				 M15.8,20.6c-1.2,0-2.2,1-2.2,2.2s1,2.2,2.2,2.2s2.2-1,2.2-2.2S17,20.6,15.8,20.6L15.8,20.6z M26.2,20.6c-1.2,0-2.2,1-2.2,2.2
				s1,2.2,2.2,2.2s2.2-1,2.2-2.2S27.5,20.6,26.2,20.6L26.2,20.6z M21,3.5C11.3,3.5,3.5,11.3,3.5,21S11.3,38.5,21,38.5
				S38.5,30.7,38.5,21S30.7,3.5,21,3.5L21,3.5z M21,35c-7.7,0-14-6.3-14-14c0-0.5,0-1,0.1-1.5c4.1-1.8,7.4-5.2,9.1-9.4
				c3.2,4.5,8.4,7.4,14.3,7.4c1.4,0,2.7-0.2,3.9-0.5c0.4,1.2,0.6,2.6,0.6,4C35,28.7,28.7,35,21,35L21,35z"/>
		</g>
		<g id="ic_face_black_24px-copy-2" transform="translate(124.485944, 0.000000)">
			<polygon id="Shape_14_" class="st0" points="0,0 43.2,0 43.2,43.2 0,43.2 			"/>
			<path id="Shape_15_" class="st1" d="M25.9,29.8c-1.2,0.9-2.7,1.4-4.3,1.4s-3.1-0.5-4.3-1.4c-0.4-0.3-0.8-0.2-1.1,0.1
				c-0.3,0.4-0.2,0.8,0.1,1.1c1.5,1.2,3.3,1.8,5.3,1.8s3.8-0.6,5.3-1.8c0.4-0.3,0.4-0.8,0.1-1.1C26.8,29.6,26.3,29.5,25.9,29.8
				L25.9,29.8z M16.2,21.1c-1.2,0-2.3,1-2.3,2.2c0,1.2,1,2.2,2.3,2.2c1.2,0,2.3-1,2.3-2.2C18.5,22.2,17.5,21.1,16.2,21.1L16.2,21.1z
				 M27,21.1c-1.2,0-2.3,1-2.3,2.2c0,1.2,1,2.2,2.3,2.2c1.2,0,2.3-1,2.3-2.2C29.3,22.2,28.3,21.1,27,21.1L27,21.1z M21.6,3.6
				c-9.9,0-18,8.1-18,18s8.1,18,18,18s18-8.1,18-18S31.6,3.6,21.6,3.6L21.6,3.6z M21.6,36c-7.9,0-14.4-6.5-14.4-14.4
				c0-0.5,0-1,0.1-1.5c4.3-1.9,7.6-5.4,9.4-9.7C19.9,15,25.3,18,31.4,18c1.4,0,2.8-0.2,4.1-0.5c0.4,1.3,0.6,2.6,0.6,4.1
				C36,29.5,29.6,36,21.6,36L21.6,36z"/>
		</g>
		<g id="ic_face_black_24px-copy-3" transform="translate(186.927711, 118.800000)">
			<polygon id="Shape_16_" class="st0" points="0,0 42,0 42,42 0,42 			"/>
			<path id="Shape_17_" class="st2" d="M25.2,28.9c-1.2,0.9-2.6,1.4-4.2,1.4s-3-0.5-4.2-1.4c-0.3-0.3-0.8-0.2-1.1,0.1
				s-0.2,0.8,0.1,1.1c1.4,1.1,3.3,1.7,5.1,1.7s3.7-0.6,5.1-1.7c0.3-0.3,0.4-0.7,0.1-1.1C26,28.7,25.5,28.7,25.2,28.9L25.2,28.9z
				 M15.8,20.6c-1.2,0-2.2,1-2.2,2.2s1,2.2,2.2,2.2s2.2-1,2.2-2.2S17,20.6,15.8,20.6L15.8,20.6z M26.2,20.6c-1.2,0-2.2,1-2.2,2.2
				s1,2.2,2.2,2.2s2.2-1,2.2-2.2S27.5,20.6,26.2,20.6L26.2,20.6z M21,3.5C11.3,3.5,3.5,11.3,3.5,21S11.3,38.5,21,38.5
				S38.5,30.7,38.5,21S30.7,3.5,21,3.5L21,3.5z M21,35c-7.7,0-14-6.3-14-14c0-0.5,0-1,0.1-1.5c4.1-1.8,7.4-5.2,9.1-9.4
				c3.2,4.5,8.4,7.4,14.3,7.4c1.4,0,2.7-0.2,3.9-0.5c0.4,1.2,0.6,2.6,0.6,4C35,28.7,28.7,35,21,35L21,35z"/>
		</g>
		<g id="ic_face_black_24px-copy-4" transform="translate(249.369478, 118.800000)">
			<polygon id="Shape_18_" class="st0" points="0,0 42,0 42,42 0,42 			"/>
			<path id="Shape_19_" class="st2" d="M25.2,28.9c-1.2,0.9-2.6,1.4-4.2,1.4s-3-0.5-4.2-1.4c-0.3-0.3-0.8-0.2-1.1,0.1
				s-0.2,0.8,0.1,1.1c1.4,1.1,3.3,1.7,5.1,1.7s3.7-0.6,5.1-1.7c0.3-0.3,0.4-0.7,0.1-1.1C26,28.7,25.5,28.7,25.2,28.9L25.2,28.9z
				 M15.8,20.6c-1.2,0-2.2,1-2.2,2.2s1,2.2,2.2,2.2s2.2-1,2.2-2.2S17,20.6,15.8,20.6L15.8,20.6z M26.2,20.6c-1.2,0-2.2,1-2.2,2.2
				s1,2.2,2.2,2.2s2.2-1,2.2-2.2S27.5,20.6,26.2,20.6L26.2,20.6z M21,3.5C11.3,3.5,3.5,11.3,3.5,21S11.3,38.5,21,38.5
				S38.5,30.7,38.5,21S30.7,3.5,21,3.5L21,3.5z M21,35c-7.7,0-14-6.3-14-14c0-0.5,0-1,0.1-1.5c4.1-1.8,7.4-5.2,9.1-9.4
				c3.2,4.5,8.4,7.4,14.3,7.4c1.4,0,2.7-0.2,3.9-0.5c0.4,1.2,0.6,2.6,0.6,4C35,28.7,28.7,35,21,35L21,35z"/>
		</g>
		<g id="Group-3-Copy" transform="translate(0.000000, 119.000000)">
			<polygon id="Shape_20_" class="st0" points="0,0 42,0 42,42 0,42 			"/>
			<g id="ic_face_unlock-copy_2_" transform="translate(3.500000, 3.500000)">
				<polygon id="Bounds_2_" class="st0" points="0,0 35,0 35,35 0,35 				"/>
				<path id="Shape_21_" class="st2" d="M17.5,0C7.8,0,0,7.8,0,17.5S7.8,35,17.5,35S35,27.2,35,17.5S27.2,0,17.5,0L17.5,0z
					 M29.1,21.6c-1.6,5.5-6.2,9.4-11.7,9.4c-5.5,0-10.1-4-11.7-9.4c-1.7-0.2-3.1-1.7-3.1-3.7c0-1.9,1.2-3.4,2.9-3.6
					c3-2.1,5.5-5.1,6-7.4v0c2,3.8,9.2,7.6,17.3,7.4l0.4,0c1.9,0,3.4,1.7,3.4,3.7C32.4,20,31,21.6,29.1,21.6L29.1,21.6z M22.6,19.7
					c0.8,0,1.5-0.7,1.5-1.5c0-0.8-0.7-1.5-1.5-1.5c-0.8,0-1.5,0.7-1.5,1.5C21.1,19,21.8,19.7,22.6,19.7z M12.4,19.7
					c0.8,0,1.5-0.7,1.5-1.5c0-0.8-0.7-1.5-1.5-1.5s-1.5,0.7-1.5,1.5C10.9,19,11.6,19.7,12.4,19.7z M21.4,24.9
					c-1.1,0.8-2.5,1.3-3.9,1.3s-2.8-0.5-3.9-1.3c-0.3-0.2-0.8-0.2-1,0.1c-0.2,0.3-0.2,0.8,0.1,1c1.3,1.1,3,1.6,4.8,1.6
					s3.5-0.6,4.8-1.6c0.3-0.2,0.4-0.7,0.1-1C22.2,24.7,21.7,24.7,21.4,24.9L21.4,24.9z"/>
			</g>
		</g>
		<g id="Group-4" transform="translate(156.000000, 107.000000)">
			<g id="ic_music_note_black_24px" transform="translate(0.000000, 0.960000)">
				<polygon id="Shape_22_" class="st0" points="0,0 24,0 24,23 0,23 				"/>
				<path id="Shape_23_" class="st4" d="M12,2.9V13c-0.6-0.3-1.3-0.5-2-0.5c-2.2,0-4,1.7-4,3.8s1.8,3.8,4,3.8s4-1.7,4-3.8V6.7h4V2.9
					H12L12,2.9z"/>
			</g>
			<path id="Path" class="st3" d="M20,1.2L21.2,0C22.9,1.6,24,3.9,24,6.4s-1.1,4.8-2.8,6.4L20,11.7c1.4-1.3,2.3-3.2,2.3-5.3
				S21.4,2.5,20,1.2L20,1.2z"/>
		</g>
		<g id="Group-3-Copy-3" transform="translate(157.000000, 270.000000)">
			<polygon id="Shape_24_" class="st0" points="0,0 36,0 36,36 0,36 			"/>
			<g id="ic_face_unlock-copy_3_" transform="translate(3.000000, 3.000000)">
				<polygon id="Bounds_3_" class="st0" points="0,0 30,0 30,30 0,30 				"/>
				<path id="Shape_25_" class="st1" d="M15,0C6.7,0,0,6.7,0,15s6.7,15,15,15s15-6.7,15-15S23.3,0,15,0L15,0z M25,18.5
					c-1.4,4.7-5.3,8.1-10.1,8.1c-4.7,0-8.7-3.4-10-8.1c-1.5-0.1-2.7-1.5-2.7-3.2c0-1.6,1.1-2.9,2.5-3.1c2.6-1.8,4.7-4.4,5.1-6.3v0
					c1.7,3.3,7.9,6.5,14.8,6.3l0.4,0c1.6,0,2.9,1.4,2.9,3.2C27.8,17.1,26.5,18.5,25,18.5L25,18.5z M10.6,16.9c0.7,0,1.2-0.6,1.2-1.2
					c0-0.7-0.6-1.2-1.2-1.2s-1.2,0.6-1.2,1.2C9.4,16.3,9.9,16.9,10.6,16.9z M19.4,16.9c0.7,0,1.2-0.6,1.2-1.2c0-0.7-0.6-1.2-1.2-1.2
					s-1.2,0.6-1.2,1.2C18.1,16.3,18.7,16.9,19.4,16.9z M18.4,21.4c-0.9,0.7-2.1,1.1-3.4,1.1s-2.4-0.4-3.4-1.1
					c-0.3-0.2-0.7-0.2-0.9,0.1c-0.2,0.3-0.2,0.7,0.1,0.9c1.1,0.9,2.6,1.4,4.1,1.4s3-0.5,4.1-1.4c0.3-0.2,0.3-0.6,0.1-0.9
					C19,21.2,18.6,21.2,18.4,21.4L18.4,21.4z"/>
			</g>
		</g>
		<g id="Group-3-Copy-5" transform="translate(222.000000, 255.000000)">
			<polygon id="Shape_26_" class="st0" points="0,0 36,0 36,36 0,36 			"/>
			<g id="ic_face_unlock-copy_4_" transform="translate(3.000000, 3.000000)">
				<polygon id="Bounds_4_" class="st0" points="0,0 30,0 30,30 0,30 				"/>
				<path id="Shape_27_" class="st1" d="M15,0C6.7,0,0,6.7,0,15s6.7,15,15,15s15-6.7,15-15S23.3,0,15,0L15,0z M25,18.5
					c-1.4,4.7-5.3,8.1-10.1,8.1c-4.7,0-8.7-3.4-10-8.1c-1.5-0.1-2.7-1.5-2.7-3.2c0-1.6,1.1-2.9,2.5-3.1c2.6-1.8,4.7-4.4,5.1-6.3v0
					c1.7,3.3,7.9,6.5,14.8,6.3l0.4,0c1.6,0,2.9,1.4,2.9,3.2C27.8,17.1,26.5,18.5,25,18.5L25,18.5z M10.6,16.9c0.7,0,1.2-0.6,1.2-1.2
					c0-0.7-0.6-1.2-1.2-1.2s-1.2,0.6-1.2,1.2C9.4,16.3,9.9,16.9,10.6,16.9z M19.4,16.9c0.7,0,1.2-0.6,1.2-1.2c0-0.7-0.6-1.2-1.2-1.2
					s-1.2,0.6-1.2,1.2C18.1,16.3,18.7,16.9,19.4,16.9z M18.4,21.4c-0.9,0.7-2.1,1.1-3.4,1.1s-2.4-0.4-3.4-1.1
					c-0.3-0.2-0.7-0.2-0.9,0.1c-0.2,0.3-0.2,0.7,0.1,0.9c1.1,0.9,2.6,1.4,4.1,1.4s3-0.5,4.1-1.4c0.3-0.2,0.3-0.6,0.1-0.9
					C19,21.2,18.6,21.2,18.4,21.4L18.4,21.4z"/>
			</g>
		</g>
		<g id="Group-6" transform="translate(142.000000, 368.000000)">
			<polygon id="Triangle-1" class="st1" points="7.2,7.2 0,7.2 3.6,0 			"/>
			<path id="Line" class="st5" d="M3.6,4.8v28.8"/>
		</g>
		<g id="Group-6-Copy-3" transform="translate(204.000000, 195.000000)">
			<path id="Line_1_" class="st5" d="M3.6,4.8v28.8"/>
			<polygon id="Triangle-1_1_" class="st1" points="7.2,7.2 0,7.2 3.6,0 			"/>
		</g>
		<g id="Group-6-Copy-6" transform="translate(267.000000, 194.000000)">
			<path id="Line_2_" class="st5" d="M3.6,4.8v28.8"/>
			<polygon id="Triangle-1_2_" class="st1" points="7.2,7.2 0,7.2 3.6,0 			"/>
		</g>
		<g id="Group-6-Copy-4" transform="translate(78.000000, 196.000000)">
			<path id="Line_3_" class="st5" d="M3.6,3.6v28.8"/>
			<polygon id="Triangle-1_3_" class="st1" points="7.2,7.2 0,7.2 3.6,0 			"/>
		</g>
		<g id="Group-6-Copy-5" transform="translate(16.000000, 196.000000)">
			<path id="Line_4_" class="st5" d="M3.6,3.6v28.8"/>
			<polygon id="Triangle-1_4_" class="st1" points="7.2,7.2 0,7.2 3.6,0 			"/>
		</g>
		
			<g id="Group-6-Copy" transform="translate(146.100402, 75.600000) scale(1, -1) translate(-146.100402, -75.600000) translate(142.497992, 58.800000)">
			<polygon id="Triangle-1_5_" class="st1" points="7.2,7.2 0,7.2 3.6,0 			"/>
			<path id="Line_5_" class="st5" d="M3.6,4.8v28.8"/>
		</g>
		<g id="Group-3-Copy-2" transform="translate(124.485944, 417.800000)">
			<polygon id="Shape_28_" class="st0" points="0,0 42,0 42,42 0,42 			"/>
			<g id="ic_face_unlock-copy_5_" transform="translate(3.500000, 3.500000)">
				<polygon id="Bounds_5_" class="st0" points="0,0 35,0 35,35 0,35 				"/>
				<path id="Shape_29_" class="st1" d="M17.5,0C7.8,0,0,7.8,0,17.5S7.8,35,17.5,35S35,27.2,35,17.5S27.2,0,17.5,0L17.5,0z
					 M29.1,21.6c-1.6,5.5-6.2,9.4-11.7,9.4c-5.5,0-10.2-4-11.7-9.4c-1.7-0.2-3.1-1.7-3.1-3.7c0-1.9,1.2-3.4,2.9-3.6
					c3-2.1,5.5-5.1,6-7.4v0c2,3.8,9.2,7.6,17.3,7.4l0.4,0c1.9,0,3.4,1.7,3.4,3.7C32.4,20,31,21.6,29.1,21.6L29.1,21.6z M22.6,19.7
					c0.8,0,1.5-0.7,1.5-1.5c0-0.8-0.7-1.5-1.5-1.5c-0.8,0-1.5,0.7-1.5,1.5C21.1,19,21.8,19.7,22.6,19.7z M12.4,19.7
					c0.8,0,1.5-0.7,1.5-1.5c0-0.8-0.7-1.5-1.5-1.5s-1.5,0.7-1.5,1.5C10.9,19,11.6,19.7,12.4,19.7z M21.4,24.9
					c-1.1,0.8-2.5,1.3-3.9,1.3s-2.8-0.5-3.9-1.3c-0.3-0.2-0.8-0.2-1,0.1c-0.2,0.3-0.2,0.8,0.1,1c1.3,1.1,3,1.6,4.8,1.6
					s3.5-0.6,4.8-1.6c0.3-0.2,0.4-0.7,0.1-1C22.2,24.7,21.7,24.7,21.4,24.9L21.4,24.9z"/>
			</g>
		</g>
		<g id="Group-8" transform="translate(88.461847, 50.400000)">
			<path id="Rectangle-217-Copy-15" class="st6" d="M2.4,0h110.5c1.3,0,2.4,1.1,2.4,2.4v24c0,1.3-1.1,2.4-2.4,2.4H2.4
				c-1.3,0-2.4-1.1-2.4-2.4v-24C0,1.1,1.1,0,2.4,0z"/>
			<path id="Create-a-Room" class="st7" d="M18.3,9.7c0.7,0.7,1.1,1.4,1.2,2.3h-1.3c-0.2-0.6-0.5-1.2-0.9-1.5
				c-0.4-0.4-1.1-0.6-1.9-0.6c-1,0-1.8,0.3-2.4,1S12,12.7,12,14.1c0,1.2,0.3,2.1,0.8,2.9s1.4,1.1,2.5,1.1c1,0,1.8-0.4,2.3-1.2
				c0.3-0.4,0.5-0.9,0.6-1.6h1.3c-0.1,1.1-0.5,1.9-1.2,2.7c-0.8,0.9-1.9,1.3-3.2,1.3c-1.2,0-2.1-0.4-2.9-1.1c-1-0.9-1.6-2.4-1.6-4.3
				c0-1.5,0.4-2.7,1.2-3.6c0.8-1,2-1.5,3.5-1.5C16.6,8.7,17.6,9,18.3,9.7L18.3,9.7z M21,11.7h1.2v1.3c0.1-0.2,0.3-0.5,0.7-0.9
				s0.8-0.5,1.3-0.5c0,0,0.1,0,0.1,0s0.1,0,0.3,0v1.3c-0.1,0-0.1,0-0.2,0s-0.1,0-0.2,0c-0.6,0-1.1,0.2-1.4,0.6s-0.5,0.9-0.5,1.4V19
				H21V11.7z M30.2,11.9c0.5,0.2,0.9,0.6,1.1,0.9c0.2,0.4,0.4,0.8,0.5,1.3c0.1,0.3,0.1,0.9,0.1,1.6h-5.4c0,0.7,0.2,1.3,0.5,1.8
				c0.3,0.4,0.8,0.7,1.5,0.7c0.6,0,1.2-0.2,1.5-0.6c0.2-0.2,0.4-0.5,0.5-0.9h1.2c0,0.3-0.1,0.6-0.3,0.9s-0.4,0.6-0.6,0.8
				c-0.4,0.4-0.8,0.6-1.4,0.7c-0.3,0.1-0.6,0.1-1,0.1c-0.9,0-1.7-0.3-2.3-1s-1-1.6-1-2.8c0-1.2,0.3-2.1,1-2.9s1.5-1.1,2.5-1.1
				C29.2,11.5,29.7,11.6,30.2,11.9L30.2,11.9z M30.7,14.8c-0.1-0.5-0.2-1-0.3-1.3c-0.3-0.6-0.9-0.9-1.7-0.9c-0.6,0-1,0.2-1.4,0.6
				s-0.6,0.9-0.6,1.6H30.7z M34.8,17.9c0.3,0.2,0.6,0.3,0.9,0.3c0.4,0,0.9-0.1,1.3-0.3c0.7-0.3,1-0.9,1-1.6v-1
				c-0.2,0.1-0.3,0.2-0.6,0.2s-0.5,0.1-0.7,0.1L36,15.7c-0.4,0.1-0.8,0.2-1,0.3c-0.4,0.2-0.6,0.6-0.6,1
				C34.4,17.4,34.5,17.7,34.8,17.9L34.8,17.9z M37.4,14.6c0.3,0,0.5-0.2,0.6-0.4c0.1-0.1,0.1-0.3,0.1-0.5c0-0.4-0.1-0.7-0.4-0.9
				s-0.7-0.3-1.3-0.3c-0.6,0-1.1,0.2-1.4,0.5c-0.2,0.2-0.2,0.5-0.3,0.9h-1.1c0-0.9,0.3-1.5,0.9-1.9s1.2-0.5,2-0.5
				c0.9,0,1.6,0.2,2.1,0.5c0.5,0.3,0.8,0.8,0.8,1.5v4.2c0,0.1,0,0.2,0.1,0.3s0.2,0.1,0.3,0.1c0.1,0,0.1,0,0.2,0s0.1,0,0.2,0V19
				c-0.2,0.1-0.3,0.1-0.4,0.1s-0.2,0-0.4,0c-0.4,0-0.7-0.2-0.9-0.5c-0.1-0.2-0.2-0.4-0.2-0.7c-0.3,0.3-0.6,0.6-1.1,0.9
				s-1,0.4-1.6,0.4c-0.7,0-1.2-0.2-1.7-0.6s-0.6-0.9-0.6-1.5c0-0.7,0.2-1.2,0.6-1.6s1-0.6,1.7-0.7L37.4,14.6z M41.5,9.6h1.2v2h1.2v1
				h-1.2v4.8c0,0.3,0.1,0.4,0.3,0.5c0.1,0.1,0.3,0.1,0.5,0.1c0.1,0,0.1,0,0.2,0s0.1,0,0.2,0v1c-0.1,0-0.3,0.1-0.4,0.1s-0.3,0-0.5,0
				c-0.6,0-1-0.1-1.2-0.4s-0.3-0.7-0.3-1.1v-4.8h-1v-1h1V9.6z M49.7,11.9c0.5,0.2,0.9,0.6,1.1,0.9c0.2,0.4,0.4,0.8,0.5,1.3
				c0.1,0.3,0.1,0.9,0.1,1.6H46c0,0.7,0.2,1.3,0.5,1.8c0.3,0.4,0.8,0.7,1.5,0.7c0.6,0,1.2-0.2,1.5-0.6c0.2-0.2,0.4-0.5,0.5-0.9h1.2
				c0,0.3-0.1,0.6-0.3,0.9s-0.4,0.6-0.6,0.8C50,18.8,49.6,19,49,19.2c-0.3,0.1-0.6,0.1-1,0.1c-0.9,0-1.7-0.3-2.3-1s-1-1.6-1-2.8
				c0-1.2,0.3-2.1,1-2.9s1.5-1.1,2.5-1.1C48.7,11.5,49.2,11.6,49.7,11.9L49.7,11.9z M50.1,14.8c-0.1-0.5-0.2-1-0.3-1.3
				c-0.3-0.6-0.9-0.9-1.7-0.9c-0.6,0-1,0.2-1.4,0.6s-0.6,0.9-0.6,1.6H50.1z M58.1,17.9c0.3,0.2,0.6,0.3,0.9,0.3
				c0.4,0,0.9-0.1,1.3-0.3c0.7-0.3,1-0.9,1-1.6v-1c-0.2,0.1-0.3,0.2-0.6,0.2s-0.5,0.1-0.7,0.1l-0.7,0.1c-0.4,0.1-0.8,0.2-1,0.3
				c-0.4,0.2-0.6,0.6-0.6,1C57.8,17.4,57.9,17.7,58.1,17.9L58.1,17.9z M60.7,14.6c0.3,0,0.5-0.2,0.6-0.4c0.1-0.1,0.1-0.3,0.1-0.5
				c0-0.4-0.1-0.7-0.4-0.9s-0.7-0.3-1.3-0.3c-0.6,0-1.1,0.2-1.4,0.5c-0.2,0.2-0.2,0.5-0.3,0.9h-1.1c0-0.9,0.3-1.5,0.9-1.9
				s1.2-0.5,2-0.5c0.9,0,1.6,0.2,2.1,0.5c0.5,0.3,0.8,0.8,0.8,1.5v4.2c0,0.1,0,0.2,0.1,0.3s0.2,0.1,0.3,0.1c0.1,0,0.1,0,0.2,0
				s0.1,0,0.2,0V19c-0.2,0.1-0.3,0.1-0.4,0.1s-0.2,0-0.4,0c-0.4,0-0.7-0.2-0.9-0.5c-0.1-0.2-0.2-0.4-0.2-0.7
				c-0.3,0.3-0.6,0.6-1.1,0.9s-1,0.4-1.6,0.4c-0.7,0-1.2-0.2-1.7-0.6s-0.6-0.9-0.6-1.5c0-0.7,0.2-1.2,0.6-1.6s1-0.6,1.7-0.7
				L60.7,14.6z M73.3,13.6c0.6,0,1.1-0.1,1.5-0.4s0.6-0.7,0.6-1.4c0-0.7-0.3-1.2-0.8-1.5c-0.3-0.1-0.6-0.2-1.1-0.2h-3.3v3.4H73.3z
				 M68.8,9h4.6c0.8,0,1.4,0.1,1.9,0.3c0.9,0.4,1.4,1.2,1.4,2.4c0,0.6-0.1,1.1-0.4,1.5s-0.6,0.7-1,0.9c0.4,0.2,0.7,0.4,0.9,0.6
				s0.3,0.7,0.3,1.3l0,1.3c0,0.4,0,0.7,0.1,0.9c0.1,0.3,0.2,0.5,0.4,0.6V19h-1.7c0-0.1-0.1-0.2-0.1-0.3s-0.1-0.4-0.1-0.8l-0.1-1.7
				c0-0.7-0.3-1.1-0.7-1.3c-0.3-0.1-0.7-0.2-1.2-0.2h-3.1V19h-1.4V9z M83.2,17.3c0.3-0.6,0.5-1.3,0.5-2.1c0-0.7-0.1-1.2-0.3-1.7
				c-0.3-0.7-0.9-1-1.8-1c-0.8,0-1.3,0.3-1.6,0.9s-0.5,1.3-0.5,2.1c0,0.8,0.2,1.4,0.5,1.9s0.9,0.8,1.6,0.8
				C82.3,18.2,82.9,17.9,83.2,17.3L83.2,17.3z M83.9,12.4c0.7,0.6,1,1.6,1,2.8c0,1.2-0.3,2.2-0.9,2.9s-1.5,1.2-2.7,1.2
				c-1,0-1.8-0.3-2.4-1s-0.9-1.6-0.9-2.7c0-1.2,0.3-2.2,0.9-2.9c0.6-0.7,1.5-1.1,2.5-1.1C82.5,11.5,83.3,11.8,83.9,12.4L83.9,12.4z
				 M91,17.3c0.3-0.6,0.5-1.3,0.5-2.1c0-0.7-0.1-1.2-0.3-1.7c-0.3-0.7-0.9-1-1.8-1c-0.8,0-1.3,0.3-1.6,0.9s-0.5,1.3-0.5,2.1
				c0,0.8,0.2,1.4,0.5,1.9s0.9,0.8,1.6,0.8C90.1,18.2,90.7,17.9,91,17.3L91,17.3z M91.7,12.4c0.7,0.6,1,1.6,1,2.8
				c0,1.2-0.3,2.2-0.9,2.9s-1.5,1.2-2.7,1.2c-1,0-1.8-0.3-2.4-1s-0.9-1.6-0.9-2.7c0-1.2,0.3-2.2,0.9-2.9c0.6-0.7,1.5-1.1,2.5-1.1
				C90.3,11.5,91.1,11.8,91.7,12.4L91.7,12.4z M94.2,11.7h1.2v1c0.3-0.4,0.6-0.6,0.8-0.8c0.4-0.3,0.9-0.4,1.4-0.4
				c0.6,0,1.1,0.1,1.4,0.4c0.2,0.2,0.4,0.4,0.5,0.7c0.3-0.4,0.6-0.7,1-0.9s0.8-0.3,1.2-0.3c1,0,1.7,0.4,2,1.1
				c0.2,0.4,0.3,0.9,0.3,1.5V19h-1.3v-5.1c0-0.5-0.1-0.8-0.4-1s-0.5-0.3-0.9-0.3c-0.5,0-0.9,0.2-1.2,0.5s-0.5,0.9-0.5,1.6V19h-1.3
				v-4.8c0-0.5-0.1-0.9-0.2-1.1c-0.2-0.3-0.5-0.5-1-0.5c-0.5,0-0.9,0.2-1.3,0.5s-0.6,1-0.6,2V19h-1.2V11.7z"/>
		</g>
		<g id="Group-7" transform="translate(88.461847, 380.800000)">
			<path id="Rectangle-217-Copy-13" class="st6" d="M2.4,0h110.5c1.3,0,2.4,1.1,2.4,2.4v24c0,1.3-1.1,2.4-2.4,2.4H2.4
				c-1.3,0-2.4-1.1-2.4-2.4v-24C0,1.1,1.1,0,2.4,0z"/>
			<path id="Join-a-Room" class="st7" d="M24,17c0,0.8-0.1,1.5-0.4,2c-0.5,0.9-1.3,1.3-2.7,1.3c-0.8,0-1.4-0.2-1.9-0.6
				s-0.8-1.1-0.8-2.2v-0.7h1.3v0.7c0,0.5,0.1,1,0.4,1.2s0.6,0.4,1.1,0.4c0.7,0,1.2-0.2,1.4-0.7c0.1-0.3,0.2-0.9,0.2-1.7V10H24V17z
				 M30.5,18.3c0.3-0.6,0.5-1.3,0.5-2.1c0-0.7-0.1-1.2-0.3-1.7c-0.3-0.7-0.9-1-1.8-1c-0.8,0-1.3,0.3-1.6,0.9s-0.5,1.3-0.5,2.1
				c0,0.8,0.2,1.4,0.5,1.9s0.9,0.8,1.6,0.8C29.6,19.2,30.2,18.9,30.5,18.3L30.5,18.3z M31.2,13.4c0.7,0.6,1,1.6,1,2.8
				c0,1.2-0.3,2.2-0.9,2.9c-0.6,0.8-1.5,1.2-2.7,1.2c-1,0-1.8-0.3-2.4-1s-0.9-1.6-0.9-2.7c0-1.2,0.3-2.2,0.9-2.9
				c0.6-0.7,1.5-1.1,2.5-1.1C29.8,12.5,30.6,12.8,31.2,13.4L31.2,13.4z M33.7,12.7h1.3V20h-1.3V12.7z M33.7,10h1.3v1.4h-1.3V10z
				 M36.8,12.7H38v1c0.3-0.4,0.7-0.7,1.1-0.9s0.8-0.3,1.3-0.3c1,0,1.7,0.4,2.1,1.1c0.2,0.4,0.3,1,0.3,1.7V20h-1.3v-4.6
				c0-0.4-0.1-0.8-0.2-1.1c-0.2-0.5-0.6-0.7-1.2-0.7c-0.3,0-0.5,0-0.7,0.1c-0.3,0.1-0.6,0.3-0.9,0.6c-0.2,0.2-0.3,0.5-0.4,0.7
				S38,15.7,38,16.2V20h-1.2V12.7z M49.8,18.9c0.3,0.2,0.6,0.3,0.9,0.3c0.4,0,0.9-0.1,1.3-0.3c0.7-0.3,1-0.9,1-1.6v-1
				c-0.2,0.1-0.3,0.2-0.6,0.2s-0.5,0.1-0.7,0.1L51,16.7c-0.4,0.1-0.8,0.2-1,0.3c-0.4,0.2-0.6,0.6-0.6,1
				C49.4,18.4,49.5,18.7,49.8,18.9L49.8,18.9z M52.4,15.6c0.3,0,0.5-0.2,0.6-0.4c0.1-0.1,0.1-0.3,0.1-0.5c0-0.4-0.1-0.7-0.4-0.9
				s-0.7-0.3-1.3-0.3c-0.6,0-1.1,0.2-1.4,0.5c-0.2,0.2-0.2,0.5-0.3,0.9h-1.1c0-0.9,0.3-1.5,0.9-1.9s1.2-0.5,2-0.5
				c0.9,0,1.6,0.2,2.1,0.5c0.5,0.3,0.8,0.8,0.8,1.5v4.2c0,0.1,0,0.2,0.1,0.3s0.2,0.1,0.3,0.1c0.1,0,0.1,0,0.2,0s0.1,0,0.2,0V20
				c-0.2,0.1-0.3,0.1-0.4,0.1s-0.2,0-0.4,0c-0.4,0-0.7-0.2-0.9-0.5c-0.1-0.2-0.2-0.4-0.2-0.7c-0.3,0.3-0.6,0.6-1.1,0.9
				s-1,0.4-1.6,0.4c-0.7,0-1.2-0.2-1.7-0.6s-0.6-0.9-0.6-1.5c0-0.7,0.2-1.2,0.6-1.6s1-0.6,1.7-0.7L52.4,15.6z M65,14.6
				c0.6,0,1.1-0.1,1.5-0.4s0.6-0.7,0.6-1.4c0-0.7-0.3-1.2-0.8-1.5c-0.3-0.1-0.6-0.2-1.1-0.2h-3.3v3.4H65z M60.5,10h4.6
				c0.8,0,1.4,0.1,1.9,0.3c0.9,0.4,1.4,1.2,1.4,2.4c0,0.6-0.1,1.1-0.4,1.5s-0.6,0.7-1,0.9c0.4,0.2,0.7,0.4,0.9,0.6s0.3,0.7,0.3,1.3
				l0,1.3c0,0.4,0,0.7,0.1,0.9c0.1,0.3,0.2,0.5,0.4,0.6V20h-1.7c0-0.1-0.1-0.2-0.1-0.3S67,19.3,67,18.9l-0.1-1.7
				c0-0.7-0.3-1.1-0.7-1.3c-0.3-0.1-0.7-0.2-1.2-0.2h-3.1V20h-1.4V10z M74.8,18.3c0.3-0.6,0.5-1.3,0.5-2.1c0-0.7-0.1-1.2-0.3-1.7
				c-0.3-0.7-0.9-1-1.8-1c-0.8,0-1.3,0.3-1.6,0.9S71,15.7,71,16.5c0,0.8,0.2,1.4,0.5,1.9s0.9,0.8,1.6,0.8
				C74,19.2,74.5,18.9,74.8,18.3L74.8,18.3z M75.6,13.4c0.7,0.6,1,1.6,1,2.8c0,1.2-0.3,2.2-0.9,2.9s-1.5,1.2-2.7,1.2
				c-1,0-1.8-0.3-2.4-1s-0.9-1.6-0.9-2.7c0-1.2,0.3-2.2,0.9-2.9c0.6-0.7,1.5-1.1,2.5-1.1C74.2,12.5,75,12.8,75.6,13.4L75.6,13.4z
				 M82.6,18.3c0.3-0.6,0.5-1.3,0.5-2.1c0-0.7-0.1-1.2-0.3-1.7c-0.3-0.7-0.9-1-1.8-1c-0.8,0-1.3,0.3-1.6,0.9s-0.5,1.3-0.5,2.1
				c0,0.8,0.2,1.4,0.5,1.9s0.9,0.8,1.6,0.8C81.8,19.2,82.3,18.9,82.6,18.3L82.6,18.3z M83.4,13.4c0.7,0.6,1,1.6,1,2.8
				c0,1.2-0.3,2.2-0.9,2.9s-1.5,1.2-2.7,1.2c-1,0-1.8-0.3-2.4-1s-0.9-1.6-0.9-2.7c0-1.2,0.3-2.2,0.9-2.9c0.6-0.7,1.5-1.1,2.5-1.1
				C81.9,12.5,82.7,12.8,83.4,13.4L83.4,13.4z M85.8,12.7H87v1c0.3-0.4,0.6-0.6,0.8-0.8c0.4-0.3,0.9-0.4,1.4-0.4
				c0.6,0,1.1,0.1,1.4,0.4c0.2,0.2,0.4,0.4,0.5,0.7c0.3-0.4,0.6-0.7,1-0.9s0.8-0.3,1.2-0.3c1,0,1.7,0.4,2,1.1
				c0.2,0.4,0.3,0.9,0.3,1.5V20h-1.3v-5.1c0-0.5-0.1-0.8-0.4-1s-0.5-0.3-0.9-0.3c-0.5,0-0.9,0.2-1.2,0.5s-0.5,0.9-0.5,1.6V20h-1.3
				v-4.8c0-0.5-0.1-0.9-0.2-1.1c-0.2-0.3-0.5-0.5-1-0.5c-0.5,0-0.9,0.2-1.3,0.5s-0.6,1-0.6,2V20h-1.2V12.7z"/>
		</g>
		<g id="_x30_2" transform="translate(134.000000, 318.000000)">
			<path id="Stroke-10" class="st8" d="M1.4,13.8C1.1,13,1,12.1,1,11.2c0-6,4.9-10.8,11-10.8c6.1,0,11,4.9,11,10.8
				c0,1-0.1,1.9-0.4,2.9"/>
			<path id="Stroke-11" class="st9" d="M7.1,23.6L7.1,23.6c-1,0.4-2.2-0.1-2.6-1l-3.1-7c-0.4-1,0.1-2.1,1.1-2.4l0,0
				c1-0.4,2.2,0.1,2.6,1l3.1,7C8.6,22.1,8.1,23.2,7.1,23.6L7.1,23.6z"/>
			<path id="Stroke-12" class="st10" d="M4.4,23.1l-0.1,0c-0.6,0.2-1.3,0-1.5-0.6l-2.4-5.4c-0.2-0.6,0-1.2,0.6-1.4l0.1,0"/>
			<path id="Stroke-13" class="st9" d="M17.1,23.6L17.1,23.6c1,0.4,2.2-0.1,2.6-1l3.1-7c0.4-1-0.1-2.1-1.1-2.4l0,0
				c-1-0.4-2.2,0.1-2.6,1l-3.1,7C15.6,22.1,16.1,23.2,17.1,23.6L17.1,23.6z"/>
			<path id="Stroke-14" class="st10" d="M19.9,23.1l0.1,0c0.6,0.2,1.3,0,1.5-0.6l2.4-5.4c0.2-0.6,0-1.2-0.6-1.4l-0.1,0"/>
		</g>
		<path id="_x28_Listening_x29_" class="st11" d="M120.6,350.3c-0.6,1.2-1,2.1-1.2,2.6c-0.3,0.9-0.4,1.8-0.4,3
			c0,1.1,0.2,2.2,0.5,3.1c0.2,0.6,0.6,1.4,1.2,2.5h-0.7c-0.6-0.9-0.9-1.5-1.1-1.7s-0.3-0.6-0.4-1c-0.2-0.6-0.4-1.2-0.5-1.9
			c0-0.3-0.1-0.7-0.1-1c0-1.2,0.2-2.2,0.5-3.1c0.2-0.6,0.7-1.4,1.4-2.6H120.6z M121.9,350.4h1.2v7.6h4.4v1h-5.5V350.4z M128.4,352.8
			h1.1v6.2h-1.1V352.8z M128.4,350.4h1.1v1.2h-1.1V350.4z M131.7,357c0,0.4,0.1,0.6,0.3,0.8c0.3,0.3,0.7,0.5,1.4,0.5
			c0.4,0,0.7-0.1,1-0.3s0.4-0.4,0.4-0.8c0-0.3-0.1-0.5-0.4-0.6c-0.2-0.1-0.5-0.2-0.9-0.3l-0.8-0.2c-0.5-0.1-0.9-0.3-1.2-0.4
			c-0.5-0.3-0.7-0.7-0.7-1.2c0-0.6,0.2-1.1,0.6-1.4s1-0.6,1.7-0.6c0.9,0,1.6,0.3,2,0.8c0.3,0.4,0.4,0.7,0.4,1.1h-1
			c0-0.2-0.1-0.5-0.3-0.7c-0.2-0.3-0.7-0.4-1.3-0.4c-0.4,0-0.7,0.1-0.9,0.2s-0.3,0.4-0.3,0.6c0,0.3,0.1,0.5,0.4,0.7
			c0.2,0.1,0.4,0.2,0.7,0.3l0.7,0.2c0.8,0.2,1.3,0.4,1.5,0.5c0.4,0.3,0.6,0.7,0.6,1.3c0,0.6-0.2,1-0.6,1.4s-1.1,0.6-1.9,0.6
			c-0.9,0-1.6-0.2-2-0.6s-0.6-0.9-0.6-1.6H131.7z M137.3,351h1.1v1.8h1v0.9h-1v4.1c0,0.2,0.1,0.4,0.2,0.4c0.1,0,0.2,0.1,0.4,0.1
			c0.1,0,0.1,0,0.2,0s0.1,0,0.2,0v0.8c-0.1,0-0.2,0.1-0.4,0.1s-0.3,0-0.4,0c-0.5,0-0.8-0.1-1-0.4s-0.3-0.6-0.3-1v-4.2h-0.8v-0.9h0.8
			V351z M144.4,352.9c0.4,0.2,0.7,0.5,1,0.8c0.2,0.3,0.4,0.7,0.4,1.1c0.1,0.3,0.1,0.8,0.1,1.4h-4.6c0,0.6,0.2,1.1,0.5,1.5
			s0.7,0.6,1.3,0.6c0.6,0,1-0.2,1.3-0.5c0.2-0.2,0.3-0.5,0.4-0.7h1c0,0.2-0.1,0.5-0.3,0.8s-0.3,0.5-0.5,0.7
			c-0.3,0.3-0.7,0.5-1.2,0.6c-0.3,0.1-0.5,0.1-0.9,0.1c-0.8,0-1.4-0.3-2-0.9s-0.8-1.4-0.8-2.4c0-1,0.3-1.8,0.8-2.5s1.3-0.9,2.1-0.9
			C143.5,352.6,143.9,352.7,144.4,352.9L144.4,352.9z M144.7,355.4c0-0.5-0.1-0.8-0.3-1.1c-0.3-0.5-0.8-0.8-1.4-0.8
			c-0.5,0-0.9,0.2-1.2,0.5s-0.5,0.8-0.5,1.3H144.7z M147.1,352.7h1v0.9c0.3-0.4,0.6-0.6,0.9-0.8s0.7-0.2,1.1-0.2
			c0.9,0,1.5,0.3,1.8,0.9c0.2,0.3,0.3,0.8,0.3,1.5v4h-1.1v-4c0-0.4-0.1-0.7-0.2-0.9c-0.2-0.4-0.5-0.6-1-0.6c-0.2,0-0.5,0-0.6,0.1
			c-0.3,0.1-0.5,0.3-0.8,0.5c-0.2,0.2-0.3,0.4-0.3,0.6s-0.1,0.5-0.1,0.9v3.3h-1.1V352.7z M153.8,352.8h1.1v6.2h-1.1V352.8z
			 M153.8,350.4h1.1v1.2h-1.1V350.4z M156.5,352.7h1v0.9c0.3-0.4,0.6-0.6,0.9-0.8s0.7-0.2,1.1-0.2c0.9,0,1.5,0.3,1.8,0.9
			c0.2,0.3,0.3,0.8,0.3,1.5v4h-1.1v-4c0-0.4-0.1-0.7-0.2-0.9c-0.2-0.4-0.5-0.6-1-0.6c-0.2,0-0.5,0-0.6,0.1c-0.3,0.1-0.5,0.3-0.8,0.5
			c-0.2,0.2-0.3,0.4-0.3,0.6s-0.1,0.5-0.1,0.9v3.3h-1.1V352.7z M166.6,353c0.2,0.1,0.4,0.3,0.6,0.6v-0.8h1v5.7
			c0,0.8-0.1,1.4-0.4,1.9c-0.4,0.9-1.3,1.3-2.5,1.3c-0.7,0-1.2-0.2-1.7-0.5s-0.7-0.8-0.8-1.4h1.1c0.1,0.3,0.2,0.5,0.3,0.7
			c0.2,0.2,0.6,0.4,1.1,0.4c0.8,0,1.3-0.3,1.6-0.9c0.1-0.3,0.2-0.9,0.2-1.8c-0.2,0.3-0.5,0.6-0.8,0.7s-0.7,0.2-1.2,0.2
			c-0.7,0-1.3-0.2-1.8-0.7s-0.8-1.3-0.8-2.4c0-1.1,0.3-1.9,0.8-2.5s1.1-0.9,1.9-0.9C165.8,352.6,166.3,352.7,166.6,353L166.6,353z
			 M166.8,354.1c-0.3-0.4-0.7-0.6-1.2-0.6c-0.7,0-1.2,0.3-1.5,1c-0.1,0.4-0.2,0.9-0.2,1.5c0,0.7,0.1,1.2,0.4,1.6s0.7,0.6,1.2,0.6
			c0.8,0,1.3-0.3,1.6-1c0.2-0.4,0.3-0.8,0.3-1.4C167.2,355.1,167.1,354.5,166.8,354.1L166.8,354.1z M169.4,361.4
			c0.6-1.2,1-2.1,1.2-2.6c0.3-0.8,0.4-1.8,0.4-3s-0.2-2.2-0.5-3.1c-0.2-0.6-0.6-1.4-1.2-2.5h0.7c0.6,1,1,1.6,1.1,1.8
			s0.3,0.5,0.4,0.9c0.2,0.5,0.3,1,0.4,1.4s0.1,0.9,0.1,1.4c0,1.2-0.2,2.2-0.6,3.1c-0.2,0.6-0.7,1.4-1.4,2.6H169.4z"/>
		<g id="Group-3-Copy-6" transform="translate(64.000000, 217.000000)">
			<polygon id="Shape_30_" class="st0" points="0,0 36,0 36,36 0,36 			"/>
			<g id="ic_face_unlock-copy_6_" transform="translate(3.000000, 3.000000)">
				<polygon id="Bounds_6_" class="st0" points="0,0 30,0 30,30 0,30 				"/>
				<path id="Shape_31_" class="st1" d="M15,0C6.7,0,0,6.7,0,15s6.7,15,15,15s15-6.7,15-15S23.3,0,15,0L15,0z M25,18.5
					c-1.4,4.7-5.3,8.1-10.1,8.1c-4.7,0-8.7-3.4-10-8.1c-1.5-0.1-2.7-1.5-2.7-3.2c0-1.6,1.1-2.9,2.5-3.1c2.6-1.8,4.7-4.4,5.1-6.3v0
					c1.7,3.3,7.9,6.5,14.8,6.3l0.4,0c1.6,0,2.9,1.4,2.9,3.2C27.8,17.1,26.5,18.5,25,18.5L25,18.5z M10.6,16.9c0.7,0,1.2-0.6,1.2-1.2
					c0-0.7-0.6-1.2-1.2-1.2s-1.2,0.6-1.2,1.2C9.4,16.3,9.9,16.9,10.6,16.9z M19.4,16.9c0.7,0,1.2-0.6,1.2-1.2c0-0.7-0.6-1.2-1.2-1.2
					s-1.2,0.6-1.2,1.2C18.1,16.3,18.7,16.9,19.4,16.9z M18.4,21.4c-0.9,0.7-2.1,1.1-3.4,1.1s-2.4-0.4-3.4-1.1
					c-0.3-0.2-0.7-0.2-0.9,0.1c-0.2,0.3-0.2,0.7,0.1,0.9c1.1,0.9,2.6,1.4,4.1,1.4s3-0.5,4.1-1.4c0.3-0.2,0.3-0.6,0.1-0.9
					C19,21.2,18.6,21.2,18.4,21.4L18.4,21.4z"/>
			</g>
		</g>
		<g id="Group-3-Copy-7" transform="translate(2.000000, 217.000000)">
			<polygon id="Shape_32_" class="st0" points="0,0 36,0 36,36 0,36 			"/>
			<g id="ic_face_unlock-copy_7_" transform="translate(3.000000, 3.000000)">
				<polygon id="Bounds_7_" class="st0" points="0,0 30,0 30,30 0,30 				"/>
				<path id="Shape_33_" class="st1" d="M15,0C6.7,0,0,6.7,0,15s6.7,15,15,15s15-6.7,15-15S23.3,0,15,0L15,0z M25,18.5
					c-1.4,4.7-5.3,8.1-10.1,8.1c-4.7,0-8.7-3.4-10-8.1c-1.5-0.1-2.7-1.5-2.7-3.2c0-1.6,1.1-2.9,2.5-3.1c2.6-1.8,4.7-4.4,5.1-6.3v0
					c1.7,3.3,7.9,6.5,14.8,6.3l0.4,0c1.6,0,2.9,1.4,2.9,3.2C27.8,17.1,26.5,18.5,25,18.5L25,18.5z M10.6,16.9c0.7,0,1.2-0.6,1.2-1.2
					c0-0.7-0.6-1.2-1.2-1.2s-1.2,0.6-1.2,1.2C9.4,16.3,9.9,16.9,10.6,16.9z M19.4,16.9c0.7,0,1.2-0.6,1.2-1.2c0-0.7-0.6-1.2-1.2-1.2
					s-1.2,0.6-1.2,1.2C18.1,16.3,18.7,16.9,19.4,16.9z M18.4,21.4c-0.9,0.7-2.1,1.1-3.4,1.1s-2.4-0.4-3.4-1.1
					c-0.3-0.2-0.7-0.2-0.9,0.1c-0.2,0.3-0.2,0.7,0.1,0.9c1.1,0.9,2.6,1.4,4.1,1.4s3-0.5,4.1-1.4c0.3-0.2,0.3-0.6,0.1-0.9
					C19,21.2,18.6,21.2,18.4,21.4L18.4,21.4z"/>
			</g>
		</g>
	</g>
</g>
</svg>
