<?xml version="1.0" encoding="UTF-8" standalone="no"?>
<svg width="726px" height="371px" viewBox="0 0 726 371" version="1.1" xmlns="http://www.w3.org/2000/svg" xmlns:xlink="http://www.w3.org/1999/xlink">
    <!-- Generator: Sketch 39.1 (31720) - http://www.bohemiancoding.com/sketch -->
    <title>Group</title>
    <desc>Created with Sketch.</desc>
    <defs>
        <rect id="path-1" x="361" y="100" width="140" height="42" rx="4"></rect>
        <mask id="mask-2" maskContentUnits="userSpaceOnUse" maskUnits="objectBoundingBox" x="0" y="0" width="140" height="42" fill="white">
            <use xlink:href="#path-1"></use>
        </mask>
        <rect id="path-3" x="361" y="272" width="140" height="42" rx="4"></rect>
        <mask id="mask-4" maskContentUnits="userSpaceOnUse" maskUnits="objectBoundingBox" x="0" y="0" width="140" height="42" fill="white">
            <use xlink:href="#path-3"></use>
        </mask>
        <rect id="path-5" x="543" y="266" width="140" height="42" rx="4"></rect>
        <mask id="mask-6" maskContentUnits="userSpaceOnUse" maskUnits="objectBoundingBox" x="0" y="0" width="140" height="42" fill="white">
            <use xlink:href="#path-5"></use>
        </mask>
    </defs>
    <g id="Page-1" stroke="none" stroke-width="1" fill="none" fill-rule="evenodd">
        <g id="Group" transform="translate(-1.000000, -1.000000)">
            <rect id="Rectangle-217-Copy-5" fill="#FFAB00" x="543" y="162" width="140" height="42" rx="4"></rect>
            <rect id="Rectangle-217-Copy" fill="#FFAB00" x="361" y="38" width="140" height="42" rx="4"></rect>
            <rect id="Rectangle-217-Copy-13" fill="#FFAB00" x="155" y="68" width="140" height="42" rx="4"></rect>
            <use id="Rectangle-217-Copy-2" stroke="#787878" mask="url(#mask-2)" stroke-width="2" xlink:href="#path-1"></use>
            <path d="M150.003906,89 L116.995225,89 C114.788723,89 113,90.7946186 113,93.0062832 L113,288.993717 C113,291.206326 114.782034,293 116.995254,293 L151.003906,293" id="Line" stroke="#979797" stroke-linecap="square"></path>
            <path d="M361.003906,59 L326.995254,59 C324.788736,59 323,60.7886753 323,62.9964277 L323,117.003572 C323,119.210738 324.782034,121 326.995254,121 L361.003906,121" id="Line-Copy-2" stroke="#787878" stroke-linecap="square"></path>
            <g id="Group-5" transform="translate(221.000000, 54.000000)">
                <path d="M490.003906,4 L284.007584,4 C281.794257,4 280,5.78241281 280,8.00260889 L280,293.997391 C280,296.207971 281.794728,298 284.000859,298 L505.003906,298" id="Line-Copy" stroke="#787878" stroke-linecap="square" transform="translate(392.501953, 151.000000) scale(-1, 1) translate(-392.501953, -151.000000) "></path>
                <polygon id="Triangle-1" fill="#787878" points="296 0 296 8 288 4"></polygon>
                <polygon id="Triangle-1" fill="#787878" transform="translate(4.000000, 214.000000) rotate(-90.000000) translate(-4.000000, -214.000000) " points="8 210 8 218 0 214"></polygon>
            </g>
            <text id="Create-a-Room" font-family="Helvetica" font-size="13" font-weight="normal" fill="#FFFFFF">
                <tspan x="182" y="94">Create a Room</tspan>
            </text>
            <text id="Main-User-Flow" font-family="Helvetica" font-size="13" font-weight="normal" fill="#000000">
                <tspan x="135" y="13">Main User Flow</tspan>
            </text>
            <text id="Play-Playlist" font-family="Helvetica" font-size="13" font-weight="normal" fill="#FFFFFF">
                <tspan x="396" y="63">Play Playlist</tspan>
            </text>
            <text id="Invite-People" font-family="Helvetica" font-size="13" font-weight="normal" fill="#000000">
                <tspan x="394" y="125">Invite People</tspan>
            </text>
            <path d="M295,90 L323,90" id="Line-Copy-3" stroke="#787878" stroke-linecap="square"></path>
            <rect id="Rectangle-231" fill="#FFAB00" x="113" y="1" width="14" height="14"></rect>
            <rect id="Rectangle-217" fill="#FFAB00" x="361" y="330" width="140" height="42" rx="4"></rect>
            <rect id="Rectangle-217-Copy-3" fill="#FFAB00" x="361" y="214" width="140" height="42" rx="4"></rect>
            <use id="Rectangle-217-Copy-8" stroke="#787878" mask="url(#mask-4)" stroke-width="2" xlink:href="#path-3"></use>
            <use id="Rectangle-217-Copy-6" stroke="#787878" mask="url(#mask-6)" stroke-width="2" xlink:href="#path-5"></use>
            <path d="M361.003906,235 L326.995254,235 C324.788736,235 323,236.798803 323,238.992983 L323,347.007017 C323,349.212281 324.782034,351 326.995254,351 L361.003906,351" id="Line-Copy-4" stroke="#787878" stroke-linecap="square"></path>
            <path d="M543.003906,176 L524.997498,176 C522.789741,176 521,177.790972 521,179.993558 L521,289.006442 C521,291.212023 522.800672,293 524.997498,293 L543.003906,293" id="Line-Copy-7" stroke="#787878" stroke-linecap="square"></path>
            <text id="Like-the-Music" font-family="Helvetica" font-size="13" font-weight="normal" fill="#FFFFFF">
                <tspan x="571.45459" y="180">Like the Music</tspan>
            </text>
            <text id="Listen-Music" font-family="Helvetica" font-size="13" font-weight="normal" fill="#FFFFFF">
                <tspan x="394" y="239">Listen Music</tspan>
            </text>
            <text id="Share" font-family="Helvetica" font-size="13" font-weight="normal" fill="#000000">
                <tspan x="596" y="291">Share</tspan>
            </text>
            <text id="Follow-Loopers" font-family="Helvetica" font-size="13" font-weight="normal" fill="#000000">
                <tspan x="387" y="297">Follow Loopers</tspan>
            </text>
            <text id="Be-a-Looper" font-family="Helvetica" font-size="13" font-weight="normal" fill="#FFFFFF">
                <tspan x="397" y="355">Be a Looper</tspan>
            </text>
            <text id="Launch-App" font-family="Helvetica" font-size="13" font-weight="normal" fill="#000000">
                <tspan x="0" y="194">Launch App</tspan>
            </text>
            <path d="M75,191 L113,191" id="Line" stroke="#979797" stroke-linecap="square"></path>
            <path d="M295,293 L361,293" id="Line-Copy-5" stroke="#787878" stroke-linecap="square"></path>
            <path d="M501,235 L520.506409,235" id="Line-Copy-6" stroke="#787878" stroke-linecap="square"></path>
            <path d="M501,121 L511.99998,121 C514.20913,121 516,122.788251 516,124.999493 L516,168.516327 C516,170.725187 514.217155,172.515821 511.997075,172.515821 L229.002925,172.515821 C226.792171,172.515821 225,174.313248 225,176.50962 L225,273.601154" id="Line-Copy-6" stroke="#787878" stroke-linecap="square" stroke-dasharray="6" opacity="0.54"></path>
            <rect id="Rectangle-217-Copy-14" fill="#FFAB00" x="155" y="272" width="140" height="42" rx="4"></rect>
            <text id="Join-a-Room" font-family="Helvetica" font-size="13" font-weight="normal" fill="#FFFFFF">
                <tspan x="189" y="298">Join a Room</tspan>
            </text>
        </g>
        <text id="(Add-to-favorite-lis" font-family="Helvetica" font-size="13" font-weight="normal" fill="#FFFFFF">
            <tspan x="556.007324" y="195">(Add to favorite list)</tspan>
        </text>
    </g>
</svg>