<?xml version="1.0" encoding="utf-8"?>
<!-- Generator: Adobe Illustrator 19.2.1, SVG Export Plug-In . SVG Version: 6.00 Build 0)  -->
<svg version="1.1" id="Layer_1" xmlns="http://www.w3.org/2000/svg" xmlns:xlink="http://www.w3.org/1999/xlink" x="0px" y="0px"
	 viewBox="0 0 423 131" style="enable-background:new 0 0 423 131;" xml:space="preserve">
<style type="text/css">
	.st0{fill:#222222;}
	.st1{fill:#787878;}
	.st2{font-family:'Helvetica';}
	.st3{font-size:72px;}
</style>
<title>Group</title>
<desc>Created with Sketch.</desc>
<g id="Page-1">
	<g id="Desktop-HD" transform="translate(-793.000000, -334.000000)">
		<g id="Group" transform="translate(689.000000, 331.000000)">
			<path id="I-carry-a-great-pass" class="st0" d="M148.7,30.6h-1.5l2.7-12.6h1.5L148.7,30.6z M163.9,23.4c-0.2-0.2-0.5-0.4-0.9-0.5
				s-0.7-0.2-1.2-0.2c-0.4,0-0.8,0.1-1.1,0.2s-0.6,0.3-0.9,0.6s-0.5,0.5-0.7,0.8s-0.3,0.6-0.4,0.9s-0.2,0.7-0.3,1s-0.1,0.6-0.1,0.9
				c0,0.8,0.2,1.5,0.6,1.9s0.9,0.7,1.5,0.7c0.4,0,0.8-0.1,1.2-0.2s0.8-0.4,1.2-0.6l-0.3,1.4c-0.4,0.2-0.8,0.4-1.1,0.5
				s-0.8,0.2-1.2,0.2c-0.6,0-1-0.1-1.4-0.3s-0.7-0.4-1-0.8s-0.5-0.7-0.6-1.2s-0.2-0.9-0.2-1.5c0-0.5,0-1,0.1-1.5s0.2-0.9,0.4-1.4
				s0.4-0.8,0.7-1.2s0.6-0.7,1-0.9s0.8-0.5,1.2-0.6s1-0.2,1.5-0.2c0.3,0,0.5,0,0.7,0.1s0.4,0.1,0.6,0.1s0.4,0.1,0.5,0.2
				s0.3,0.1,0.4,0.2L163.9,23.4z M172.1,27.7c0,0.2-0.1,0.5-0.1,0.8s-0.1,0.6-0.1,0.8s-0.1,0.5-0.1,0.8s0,0.4,0,0.5h-1.5
				c0-0.1,0-0.3,0-0.4s0-0.3,0-0.5s0-0.3,0.1-0.5s0-0.3,0.1-0.4l0,0c-0.2,0.3-0.4,0.6-0.6,0.8s-0.4,0.5-0.6,0.7s-0.5,0.3-0.8,0.5
				s-0.6,0.2-1,0.2s-0.8-0.1-1.1-0.2s-0.6-0.4-0.8-0.6s-0.4-0.6-0.5-1s-0.2-0.9-0.2-1.5c0-0.3,0-0.7,0.1-1.2s0.2-0.9,0.4-1.3
				s0.4-0.9,0.7-1.3s0.6-0.8,1-1.2s0.9-0.6,1.5-0.8s1.2-0.3,2-0.3c0.5,0,1,0,1.5,0.1s1,0.2,1.5,0.3L172.1,27.7z M171.7,22.8
				c-0.2,0-0.4-0.1-0.7-0.1s-0.5-0.1-0.8-0.1c-0.5,0-1,0.1-1.3,0.2s-0.7,0.4-1,0.6s-0.5,0.6-0.7,0.9s-0.4,0.7-0.5,1
				s-0.2,0.7-0.3,1.1s-0.1,0.7-0.1,0.9c0,0.3,0,0.6,0.1,0.9s0.2,0.5,0.3,0.7s0.3,0.3,0.5,0.4s0.4,0.2,0.7,0.2s0.6-0.1,0.8-0.2
				s0.5-0.3,0.7-0.5s0.4-0.4,0.6-0.7s0.3-0.6,0.5-0.9s0.3-0.6,0.4-0.9s0.2-0.6,0.3-0.9L171.7,22.8z M180.6,23.1L180.6,23.1
				c-0.2-0.1-0.3-0.1-0.5-0.2s-0.4-0.1-0.6-0.1c-0.3,0-0.7,0.1-1,0.3s-0.6,0.5-0.8,0.9s-0.5,0.8-0.7,1.2s-0.3,0.9-0.4,1.4l-0.8,3.9
				h-1.4l1.3-6c0.1-0.2,0.1-0.5,0.2-0.8s0.1-0.5,0.1-0.8s0.1-0.5,0.1-0.8s0.1-0.5,0.1-0.7h1.4c0,0.2,0,0.4-0.1,0.6s0,0.4-0.1,0.6
				s0,0.4-0.1,0.5s0,0.3-0.1,0.3l0,0c0.2-0.3,0.4-0.6,0.6-0.9s0.4-0.5,0.6-0.7s0.4-0.3,0.7-0.4s0.5-0.2,0.8-0.2c0.2,0,0.3,0,0.5,0
				s0.3,0.1,0.4,0.1L180.6,23.1z M187,23.1L187,23.1c-0.2-0.1-0.3-0.1-0.5-0.2s-0.4-0.1-0.6-0.1c-0.3,0-0.7,0.1-1,0.3
				s-0.6,0.5-0.8,0.9s-0.5,0.8-0.7,1.2s-0.3,0.9-0.4,1.4l-0.8,3.9h-1.4l1.3-6c0.1-0.2,0.1-0.5,0.2-0.8s0.1-0.5,0.1-0.8
				s0.1-0.5,0.1-0.8s0.1-0.5,0.1-0.7h1.4c0,0.2,0,0.4-0.1,0.6s0,0.4-0.1,0.6s0,0.4-0.1,0.5s0,0.3-0.1,0.3l0,0
				c0.2-0.3,0.4-0.6,0.6-0.9s0.4-0.5,0.6-0.7s0.4-0.3,0.7-0.4s0.5-0.2,0.8-0.2c0.2,0,0.3,0,0.5,0s0.3,0.1,0.4,0.1L187,23.1z
				 M190.3,32.1c-0.3,0.4-0.5,0.8-0.8,1.2s-0.6,0.6-0.9,0.9s-0.6,0.4-1,0.5s-0.7,0.2-1.1,0.2c-0.1,0-0.3,0-0.5,0s-0.3-0.1-0.4-0.1
				l0.3-1.3c0.1,0,0.2,0.1,0.3,0.1s0.3,0,0.4,0c0.4,0,0.8-0.1,1.1-0.3s0.6-0.6,0.9-1l1.1-1.7l-1.6-9h1.5l1,6.9c0,0.1,0,0.3,0,0.4
				s0,0.2,0,0.3h0.1c0-0.1,0.1-0.2,0.1-0.3s0.1-0.3,0.2-0.4l4-6.9h1.6L190.3,32.1z M208.7,27.7c0,0.2-0.1,0.5-0.1,0.8
				s-0.1,0.6-0.1,0.8s-0.1,0.5-0.1,0.8s0,0.4,0,0.5h-1.5c0-0.1,0-0.3,0-0.4s0-0.3,0-0.5s0-0.3,0.1-0.5s0-0.3,0.1-0.4l0,0
				c-0.2,0.3-0.4,0.6-0.6,0.8s-0.4,0.5-0.6,0.7s-0.5,0.3-0.8,0.5s-0.6,0.2-1,0.2s-0.8-0.1-1.1-0.2s-0.6-0.4-0.8-0.6s-0.4-0.6-0.5-1
				s-0.2-0.9-0.2-1.5c0-0.3,0-0.7,0.1-1.2s0.2-0.9,0.4-1.3s0.4-0.9,0.7-1.3s0.6-0.8,1-1.2s0.9-0.6,1.5-0.8s1.2-0.3,2-0.3
				c0.5,0,1,0,1.5,0.1s1,0.2,1.5,0.3L208.7,27.7z M208.3,22.8c-0.2,0-0.4-0.1-0.7-0.1s-0.5-0.1-0.8-0.1c-0.5,0-1,0.1-1.3,0.2
				s-0.7,0.4-1,0.6s-0.5,0.6-0.7,0.9s-0.4,0.7-0.5,1s-0.2,0.7-0.3,1.1s-0.1,0.7-0.1,0.9c0,0.3,0,0.6,0.1,0.9s0.2,0.5,0.3,0.7
				s0.3,0.3,0.5,0.4s0.4,0.2,0.7,0.2s0.6-0.1,0.8-0.2s0.5-0.3,0.7-0.5s0.4-0.4,0.6-0.7s0.3-0.6,0.5-0.9s0.3-0.6,0.4-0.9
				s0.2-0.6,0.3-0.9L208.3,22.8z M222.9,29.9c-0.1,0.7-0.3,1.4-0.6,1.9s-0.6,1.1-1,1.5s-0.9,0.8-1.5,1s-1.3,0.4-2.1,0.4
				c-0.6,0-1.1-0.1-1.5-0.2s-0.8-0.3-1.2-0.5l0.3-1.3c0.4,0.2,0.8,0.4,1.2,0.6s0.9,0.2,1.3,0.2c0.5,0,1-0.1,1.4-0.2s0.7-0.4,1-0.7
				s0.5-0.7,0.7-1.1s0.3-0.9,0.5-1.5l0.3-1.4l0,0c-0.2,0.4-0.4,0.7-0.7,0.9s-0.4,0.5-0.7,0.7s-0.5,0.3-0.7,0.4s-0.5,0.1-0.9,0.1
				s-0.8-0.1-1.1-0.2s-0.6-0.4-0.8-0.6s-0.4-0.6-0.5-1.1s-0.2-0.9-0.2-1.5c0-0.5,0.1-1,0.2-1.5s0.3-1,0.5-1.4s0.5-0.9,0.8-1.2
				s0.7-0.7,1.1-1s0.8-0.5,1.3-0.6s1-0.2,1.5-0.2s1.1,0,1.6,0.1s1,0.1,1.5,0.2L222.9,29.9z M223,22.8c-0.2,0-0.4-0.1-0.7-0.1
				s-0.6-0.1-0.9-0.1c-0.6,0-1.1,0.1-1.5,0.4s-0.9,0.6-1.2,1s-0.6,0.9-0.8,1.5s-0.3,1.2-0.3,1.8c0,0.3,0,0.6,0.1,0.9
				s0.1,0.5,0.3,0.7s0.3,0.3,0.5,0.5s0.4,0.2,0.7,0.2s0.6-0.1,0.9-0.2s0.5-0.3,0.8-0.5s0.4-0.5,0.6-0.8s0.3-0.6,0.5-0.9
				s0.3-0.6,0.3-0.9s0.2-0.6,0.2-0.8L223,22.8z M231.9,23.1L231.9,23.1c-0.2-0.1-0.3-0.1-0.5-0.2s-0.4-0.1-0.6-0.1
				c-0.3,0-0.7,0.1-1,0.3s-0.6,0.5-0.8,0.9s-0.5,0.8-0.7,1.2s-0.3,0.9-0.4,1.4l-0.8,3.9h-1.4l1.3-6c0.1-0.2,0.1-0.5,0.2-0.8
				s0.1-0.5,0.1-0.8s0.1-0.5,0.1-0.8s0.1-0.5,0.1-0.7h1.4c0,0.2,0,0.4-0.1,0.6s0,0.4-0.1,0.6s0,0.4-0.1,0.5s0,0.3-0.1,0.3l0,0
				c0.2-0.3,0.4-0.6,0.6-0.9s0.4-0.5,0.6-0.7s0.4-0.3,0.7-0.4s0.5-0.2,0.8-0.2c0.2,0,0.3,0,0.5,0s0.3,0.1,0.4,0.1L231.9,23.1z
				 M240,23.7c0,0.5-0.1,0.9-0.3,1.3s-0.6,0.7-1,1s-1.1,0.5-1.9,0.6s-1.8,0.2-3,0.2c0,0.1,0,0.1,0,0.2v0.2c0,0.3,0,0.6,0.1,0.9
				s0.2,0.5,0.4,0.7s0.4,0.4,0.7,0.5s0.6,0.2,1,0.2s0.8-0.1,1.3-0.2s0.9-0.4,1.4-0.7l-0.3,1.4c-0.3,0.2-0.7,0.4-1.2,0.5
				s-0.9,0.2-1.5,0.2c-0.7,0-1.2-0.1-1.7-0.3s-0.8-0.5-1.1-0.8s-0.5-0.7-0.6-1.2s-0.2-0.9-0.2-1.4s0.1-1,0.2-1.5s0.3-0.9,0.5-1.4
				s0.5-0.8,0.8-1.2s0.6-0.6,1-0.9s0.8-0.4,1.2-0.6s0.8-0.2,1.3-0.2s0.9,0.1,1.2,0.2s0.7,0.3,0.9,0.5s0.4,0.5,0.5,0.7
				S240,23.4,240,23.7L240,23.7z M238.5,23.8c0-0.4-0.1-0.7-0.4-0.9s-0.6-0.3-1.1-0.3c-0.4,0-0.7,0.1-1,0.2s-0.6,0.4-0.9,0.6
				s-0.5,0.6-0.7,1s-0.4,0.8-0.4,1.2c0.8,0,1.5,0,2.1-0.1s1.1-0.2,1.4-0.4s0.6-0.4,0.8-0.6S238.5,24.1,238.5,23.8L238.5,23.8z
				 M248.3,27.7c0,0.2-0.1,0.5-0.1,0.8s-0.1,0.6-0.1,0.8s-0.1,0.5-0.1,0.8s0,0.4,0,0.5h-1.5c0-0.1,0-0.3,0-0.4s0-0.3,0-0.5
				s0-0.3,0.1-0.5s0-0.3,0.1-0.4l0,0c-0.2,0.3-0.4,0.6-0.6,0.8s-0.4,0.5-0.6,0.7s-0.5,0.3-0.8,0.5s-0.6,0.2-1,0.2s-0.8-0.1-1.1-0.2
				s-0.6-0.4-0.8-0.6s-0.4-0.6-0.5-1S241,28,241,27.5c0-0.3,0-0.7,0.1-1.2s0.2-0.9,0.4-1.3s0.4-0.9,0.7-1.3s0.6-0.8,1-1.2
				s0.9-0.6,1.5-0.8s1.2-0.3,2-0.3c0.5,0,1,0,1.5,0.1s1,0.2,1.5,0.3L248.3,27.7z M247.9,22.8c-0.2,0-0.4-0.1-0.7-0.1
				s-0.5-0.1-0.8-0.1c-0.5,0-1,0.1-1.3,0.2s-0.7,0.4-1,0.6s-0.5,0.6-0.7,0.9s-0.4,0.7-0.5,1s-0.2,0.7-0.3,1.1s-0.1,0.7-0.1,0.9
				c0,0.3,0,0.6,0.1,0.9s0.2,0.5,0.3,0.7s0.3,0.3,0.5,0.4s0.4,0.2,0.7,0.2s0.6-0.1,0.8-0.2s0.5-0.3,0.7-0.5s0.4-0.4,0.6-0.7
				s0.3-0.6,0.5-0.9s0.3-0.6,0.4-0.9s0.2-0.6,0.3-0.9L247.9,22.8z M256.2,22.8h-2.3l-1,4.8c0,0.2-0.1,0.4-0.1,0.6s-0.1,0.4-0.1,0.5
				c0,0.3,0.1,0.5,0.2,0.6s0.3,0.2,0.6,0.2c0.1,0,0.2,0,0.3,0s0.2-0.1,0.3-0.1s0.2-0.1,0.3-0.1s0.2-0.1,0.3-0.1l-0.3,1.3
				c-0.2,0.1-0.4,0.2-0.7,0.2s-0.5,0.1-0.7,0.1c-0.3,0-0.6,0-0.9-0.1s-0.4-0.2-0.6-0.4s-0.3-0.4-0.3-0.6s-0.1-0.5-0.1-0.8
				c0-0.2,0-0.4,0-0.6s0.1-0.4,0.1-0.6l1-4.9H251l0.3-1.2h1.5l0.5-2.2c0,0,0.1,0,0.3-0.1s0.3-0.1,0.5-0.1s0.4-0.1,0.5-0.2
				s0.2-0.1,0.3-0.1l-0.6,2.7h2.3L256.2,22.8z M269.9,24.7c0,0.4,0,0.9-0.1,1.3s-0.2,0.9-0.4,1.4s-0.4,0.9-0.7,1.3s-0.6,0.8-1,1.1
				s-0.8,0.6-1.3,0.7s-1,0.3-1.7,0.3c-0.3,0-0.7,0-1-0.1s-0.6-0.1-0.9-0.2l-0.9,4.3h-1.5l2.2-10.4c0-0.2,0.1-0.4,0.1-0.7
				s0.1-0.5,0.1-0.8s0-0.5,0.1-0.8s0-0.4,0-0.5h1.5c0,0.1,0,0.2,0,0.4s0,0.3-0.1,0.5s0,0.4-0.1,0.5s0,0.3-0.1,0.4l0,0
				c0.4-0.7,0.9-1.2,1.4-1.6s1.1-0.5,1.7-0.5c0.4,0,0.8,0.1,1.1,0.2s0.6,0.4,0.8,0.6s0.4,0.6,0.5,1.1S269.9,24.2,269.9,24.7
				L269.9,24.7z M268.5,24.8c0-0.3,0-0.6-0.1-0.9s-0.1-0.5-0.3-0.7s-0.3-0.3-0.5-0.5s-0.4-0.2-0.7-0.2c-0.3,0-0.6,0.1-0.9,0.2
				s-0.5,0.3-0.7,0.5s-0.4,0.5-0.6,0.7s-0.4,0.6-0.5,0.9s-0.3,0.6-0.4,0.9s-0.2,0.6-0.2,0.8l-0.6,2.6c0.1,0,0.2,0.1,0.4,0.1
				s0.3,0.1,0.5,0.1s0.3,0.1,0.5,0.1s0.3,0,0.5,0c0.4,0,0.8-0.1,1.1-0.2s0.7-0.3,0.9-0.5s0.5-0.5,0.7-0.8s0.4-0.6,0.5-1
				s0.2-0.7,0.3-1.1S268.5,25.2,268.5,24.8L268.5,24.8z M278.7,27.7c0,0.2-0.1,0.5-0.1,0.8s-0.1,0.6-0.1,0.8s-0.1,0.5-0.1,0.8
				s0,0.4,0,0.5h-1.5c0-0.1,0-0.3,0-0.4s0-0.3,0-0.5s0-0.3,0.1-0.5s0-0.3,0.1-0.4l0,0c-0.2,0.3-0.4,0.6-0.6,0.8s-0.4,0.5-0.6,0.7
				s-0.5,0.3-0.8,0.5s-0.6,0.2-1,0.2s-0.8-0.1-1.1-0.2s-0.6-0.4-0.8-0.6s-0.4-0.6-0.5-1s-0.2-0.9-0.2-1.5c0-0.3,0-0.7,0.1-1.2
				s0.2-0.9,0.4-1.3s0.4-0.9,0.7-1.3s0.6-0.8,1-1.2s0.9-0.6,1.5-0.8s1.2-0.3,2-0.3c0.5,0,1,0,1.5,0.1s1,0.2,1.5,0.3L278.7,27.7z
				 M278.3,22.8c-0.2,0-0.4-0.1-0.7-0.1s-0.5-0.1-0.8-0.1c-0.5,0-1,0.1-1.3,0.2s-0.7,0.4-1,0.6s-0.5,0.6-0.7,0.9s-0.4,0.7-0.5,1
				s-0.2,0.7-0.3,1.1s-0.1,0.7-0.1,0.9c0,0.3,0,0.6,0.1,0.9s0.2,0.5,0.3,0.7s0.3,0.3,0.5,0.4s0.4,0.2,0.7,0.2c0.3,0,0.6-0.1,0.8-0.2
				s0.5-0.3,0.7-0.5s0.4-0.4,0.6-0.7s0.3-0.6,0.5-0.9s0.3-0.6,0.4-0.9s0.2-0.6,0.3-0.9L278.3,22.8z M286.8,23.2
				c-0.3-0.2-0.6-0.3-0.9-0.4s-0.7-0.2-1-0.2c-0.6,0-1,0.1-1.3,0.4s-0.5,0.6-0.5,1c0,0.2,0,0.3,0.1,0.5s0.1,0.3,0.2,0.4
				s0.2,0.2,0.4,0.4s0.4,0.2,0.6,0.4c0.7,0.4,1.1,0.8,1.4,1.2s0.4,0.9,0.4,1.4c0,0.3-0.1,0.7-0.2,1s-0.3,0.6-0.6,0.9
				s-0.6,0.4-1.1,0.6s-1,0.2-1.6,0.2c-0.2,0-0.4,0-0.6,0s-0.4-0.1-0.6-0.1s-0.4-0.1-0.6-0.2s-0.4-0.1-0.5-0.2l0.3-1.4
				c0.1,0.1,0.3,0.2,0.4,0.2s0.4,0.2,0.6,0.2s0.4,0.1,0.6,0.2s0.4,0.1,0.7,0.1c0.6,0,1-0.1,1.3-0.4s0.4-0.6,0.4-1
				c0-0.2,0-0.3-0.1-0.4s-0.1-0.3-0.2-0.4s-0.3-0.3-0.4-0.4s-0.4-0.3-0.7-0.4c-0.6-0.4-1-0.7-1.3-1.1s-0.4-0.8-0.4-1.3
				c0-0.4,0.1-0.7,0.2-1s0.3-0.6,0.6-0.9s0.6-0.5,1-0.6s0.9-0.2,1.4-0.2c0.4,0,0.8,0,1.2,0.1s0.7,0.2,1,0.3L286.8,23.2z M293.9,23.2
				c-0.3-0.2-0.6-0.3-0.9-0.4s-0.7-0.2-1-0.2c-0.6,0-1,0.1-1.3,0.4s-0.5,0.6-0.5,1c0,0.2,0,0.3,0.1,0.5s0.1,0.3,0.2,0.4
				s0.2,0.2,0.4,0.4s0.4,0.2,0.6,0.4c0.7,0.4,1.1,0.8,1.4,1.2s0.4,0.9,0.4,1.4c0,0.3-0.1,0.7-0.2,1s-0.3,0.6-0.6,0.9
				s-0.6,0.4-1.1,0.6s-1,0.2-1.6,0.2c-0.2,0-0.4,0-0.6,0s-0.4-0.1-0.6-0.1s-0.4-0.1-0.6-0.2s-0.4-0.1-0.5-0.2l0.3-1.4
				c0.1,0.1,0.3,0.2,0.4,0.2s0.4,0.2,0.6,0.2s0.4,0.1,0.6,0.2s0.4,0.1,0.7,0.1c0.6,0,1-0.1,1.3-0.4s0.4-0.6,0.4-1
				c0-0.2,0-0.3-0.1-0.4s-0.1-0.3-0.2-0.4s-0.3-0.3-0.4-0.4s-0.4-0.3-0.7-0.4c-0.6-0.4-1-0.7-1.3-1.1s-0.4-0.8-0.4-1.3
				c0-0.4,0.1-0.7,0.2-1s0.3-0.6,0.6-0.9s0.6-0.5,1-0.6s0.9-0.2,1.4-0.2c0.4,0,0.8,0,1.2,0.1s0.7,0.2,1,0.3L293.9,23.2z M298.3,30.6
				c-0.1,0-0.3,0.1-0.5,0.1s-0.4,0-0.5,0c-0.6,0-1-0.1-1.3-0.4s-0.4-0.7-0.4-1.2c0-0.1,0-0.3,0-0.5s0.1-0.4,0.1-0.7l1.3-6.2h1.5
				l-1.3,6.3c-0.1,0.2-0.1,0.4-0.1,0.6s0,0.2,0,0.3c0,0.2,0.1,0.4,0.2,0.5s0.3,0.2,0.6,0.2c0.2,0,0.3,0,0.4,0s0.2,0,0.3-0.1
				L298.3,30.6z M299.4,18.4c0,0.3-0.1,0.5-0.3,0.7s-0.4,0.3-0.7,0.3c-0.3,0-0.5-0.1-0.7-0.3s-0.3-0.4-0.3-0.7s0.1-0.5,0.3-0.7
				s0.4-0.3,0.7-0.3s0.5,0.1,0.7,0.3S299.4,18.1,299.4,18.4L299.4,18.4z M308.3,24.9c0,0.8-0.1,1.6-0.3,2.3s-0.6,1.3-1,1.9
				s-0.9,1-1.5,1.3s-1.3,0.5-2.1,0.5c-0.5,0-1-0.1-1.4-0.2s-0.8-0.4-1.1-0.7s-0.5-0.7-0.7-1.1S300,28,300,27.4
				c0-0.8,0.1-1.6,0.4-2.3s0.6-1.3,1-1.9s0.9-0.9,1.5-1.2s1.3-0.5,2-0.5c0.5,0,1,0.1,1.4,0.2s0.8,0.4,1.1,0.7s0.5,0.7,0.7,1.1
				S308.3,24.4,308.3,24.9L308.3,24.9z M306.8,25c0-0.4,0-0.7-0.1-1s-0.2-0.5-0.4-0.7s-0.4-0.4-0.6-0.5s-0.5-0.2-0.8-0.2
				c-0.5,0-1,0.1-1.4,0.4s-0.8,0.6-1.1,1s-0.5,0.9-0.7,1.5s-0.2,1.1-0.2,1.7c0,0.4,0,0.7,0.1,1s0.2,0.5,0.4,0.8s0.4,0.4,0.6,0.5
				s0.5,0.2,0.8,0.2c0.5,0,1-0.1,1.4-0.4s0.8-0.6,1.1-1s0.5-0.9,0.7-1.5S306.8,25.6,306.8,25L306.8,25z M318.2,23.8
				c0,0.1,0,0.2,0,0.4s0,0.3-0.1,0.5S318,25,318,25.2s-0.1,0.3-0.1,0.4l-1,4.9h-1.5l1.1-5.3c0-0.1,0-0.2,0.1-0.3s0-0.2,0.1-0.4
				s0-0.2,0-0.3s0-0.2,0-0.2c0-0.4-0.1-0.8-0.3-1.1s-0.5-0.4-1-0.4c-0.4,0-0.8,0.1-1.2,0.3s-0.7,0.5-1.1,0.9s-0.6,0.7-0.8,1.2
				s-0.4,0.8-0.5,1.2l-0.9,4.4h-1.5l1.4-6.4c0-0.2,0.1-0.5,0.1-0.7s0.1-0.5,0.1-0.7s0.1-0.4,0.1-0.6s0.1-0.4,0.1-0.5h1.4
				c0,0.2-0.1,0.5-0.1,0.7s-0.1,0.5-0.1,0.7s-0.1,0.5-0.1,0.7l0,0c0.2-0.3,0.4-0.6,0.7-0.9s0.5-0.5,0.8-0.7s0.6-0.4,0.9-0.5
				s0.7-0.2,1-0.2c0.4,0,0.7,0.1,1,0.2s0.5,0.3,0.7,0.5s0.3,0.5,0.4,0.8S318.2,23.5,318.2,23.8L318.2,23.8z M331.3,18.5
				c-0.1,0-0.1-0.1-0.2-0.1s-0.2-0.1-0.3-0.1s-0.2,0-0.3-0.1s-0.2,0-0.3,0c-0.5,0-0.9,0.2-1.1,0.5s-0.5,0.8-0.6,1.4l-0.3,1.4h2.1
				l-0.3,1.2h-2.1l-2.3,10.8h-1.5l2.3-10.8h-1.5l0.3-1.2h1.5l0.4-1.7c0.1-0.5,0.3-1,0.5-1.3s0.4-0.7,0.7-0.9s0.6-0.4,0.9-0.5
				s0.7-0.2,1.1-0.2c0.2,0,0.4,0,0.6,0.1s0.4,0.1,0.5,0.1L331.3,18.5z M338.3,24.9c0,0.8-0.1,1.6-0.3,2.3s-0.6,1.3-1,1.9
				s-0.9,1-1.5,1.3s-1.3,0.5-2.1,0.5c-0.5,0-1-0.1-1.4-0.2s-0.8-0.4-1.1-0.7s-0.5-0.7-0.7-1.1S330,28,330,27.4
				c0-0.8,0.1-1.6,0.4-2.3s0.6-1.3,1-1.9s0.9-0.9,1.5-1.2s1.3-0.5,2-0.5c0.5,0,1,0.1,1.4,0.2s0.8,0.4,1.1,0.7s0.5,0.7,0.7,1.1
				S338.3,24.4,338.3,24.9L338.3,24.9z M336.8,25c0-0.4,0-0.7-0.1-1s-0.2-0.5-0.4-0.7s-0.4-0.4-0.6-0.5s-0.5-0.2-0.8-0.2
				c-0.5,0-1,0.1-1.4,0.4s-0.8,0.6-1.1,1s-0.5,0.9-0.7,1.5s-0.2,1.1-0.2,1.7c0,0.4,0,0.7,0.1,1s0.2,0.5,0.4,0.8s0.4,0.4,0.6,0.5
				s0.5,0.2,0.8,0.2c0.5,0,1-0.1,1.4-0.4s0.8-0.6,1.1-1s0.5-0.9,0.7-1.5S336.8,25.6,336.8,25L336.8,25z M345.7,23.1L345.7,23.1
				c-0.2-0.1-0.3-0.1-0.5-0.2s-0.4-0.1-0.6-0.1c-0.3,0-0.7,0.1-1,0.3s-0.6,0.5-0.8,0.9s-0.5,0.8-0.7,1.2s-0.3,0.9-0.4,1.4l-0.8,3.9
				h-1.4l1.3-6c0.1-0.2,0.1-0.5,0.2-0.8s0.1-0.5,0.1-0.8s0.1-0.5,0.1-0.8s0.1-0.5,0.1-0.7h1.4c0,0.2,0,0.4-0.1,0.6s0,0.4-0.1,0.6
				s0,0.4-0.1,0.5s0,0.3-0.1,0.3l0,0c0.2-0.3,0.4-0.6,0.6-0.9s0.4-0.5,0.6-0.7s0.4-0.3,0.7-0.4s0.5-0.2,0.8-0.2c0.2,0,0.3,0,0.5,0
				s0.3,0.1,0.4,0.1L345.7,23.1z M358.5,28c-0.1,0.2-0.1,0.5-0.1,0.7s-0.1,0.5-0.1,0.7s-0.1,0.4-0.1,0.6s-0.1,0.4-0.1,0.5h-1.4
				c0-0.2,0.1-0.5,0.1-0.7s0.1-0.5,0.1-0.7s0.1-0.5,0.1-0.7l0,0c-0.2,0.3-0.4,0.6-0.7,0.9s-0.5,0.5-0.8,0.7s-0.6,0.4-0.9,0.5
				s-0.7,0.2-1,0.2c-0.4,0-0.7-0.1-1-0.2s-0.5-0.3-0.7-0.5s-0.3-0.5-0.4-0.8s-0.1-0.6-0.1-1c0-0.1,0-0.2,0-0.3s0-0.3,0.1-0.5
				s0.1-0.4,0.1-0.5s0.1-0.3,0.1-0.4l1-4.9h1.5l-1.1,5.3c0,0.1,0,0.2-0.1,0.3s0,0.2-0.1,0.4s0,0.2,0,0.3s0,0.2,0,0.2
				c0,0.4,0.1,0.8,0.3,1.1s0.5,0.4,1,0.4c0.3,0,0.5-0.1,0.8-0.2s0.5-0.2,0.8-0.4s0.5-0.4,0.7-0.6s0.4-0.5,0.6-0.8s0.3-0.5,0.4-0.8
				s0.2-0.6,0.3-0.8l0.9-4.4h1.5L358.5,28z M366.7,23.2c-0.3-0.2-0.6-0.3-0.9-0.4s-0.7-0.2-1-0.2c-0.6,0-1,0.1-1.3,0.4
				s-0.5,0.6-0.5,1c0,0.2,0,0.3,0.1,0.5s0.1,0.3,0.2,0.4s0.2,0.2,0.4,0.4s0.4,0.2,0.6,0.4c0.7,0.4,1.1,0.8,1.4,1.2s0.4,0.9,0.4,1.4
				c0,0.3-0.1,0.7-0.2,1s-0.3,0.6-0.6,0.9s-0.6,0.4-1.1,0.6s-1,0.2-1.6,0.2c-0.2,0-0.4,0-0.6,0s-0.4-0.1-0.6-0.1s-0.4-0.1-0.6-0.2
				s-0.4-0.1-0.5-0.2l0.3-1.4c0.1,0.1,0.3,0.2,0.4,0.2s0.4,0.2,0.6,0.2s0.4,0.1,0.6,0.2s0.4,0.1,0.7,0.1c0.6,0,1-0.1,1.3-0.4
				s0.4-0.6,0.4-1c0-0.2,0-0.3-0.1-0.4s-0.1-0.3-0.2-0.4s-0.3-0.3-0.4-0.4s-0.4-0.3-0.7-0.4c-0.6-0.4-1-0.7-1.3-1.1
				s-0.4-0.8-0.4-1.3c0-0.4,0.1-0.7,0.2-1s0.3-0.6,0.6-0.9s0.6-0.5,1-0.6s0.9-0.2,1.4-0.2c0.4,0,0.8,0,1.2,0.1s0.7,0.2,1,0.3
				L366.7,23.2z M375.7,23.7c0,0.5-0.1,0.9-0.3,1.3s-0.6,0.7-1,1s-1.1,0.5-1.9,0.6s-1.8,0.2-3,0.2c0,0.1,0,0.1,0,0.2v0.2
				c0,0.3,0,0.6,0.1,0.9s0.2,0.5,0.4,0.7s0.4,0.4,0.7,0.5s0.6,0.2,1,0.2s0.8-0.1,1.3-0.2s0.9-0.4,1.4-0.7l-0.3,1.4
				c-0.3,0.2-0.7,0.4-1.2,0.5s-0.9,0.2-1.5,0.2c-0.7,0-1.2-0.1-1.7-0.3s-0.8-0.5-1.1-0.8s-0.5-0.7-0.6-1.2s-0.2-0.9-0.2-1.4
				s0.1-1,0.2-1.5s0.3-0.9,0.5-1.4s0.5-0.8,0.8-1.2s0.6-0.6,1-0.9s0.8-0.4,1.2-0.6s0.8-0.2,1.3-0.2s0.9,0.1,1.2,0.2s0.7,0.3,0.9,0.5
				s0.4,0.5,0.5,0.7S375.7,23.4,375.7,23.7L375.7,23.7z M374.3,23.8c0-0.4-0.1-0.7-0.4-0.9s-0.6-0.3-1.1-0.3c-0.4,0-0.7,0.1-1,0.2
				s-0.6,0.4-0.9,0.6s-0.5,0.6-0.7,1s-0.4,0.8-0.4,1.2c0.8,0,1.5,0,2.1-0.1s1.1-0.2,1.4-0.4s0.6-0.4,0.8-0.6S374.3,24.1,374.3,23.8
				L374.3,23.8z M382.8,23.1L382.8,23.1c-0.2-0.1-0.3-0.1-0.5-0.2s-0.4-0.1-0.6-0.1c-0.3,0-0.7,0.1-1,0.3s-0.6,0.5-0.8,0.9
				s-0.5,0.8-0.7,1.2s-0.3,0.9-0.4,1.4l-0.8,3.9h-1.4l1.3-6c0.1-0.2,0.1-0.5,0.2-0.8s0.1-0.5,0.1-0.8s0.1-0.5,0.1-0.8
				s0.1-0.5,0.1-0.7h1.4c0,0.2,0,0.4-0.1,0.6s0,0.4-0.1,0.6s0,0.4-0.1,0.5s0,0.3-0.1,0.3l0,0c0.2-0.3,0.4-0.6,0.6-0.9
				s0.4-0.5,0.6-0.7s0.4-0.3,0.7-0.4s0.5-0.2,0.8-0.2c0.2,0,0.3,0,0.5,0s0.3,0.1,0.4,0.1L382.8,23.1z M395.8,23.7
				c0,0.5-0.1,0.9-0.3,1.3s-0.6,0.7-1,1s-1.1,0.5-1.9,0.6s-1.8,0.2-3,0.2c0,0.1,0,0.1,0,0.2v0.2c0,0.3,0,0.6,0.1,0.9
				s0.2,0.5,0.4,0.7s0.4,0.4,0.7,0.5s0.6,0.2,1,0.2s0.8-0.1,1.3-0.2s0.9-0.4,1.4-0.7l-0.3,1.4c-0.3,0.2-0.7,0.4-1.2,0.5
				s-0.9,0.2-1.5,0.2c-0.7,0-1.2-0.1-1.7-0.3s-0.8-0.5-1.1-0.8s-0.5-0.7-0.6-1.2s-0.2-0.9-0.2-1.4s0.1-1,0.2-1.5s0.3-0.9,0.5-1.4
				s0.5-0.8,0.8-1.2s0.6-0.6,1-0.9s0.8-0.4,1.2-0.6s0.8-0.2,1.3-0.2s0.9,0.1,1.2,0.2s0.7,0.3,0.9,0.5s0.4,0.5,0.5,0.7
				S395.8,23.4,395.8,23.7L395.8,23.7z M394.4,23.8c0-0.4-0.1-0.7-0.4-0.9s-0.6-0.3-1.1-0.3c-0.4,0-0.7,0.1-1,0.2s-0.6,0.4-0.9,0.6
				s-0.5,0.6-0.7,1s-0.4,0.8-0.4,1.2c0.8,0,1.5,0,2.1-0.1s1.1-0.2,1.4-0.4s0.6-0.4,0.8-0.6S394.4,24.1,394.4,23.8L394.4,23.8z
				 M401.1,26.2l2.1,4.4h-1.6l-1.1-2.8c0-0.1-0.1-0.2-0.1-0.4s-0.1-0.3-0.2-0.4l0,0c0,0.1-0.1,0.1-0.1,0.2s-0.1,0.1-0.2,0.2
				s-0.1,0.1-0.2,0.2s-0.1,0.1-0.1,0.2l-2.4,2.8h-1.7l4.1-4.5l-2-4.5h1.6l1.1,2.9c0.1,0.1,0.1,0.3,0.2,0.5s0.1,0.3,0.1,0.4l0,0
				c0,0,0.1-0.1,0.1-0.2s0.1-0.1,0.1-0.2s0.1-0.1,0.2-0.2s0.1-0.1,0.2-0.2l2.4-3h1.6L401.1,26.2z M413.4,24.7c0,0.4,0,0.9-0.1,1.3
				s-0.2,0.9-0.4,1.4s-0.4,0.9-0.7,1.3s-0.6,0.8-1,1.1s-0.8,0.6-1.3,0.7s-1,0.3-1.7,0.3c-0.3,0-0.7,0-1-0.1s-0.6-0.1-0.9-0.2
				l-0.9,4.3h-1.5l2.2-10.4c0-0.2,0.1-0.4,0.1-0.7s0.1-0.5,0.1-0.8s0-0.5,0.1-0.8s0-0.4,0-0.5h1.5c0,0.1,0,0.2,0,0.4s0,0.3-0.1,0.5
				s0,0.4-0.1,0.5s0,0.3-0.1,0.4l0,0c0.4-0.7,0.9-1.2,1.4-1.6s1.1-0.5,1.7-0.5c0.4,0,0.8,0.1,1.1,0.2s0.6,0.4,0.8,0.6
				s0.4,0.6,0.5,1.1S413.4,24.2,413.4,24.7L413.4,24.7z M412,24.8c0-0.3,0-0.6-0.1-0.9s-0.1-0.5-0.3-0.7s-0.3-0.3-0.5-0.5
				s-0.4-0.2-0.7-0.2c-0.3,0-0.6,0.1-0.9,0.2s-0.5,0.3-0.7,0.5s-0.4,0.5-0.6,0.7s-0.4,0.6-0.5,0.9s-0.3,0.6-0.4,0.9
				s-0.2,0.6-0.2,0.8l-0.6,2.6c0.1,0,0.2,0.1,0.4,0.1s0.3,0.1,0.5,0.1s0.3,0.1,0.5,0.1s0.3,0,0.5,0c0.4,0,0.8-0.1,1.1-0.2
				s0.7-0.3,0.9-0.5s0.5-0.5,0.7-0.8s0.4-0.6,0.5-1s0.2-0.7,0.3-1.1S412,25.2,412,24.8L412,24.8z M422.5,23.7c0,0.5-0.1,0.9-0.3,1.3
				s-0.6,0.7-1,1s-1.1,0.5-1.9,0.6s-1.8,0.2-3,0.2c0,0.1,0,0.1,0,0.2v0.2c0,0.3,0,0.6,0.1,0.9s0.2,0.5,0.4,0.7s0.4,0.4,0.7,0.5
				s0.6,0.2,1,0.2s0.8-0.1,1.3-0.2s0.9-0.4,1.4-0.7l-0.3,1.4c-0.3,0.2-0.7,0.4-1.2,0.5s-0.9,0.2-1.5,0.2c-0.7,0-1.2-0.1-1.7-0.3
				s-0.8-0.5-1.1-0.8s-0.5-0.7-0.6-1.2s-0.2-0.9-0.2-1.4s0.1-1,0.2-1.5s0.3-0.9,0.5-1.4s0.5-0.8,0.8-1.2s0.6-0.6,1-0.9
				s0.8-0.4,1.2-0.6s0.8-0.2,1.3-0.2s0.9,0.1,1.2,0.2s0.7,0.3,0.9,0.5s0.4,0.5,0.5,0.7S422.5,23.4,422.5,23.7L422.5,23.7z
				 M421.1,23.8c0-0.4-0.1-0.7-0.4-0.9s-0.6-0.3-1.1-0.3c-0.4,0-0.7,0.1-1,0.2s-0.6,0.4-0.9,0.6s-0.5,0.6-0.7,1s-0.4,0.8-0.4,1.2
				c0.8,0,1.5,0,2.1-0.1s1.1-0.2,1.4-0.4s0.6-0.4,0.8-0.6S421.1,24.1,421.1,23.8L421.1,23.8z M429.6,23.1L429.6,23.1
				c-0.2-0.1-0.3-0.1-0.5-0.2s-0.4-0.1-0.6-0.1c-0.3,0-0.7,0.1-1,0.3s-0.6,0.5-0.8,0.9s-0.5,0.8-0.7,1.2s-0.3,0.9-0.4,1.4l-0.8,3.9
				h-1.4l1.3-6c0.1-0.2,0.1-0.5,0.2-0.8s0.1-0.5,0.1-0.8s0.1-0.5,0.1-0.8s0.1-0.5,0.1-0.7h1.4c0,0.2,0,0.4-0.1,0.6s0,0.4-0.1,0.6
				s0,0.4-0.1,0.5s0,0.3-0.1,0.3l0,0c0.2-0.3,0.4-0.6,0.6-0.9s0.4-0.5,0.6-0.7s0.4-0.3,0.7-0.4s0.5-0.2,0.8-0.2c0.2,0,0.3,0,0.5,0
				s0.3,0.1,0.4,0.1L429.6,23.1z M432.9,30.6c-0.1,0-0.3,0.1-0.5,0.1s-0.4,0-0.5,0c-0.6,0-1-0.1-1.3-0.4s-0.4-0.7-0.4-1.2
				c0-0.1,0-0.3,0-0.5s0.1-0.4,0.1-0.7l1.3-6.2h1.5l-1.3,6.3c-0.1,0.2-0.1,0.4-0.1,0.6s0,0.2,0,0.3c0,0.2,0.1,0.4,0.2,0.5
				s0.3,0.2,0.6,0.2c0.2,0,0.3,0,0.4,0s0.2,0,0.3-0.1L432.9,30.6z M434,18.4c0,0.3-0.1,0.5-0.3,0.7s-0.4,0.3-0.7,0.3
				c-0.3,0-0.5-0.1-0.7-0.3s-0.3-0.4-0.3-0.7s0.1-0.5,0.3-0.7s0.4-0.3,0.7-0.3s0.5,0.1,0.7,0.3S434,18.1,434,18.4L434,18.4z
				 M442.4,23.7c0,0.5-0.1,0.9-0.3,1.3s-0.6,0.7-1,1s-1.1,0.5-1.9,0.6s-1.8,0.2-3,0.2c0,0.1,0,0.1,0,0.2v0.2c0,0.3,0,0.6,0.1,0.9
				s0.2,0.5,0.4,0.7s0.4,0.4,0.7,0.5s0.6,0.2,1,0.2s0.8-0.1,1.3-0.2s0.9-0.4,1.4-0.7l-0.3,1.4c-0.3,0.2-0.7,0.4-1.2,0.5
				s-0.9,0.2-1.5,0.2c-0.7,0-1.2-0.1-1.7-0.3s-0.8-0.5-1.1-0.8s-0.5-0.7-0.6-1.2s-0.2-0.9-0.2-1.4s0.1-1,0.2-1.5s0.3-0.9,0.5-1.4
				s0.5-0.8,0.8-1.2s0.6-0.6,1-0.9s0.8-0.4,1.2-0.6s0.8-0.2,1.3-0.2s0.9,0.1,1.2,0.2s0.7,0.3,0.9,0.5s0.4,0.5,0.5,0.7
				S442.4,23.4,442.4,23.7L442.4,23.7z M440.9,23.8c0-0.4-0.1-0.7-0.4-0.9s-0.6-0.3-1.1-0.3c-0.4,0-0.7,0.1-1,0.2s-0.6,0.4-0.9,0.6
				s-0.5,0.6-0.7,1s-0.4,0.8-0.4,1.2c0.8,0,1.5,0,2.1-0.1s1.1-0.2,1.4-0.4s0.6-0.4,0.8-0.6S440.9,24.1,440.9,23.8L440.9,23.8z
				 M451.9,23.8c0,0.1,0,0.2,0,0.4s0,0.3-0.1,0.5s-0.1,0.4-0.1,0.5s-0.1,0.3-0.1,0.4l-1,4.9h-1.5l1.1-5.3c0-0.1,0-0.2,0.1-0.3
				s0-0.2,0.1-0.4s0-0.2,0-0.3s0-0.2,0-0.2c0-0.4-0.1-0.8-0.3-1.1s-0.5-0.4-1-0.4c-0.4,0-0.8,0.1-1.2,0.3s-0.7,0.5-1.1,0.9
				s-0.6,0.7-0.8,1.2s-0.4,0.8-0.5,1.2l-0.9,4.4h-1.5l1.4-6.4c0-0.2,0.1-0.5,0.1-0.7s0.1-0.5,0.1-0.7s0.1-0.4,0.1-0.6
				s0.1-0.4,0.1-0.5h1.4c0,0.2-0.1,0.5-0.1,0.7s-0.1,0.5-0.1,0.7s-0.1,0.5-0.1,0.7l0,0c0.2-0.3,0.4-0.6,0.7-0.9s0.5-0.5,0.8-0.7
				s0.6-0.4,0.9-0.5s0.7-0.2,1-0.2c0.4,0,0.7,0.1,1,0.2s0.5,0.3,0.7,0.5s0.3,0.5,0.4,0.8S451.9,23.5,451.9,23.8L451.9,23.8z
				 M460.4,23.4c-0.2-0.2-0.5-0.4-0.9-0.5s-0.7-0.2-1.2-0.2c-0.4,0-0.8,0.1-1.1,0.2s-0.6,0.3-0.9,0.6s-0.5,0.5-0.7,0.8
				s-0.3,0.6-0.4,0.9s-0.2,0.7-0.3,1s0.1,0.5,0.1,0.8c0,0.8,0.2,1.5,0.6,1.9s0.9,0.7,1.5,0.7c0.4,0,0.8-0.1,1.2-0.2s0.8-0.4,1.2-0.6
				l-0.3,1.4c-0.4,0.2-0.8,0.4-1.1,0.5s-0.8,0.2-1.2,0.2c-0.6,0-1-0.1-1.4-0.3s-0.7-0.4-1-0.8s-0.5-0.7-0.6-1.2s-0.2-0.9-0.2-1.5
				c0-0.5,0-1,0.1-1.5s0.2-0.9,0.4-1.4s0.4-0.8,0.7-1.2s0.6-0.7,1-0.9s0.8-0.5,1.2-0.6s1-0.2,1.5-0.2c0.3,0,0.5,0,0.7,0.1
				s0.4,0.1,0.6,0.1s0.4,0.1,0.5,0.2s0.3,0.1,0.4,0.2L460.4,23.4z M468.9,23.7c0,0.5-0.1,0.9-0.3,1.3s-0.6,0.7-1,1s-1.1,0.5-1.9,0.6
				s-1.8,0.2-3,0.2c0,0.1,0,0.1,0,0.2v0.2c0,0.3,0,0.6,0.1,0.9s0.2,0.5,0.4,0.7s0.4,0.4,0.7,0.5s0.6,0.2,1,0.2s0.8-0.1,1.3-0.2
				s0.9-0.4,1.4-0.7l-0.3,1.4c-0.3,0.2-0.7,0.4-1.2,0.5s-0.9,0.2-1.5,0.2c-0.7,0-1.2-0.1-1.7-0.3s-0.8-0.5-1.1-0.8s-0.5-0.7-0.6-1.2
				S461,27.5,461,27s0.1-1,0.2-1.5s0.3-0.9,0.5-1.4s0.5-0.8,0.8-1.2s0.6-0.6,1-0.9s0.8-0.4,1.2-0.6s0.8-0.2,1.3-0.2s0.9,0.1,1.2,0.2
				s0.7,0.3,0.9,0.5s0.4,0.5,0.5,0.7S468.9,23.4,468.9,23.7L468.9,23.7z M467.4,23.8c0-0.4-0.1-0.7-0.4-0.9s-0.6-0.3-1.1-0.3
				c-0.4,0-0.7,0.1-1,0.2s-0.6,0.4-0.9,0.6s-0.5,0.6-0.7,1s-0.4,0.8-0.4,1.2c0.8,0,1.5,0,2.1-0.1s1.1-0.2,1.4-0.4s0.6-0.4,0.8-0.6
				S467.4,24.1,467.4,23.8L467.4,23.8z M154.5,55.7c0,0.2-0.1,0.5-0.1,0.8s-0.1,0.6-0.1,0.8s-0.1,0.5-0.1,0.8s0,0.4,0,0.5h-1.5
				c0-0.1,0-0.3,0-0.4s0-0.3,0-0.5s0-0.3,0.1-0.5s0-0.3,0.1-0.4l0,0c-0.2,0.3-0.4,0.6-0.6,0.8s-0.4,0.5-0.6,0.7s-0.5,0.3-0.8,0.5
				s-0.6,0.2-1,0.2s-0.8-0.1-1.1-0.2s-0.6-0.4-0.8-0.6s-0.4-0.6-0.5-1s-0.2-0.9-0.2-1.5c0-0.3,0-0.7,0.1-1.2s0.2-0.9,0.4-1.3
				s0.4-0.9,0.7-1.3s0.6-0.8,1-1.2s0.9-0.6,1.5-0.8s1.2-0.3,2-0.3c0.5,0,1,0,1.5,0.1s1,0.2,1.5,0.3L154.5,55.7z M154.1,50.8
				c-0.2,0-0.4-0.1-0.7-0.1s-0.5-0.1-0.8-0.1c-0.5,0-1,0.1-1.3,0.2s-0.7,0.4-1,0.6s-0.5,0.6-0.7,0.9s-0.4,0.7-0.5,1
				s-0.2,0.7-0.3,1.1s-0.1,0.7-0.1,0.9c0,0.3,0,0.6,0.1,0.9s0.2,0.5,0.3,0.7s0.3,0.3,0.5,0.4s0.4,0.2,0.7,0.2s0.6-0.1,0.8-0.2
				s0.5-0.3,0.7-0.5s0.4-0.4,0.6-0.7s0.3-0.6,0.5-0.9s0.3-0.6,0.4-0.9s0.2-0.6,0.3-0.9L154.1,50.8z M165.5,51.8c0,0.1,0,0.2,0,0.4
				s0,0.3-0.1,0.5s-0.1,0.4-0.1,0.5s-0.1,0.3-0.1,0.4l-1,4.9h-1.5l1.1-5.3c0-0.1,0-0.2,0.1-0.3s0-0.2,0.1-0.4s0-0.2,0-0.3
				s0-0.2,0-0.2c0-0.4-0.1-0.8-0.3-1.1s-0.5-0.4-1-0.4c-0.4,0-0.8,0.1-1.2,0.3s-0.7,0.5-1.1,0.9s-0.6,0.7-0.8,1.2s-0.4,0.8-0.5,1.2
				l-0.9,4.4h-1.5l1.4-6.4c0-0.2,0.1-0.5,0.1-0.7s0.1-0.5,0.1-0.7s0.1-0.4,0.1-0.6s0.1-0.4,0.1-0.5h1.4c0,0.2-0.1,0.5-0.1,0.7
				s-0.1,0.5-0.1,0.7s-0.1,0.5-0.1,0.7l0,0c0.2-0.3,0.4-0.6,0.7-0.9s0.5-0.5,0.8-0.7s0.6-0.4,0.9-0.5s0.7-0.2,1-0.2
				c0.4,0,0.7,0.1,1,0.2s0.5,0.3,0.7,0.5s0.3,0.5,0.4,0.8S165.5,51.5,165.5,51.8L165.5,51.8z M174.4,55.8c0,0.2-0.1,0.4-0.1,0.7
				s-0.1,0.5-0.1,0.8s-0.1,0.5-0.1,0.8s0,0.4,0,0.5h-1.5c0-0.1,0-0.2,0-0.4s0-0.3,0.1-0.5s0-0.4,0.1-0.5s0-0.3,0.1-0.4l0,0
				c-0.2,0.3-0.4,0.6-0.6,0.9s-0.4,0.5-0.7,0.7s-0.5,0.3-0.7,0.4s-0.6,0.1-0.9,0.1c-0.4,0-0.8-0.1-1.1-0.2s-0.6-0.4-0.8-0.6
				s-0.4-0.6-0.5-1.1s-0.2-0.9-0.2-1.4c0-0.4,0-0.9,0.1-1.4s0.2-0.9,0.4-1.4s0.4-0.9,0.7-1.3s0.6-0.8,1-1.1s0.9-0.5,1.4-0.7
				s1.1-0.3,1.7-0.3c0.3,0,0.6,0,0.9,0.1s0.5,0.1,0.7,0.1l0.9-4.3h1.4L174.4,55.8z M174,50.8c-0.2-0.1-0.5-0.1-0.7-0.2
				s-0.5-0.1-0.8-0.1c-0.5,0-1,0.1-1.3,0.2s-0.7,0.4-1,0.6s-0.5,0.6-0.7,0.9s-0.4,0.7-0.5,1s-0.2,0.7-0.3,1s-0.1,0.7-0.1,0.9
				c0,0.3,0,0.6,0.1,0.9s0.1,0.5,0.3,0.7s0.3,0.3,0.5,0.4s0.4,0.2,0.7,0.2s0.6-0.1,0.8-0.2s0.5-0.3,0.7-0.5s0.4-0.5,0.6-0.7
				s0.3-0.6,0.5-0.9s0.3-0.6,0.4-0.9s0.2-0.6,0.3-0.9L174,50.8z M185,58.6h-1.2l-1.4-9h1.5l0.8,5.7c0,0.1,0,0.2,0,0.4s0,0.3,0,0.4
				s0,0.3,0,0.4s0,0.3,0,0.4l0,0c0-0.1,0.1-0.2,0.2-0.4s0.1-0.3,0.2-0.4s0.2-0.3,0.2-0.4s0.2-0.3,0.2-0.4l3.2-5.7h1.6L185,58.6z
				 M193.3,58.6c-0.1,0-0.3,0.1-0.5,0.1s-0.4,0-0.5,0c-0.6,0-1-0.1-1.3-0.4s-0.4-0.7-0.4-1.2c0-0.1,0-0.3,0-0.5s0.1-0.4,0.1-0.7
				l1.3-6.2h1.5l-1.3,6.3c-0.1,0.2-0.1,0.4-0.1,0.6s0,0.2,0,0.3c0,0.2,0.1,0.4,0.2,0.5s0.3,0.2,0.6,0.2c0.2,0,0.3,0,0.4,0
				s0.2,0,0.3-0.1L193.3,58.6z M194.4,46.4c0,0.3-0.1,0.5-0.3,0.7s-0.4,0.3-0.7,0.3s-0.5-0.1-0.7-0.3s-0.3-0.4-0.3-0.7
				s0.1-0.5,0.3-0.7s0.4-0.3,0.7-0.3s0.5,0.1,0.7,0.3S194.4,46.1,194.4,46.4L194.4,46.4z M200.7,51.2c-0.3-0.2-0.6-0.3-0.9-0.4
				s-0.7-0.2-1-0.2c-0.6,0-1,0.1-1.3,0.4s-0.5,0.6-0.5,1c0,0.2,0,0.3,0.1,0.5s0.1,0.3,0.2,0.4s0.2,0.2,0.4,0.4s0.4,0.2,0.6,0.4
				c0.7,0.4,1.1,0.8,1.4,1.2s0.4,0.9,0.4,1.4c0,0.3-0.1,0.7-0.2,1s-0.3,0.6-0.6,0.9s-0.6,0.4-1.1,0.6s-1,0.2-1.6,0.2
				c-0.2,0-0.4,0-0.6,0s-0.4-0.1-0.6-0.1s-0.4-0.1-0.6-0.2s-0.4-0.1-0.5-0.2l0.3-1.4c0.1,0.1,0.3,0.2,0.4,0.2s0.4,0.2,0.6,0.2
				s0.4,0.1,0.6,0.2s0.4,0.1,0.7,0.1c0.6,0,1-0.1,1.3-0.4s0.4-0.6,0.4-1c0-0.2,0-0.3-0.1-0.4s-0.1-0.3-0.2-0.4s-0.3-0.3-0.4-0.4
				s-0.4-0.3-0.7-0.4c-0.6-0.4-1-0.7-1.3-1.1s-0.4-0.8-0.4-1.3c0-0.4,0.1-0.7,0.2-1s0.3-0.6,0.6-0.9s0.6-0.5,1-0.6s0.9-0.2,1.4-0.2
				c0.4,0,0.8,0,1.2,0.1s0.7,0.2,1,0.3L200.7,51.2z M209.6,56c-0.1,0.2-0.1,0.5-0.1,0.7s-0.1,0.5-0.1,0.7s-0.1,0.4-0.1,0.6
				s-0.1,0.4-0.1,0.5h-1.4c0-0.2,0.1-0.5,0.1-0.7s0.1-0.5,0.1-0.7s0.1-0.5,0.1-0.7l0,0c-0.2,0.3-0.4,0.6-0.7,0.9s-0.5,0.5-0.8,0.7
				s-0.6,0.4-0.9,0.5s-0.7,0.2-1,0.2c-0.4,0-0.7-0.1-1-0.2s-0.5-0.3-0.7-0.5s-0.3-0.5-0.4-0.8s-0.1-0.6-0.1-1c0-0.1,0-0.2,0-0.3
				s0-0.3,0.1-0.5s0.1-0.4,0.1-0.5s0.1-0.3,0.1-0.4l1-4.9h1.5l-1.1,5.3c0,0.1,0,0.2-0.1,0.3s0,0.2-0.1,0.4s0,0.2,0,0.3s0,0.2,0,0.2
				c0,0.4,0.1,0.8,0.3,1.1s0.5,0.4,1,0.4c0.3,0,0.5-0.1,0.8-0.2s0.5-0.2,0.8-0.4s0.5-0.4,0.7-0.6s0.4-0.5,0.6-0.8s0.3-0.5,0.4-0.8
				s0.2-0.6,0.3-0.8l0.9-4.4h1.5L209.6,56z M219.4,55.7c0,0.2-0.1,0.5-0.1,0.8s-0.1,0.6-0.1,0.8s-0.1,0.5-0.1,0.8s0,0.4,0,0.5h-1.5
				c0-0.1,0-0.3,0-0.4s0-0.3,0-0.5s0-0.3,0.1-0.5s0-0.3,0.1-0.4l0,0c-0.2,0.3-0.4,0.6-0.6,0.8s-0.4,0.5-0.6,0.7s-0.5,0.3-0.8,0.5
				s-0.6,0.2-1,0.2s-0.8-0.1-1.1-0.2s-0.6-0.4-0.8-0.6s-0.4-0.6-0.5-1s-0.2-0.9-0.2-1.5c0-0.3,0-0.7,0.1-1.2s0.2-0.9,0.4-1.3
				s0.4-0.9,0.7-1.3s0.6-0.8,1-1.2s0.9-0.6,1.5-0.8s1.2-0.3,2-0.3c0.5,0,1,0,1.5,0.1s1,0.2,1.5,0.3L219.4,55.7z M219,50.8
				c-0.2,0-0.4-0.1-0.7-0.1s-0.5-0.1-0.8-0.1c-0.5,0-1,0.1-1.3,0.2s-0.7,0.4-1,0.6s-0.5,0.6-0.7,0.9s-0.4,0.7-0.5,1
				s-0.2,0.7-0.3,1.1s-0.1,0.7-0.1,0.9c0,0.3,0,0.6,0.1,0.9s0.2,0.5,0.3,0.7s0.3,0.3,0.5,0.4s0.4,0.2,0.7,0.2s0.6-0.1,0.8-0.2
				s0.5-0.3,0.7-0.5s0.4-0.4,0.6-0.7s0.3-0.6,0.5-0.9s0.3-0.6,0.4-0.9s0.2-0.6,0.3-0.9L219,50.8z M224.9,58.6
				c-0.1,0-0.3,0.1-0.5,0.1s-0.4,0-0.5,0c-0.6,0-1-0.1-1.3-0.4s-0.4-0.7-0.4-1.2c0-0.1,0-0.3,0-0.5s0.1-0.4,0.1-0.7l2.2-10.6h1.5
				l-2.3,10.6c-0.1,0.2-0.1,0.4-0.1,0.6s0,0.2,0,0.3c0,0.2,0.1,0.4,0.2,0.5s0.3,0.2,0.6,0.2c0.2,0,0.3,0,0.4,0s0.2,0,0.3-0.1
				L224.9,58.6z M238.8,55.8c0,0.2-0.1,0.4-0.1,0.7s-0.1,0.5-0.1,0.8s-0.1,0.5-0.1,0.8s0,0.4,0,0.5H237c0-0.1,0-0.2,0-0.4
				s0-0.3,0.1-0.5s0-0.4,0.1-0.5s0-0.3,0.1-0.4l0,0c-0.2,0.3-0.4,0.6-0.6,0.9s-0.4,0.5-0.7,0.7s-0.5,0.3-0.7,0.4s-0.6,0.1-0.9,0.1
				c-0.4,0-0.8-0.1-1.1-0.2s-0.6-0.4-0.8-0.6s-0.4-0.6-0.5-1.1s-0.2-0.9-0.2-1.4c0-0.4,0-0.9,0.1-1.4s0.2-0.9,0.4-1.4
				s0.4-0.9,0.7-1.3s0.6-0.8,1-1.1s0.9-0.5,1.4-0.7s1.1-0.3,1.7-0.3c0.3,0,0.6,0,0.9,0.1s0.5,0.1,0.7,0.1l0.9-4.3h1.4L238.8,55.8z
				 M238.4,50.8c-0.2-0.1-0.5-0.1-0.7-0.2s-0.5-0.1-0.8-0.1c-0.5,0-1,0.1-1.3,0.2s-0.7,0.4-1,0.6s-0.5,0.6-0.7,0.9s-0.4,0.7-0.5,1
				s-0.2,0.7-0.3,1s-0.1,0.7-0.1,0.9c0,0.3,0,0.6,0.1,0.9s0.1,0.5,0.3,0.7s0.3,0.3,0.5,0.4s0.4,0.2,0.7,0.2s0.6-0.1,0.8-0.2
				s0.5-0.3,0.7-0.5s0.4-0.5,0.6-0.7s0.3-0.6,0.5-0.9s0.3-0.6,0.4-0.9s0.2-0.6,0.3-0.9L238.4,50.8z M249,51.7c0,0.5-0.1,0.9-0.3,1.3
				s-0.6,0.7-1,1s-1.1,0.5-1.9,0.6s-1.8,0.2-3,0.2c0,0.1,0,0.1,0,0.2v0.2c0,0.3,0,0.6,0.1,0.9s0.2,0.5,0.4,0.7s0.4,0.4,0.7,0.5
				s0.6,0.2,1,0.2s0.8-0.1,1.3-0.2s0.9-0.4,1.4-0.7l-0.3,1.4c-0.3,0.2-0.7,0.4-1.2,0.5s-0.9,0.2-1.5,0.2c-0.7,0-1.2-0.1-1.7-0.3
				s-0.8-0.5-1.1-0.8s-0.5-0.7-0.6-1.2s-0.2-0.9-0.2-1.4s0.1-1,0.2-1.5s0.3-0.9,0.5-1.4s0.5-0.8,0.8-1.2s0.6-0.6,1-0.9
				s0.8-0.4,1.2-0.6s0.8-0.2,1.3-0.2s0.9,0.1,1.2,0.2s0.7,0.3,0.9,0.5s0.4,0.5,0.5,0.7S249,51.4,249,51.7L249,51.7z M247.6,51.8
				c0-0.4-0.1-0.7-0.4-0.9s-0.6-0.3-1.1-0.3c-0.4,0-0.7,0.1-1,0.2s-0.6,0.4-0.9,0.6s-0.5,0.6-0.7,1s-0.4,0.8-0.4,1.2
				c0.8,0,1.5,0,2.1-0.1s1.1-0.2,1.4-0.4s0.6-0.4,0.8-0.6S247.6,52.1,247.6,51.8L247.6,51.8z M255.7,51.2c-0.3-0.2-0.6-0.3-0.9-0.4
				s-0.7-0.2-1-0.2c-0.6,0-1,0.1-1.3,0.4s-0.5,0.6-0.5,1c0,0.2,0,0.3,0.1,0.5s0.1,0.3,0.2,0.4s0.2,0.2,0.4,0.4s0.4,0.2,0.6,0.4
				c0.7,0.4,1.1,0.8,1.4,1.2s0.4,0.9,0.4,1.4c0,0.3-0.1,0.7-0.2,1s-0.3,0.6-0.6,0.9s-0.6,0.4-1.1,0.6s-1,0.2-1.6,0.2
				c-0.2,0-0.4,0-0.6,0s-0.4-0.1-0.6-0.1s-0.4-0.1-0.6-0.2s-0.4-0.1-0.5-0.2l0.3-1.4c0.1,0.1,0.3,0.2,0.4,0.2s0.4,0.2,0.6,0.2
				s0.4,0.1,0.6,0.2s0.4,0.1,0.7,0.1c0.6,0,1-0.1,1.3-0.4s0.4-0.6,0.4-1c0-0.2,0-0.3-0.1-0.4s-0.1-0.3-0.2-0.4s-0.3-0.3-0.4-0.4
				s-0.4-0.3-0.7-0.4c-0.6-0.4-1-0.7-1.3-1.1s-0.4-0.8-0.4-1.3c0-0.4,0.1-0.7,0.2-1s0.3-0.6,0.6-0.9s0.6-0.5,1-0.6s0.9-0.2,1.4-0.2
				c0.4,0,0.8,0,1.2,0.1s0.7,0.2,1,0.3L255.7,51.2z M260.1,58.6c-0.1,0-0.3,0.1-0.5,0.1s-0.4,0-0.5,0c-0.6,0-1-0.1-1.3-0.4
				s-0.4-0.7-0.4-1.2c0-0.1,0-0.3,0-0.5s0.1-0.4,0.1-0.7l1.3-6.2h1.5L259,56c-0.1,0.2-0.1,0.4-0.1,0.6s0,0.2,0,0.3
				c0,0.2,0.1,0.4,0.2,0.5s0.3,0.2,0.6,0.2c0.2,0,0.3,0,0.4,0s0.2,0,0.3-0.1L260.1,58.6z M261.2,46.4c0,0.3-0.1,0.5-0.3,0.7
				s-0.4,0.3-0.7,0.3c-0.3,0-0.5-0.1-0.7-0.3s-0.3-0.4-0.3-0.7s0.1-0.5,0.3-0.7s0.4-0.3,0.7-0.3s0.5,0.1,0.7,0.3
				S261.2,46.1,261.2,46.4L261.2,46.4z M268.6,57.9c-0.1,0.7-0.3,1.4-0.6,1.9s-0.6,1.1-1,1.5s-0.9,0.8-1.5,1s-1.3,0.4-2.1,0.4
				c-0.6,0-1.1-0.1-1.5-0.2s-0.8-0.3-1.2-0.5l0.3-1.3c0.4,0.2,0.8,0.4,1.2,0.6s0.9,0.2,1.3,0.2c0.5,0,1-0.1,1.4-0.2s0.7-0.4,1-0.7
				s0.5-0.7,0.7-1.1s0.3-0.9,0.5-1.5l0.3-1.4l0,0c-0.2,0.4-0.4,0.7-0.7,0.9s-0.4,0.5-0.7,0.7s-0.5,0.3-0.7,0.4s-0.5,0.1-0.9,0.1
				s-0.8-0.1-1.1-0.2s-0.6-0.4-0.8-0.6s-0.4-0.6-0.5-1.1s-0.2-0.9-0.2-1.5c0-0.5,0.1-1,0.2-1.5s0.3-1,0.5-1.4s0.5-0.9,0.8-1.2
				s0.7-0.7,1.1-1s0.8-0.5,1.3-0.6s1-0.2,1.5-0.2s1.1,0,1.6,0.1s1,0.1,1.5,0.2L268.6,57.9z M268.7,50.8c-0.2,0-0.4-0.1-0.7-0.1
				s-0.6-0.1-0.9-0.1c-0.6,0-1.1,0.1-1.5,0.4s-0.9,0.6-1.2,1s-0.6,0.9-0.8,1.5s-0.3,1.2-0.3,1.8c0,0.3,0,0.6,0.1,0.9
				s0.1,0.5,0.3,0.7s0.3,0.3,0.5,0.5s0.4,0.2,0.7,0.2c0.3,0,0.6-0.1,0.9-0.2s0.5-0.3,0.8-0.5s0.4-0.5,0.6-0.8s0.3-0.6,0.5-0.9
				s0.3-0.6,0.3-0.9s0.2-0.6,0.2-0.8L268.7,50.8z M280.1,51.8c0,0.1,0,0.2,0,0.4s0,0.3-0.1,0.5s-0.1,0.4-0.1,0.5s-0.1,0.3-0.1,0.4
				l-1,4.9h-1.5l1.1-5.3c0-0.1,0-0.2,0.1-0.3s0-0.2,0.1-0.4s0-0.2,0-0.3s0-0.2,0-0.2c0-0.4-0.1-0.8-0.3-1.1s-0.5-0.4-1-0.4
				c-0.4,0-0.8,0.1-1.2,0.3s-0.7,0.5-1.1,0.9s-0.6,0.7-0.8,1.2s-0.4,0.8-0.5,1.2l-0.9,4.4h-1.5l1.4-6.4c0-0.2,0.1-0.5,0.1-0.7
				s0.1-0.5,0.1-0.7s0.1-0.4,0.1-0.6s0.1-0.4,0.1-0.5h1.4c0,0.2-0.1,0.5-0.1,0.7s-0.1,0.5-0.1,0.7s-0.1,0.5-0.1,0.7l0,0
				c0.2-0.3,0.4-0.6,0.7-0.9s0.5-0.5,0.8-0.7s0.6-0.4,0.9-0.5s0.7-0.2,1-0.2c0.4,0,0.7,0.1,1,0.2s0.5,0.3,0.7,0.5s0.3,0.5,0.4,0.8
				S280.1,51.5,280.1,51.8L280.1,51.8z M293.2,46.5c-0.1,0-0.1-0.1-0.2-0.1s-0.2-0.1-0.3-0.1s-0.2,0-0.3-0.1s-0.2,0-0.3,0
				c-0.5,0-0.9,0.2-1.1,0.5s-0.5,0.8-0.6,1.4l-0.3,1.4h2.1l-0.3,1.2h-2.1l-2.3,10.8H286l2.3-10.8h-1.5l0.3-1.2h1.5l0.4-1.7
				c0.1-0.5,0.3-1,0.5-1.3s0.4-0.7,0.7-0.9s0.6-0.4,0.9-0.5s0.7-0.2,1.1-0.2c0.2,0,0.4,0,0.6,0.1s0.4,0.1,0.5,0.1L293.2,46.5z
				 M300.2,52.9c0,0.8-0.1,1.6-0.3,2.3s-0.6,1.3-1,1.9s-0.9,1-1.5,1.3s-1.3,0.5-2.1,0.5c-0.5,0-1-0.1-1.4-0.2s-0.8-0.4-1.1-0.7
				s-0.5-0.7-0.7-1.1s-0.2-0.9-0.2-1.5c0-0.8,0.1-1.6,0.4-2.3s0.6-1.3,1-1.9s0.9-0.9,1.5-1.2s1.3-0.5,2-0.5c0.5,0,1,0.1,1.4,0.2
				s0.8,0.4,1.1,0.7s0.5,0.7,0.7,1.1S300.2,52.4,300.2,52.9L300.2,52.9z M298.7,53c0-0.4,0-0.7-0.1-1s-0.2-0.5-0.4-0.7
				s-0.4-0.4-0.6-0.5s-0.5-0.2-0.8-0.2c-0.5,0-1,0.1-1.4,0.4s-0.8,0.6-1.1,1s-0.5,0.9-0.7,1.5s-0.2,1.1-0.2,1.7c0,0.4,0,0.7,0.1,1
				s0.2,0.5,0.4,0.8s0.4,0.4,0.6,0.5s0.5,0.2,0.8,0.2c0.5,0,1-0.1,1.4-0.4s0.8-0.6,1.1-1s0.5-0.9,0.7-1.5S298.7,53.6,298.7,53
				L298.7,53z M307.6,51.1L307.6,51.1c-0.2-0.1-0.3-0.1-0.5-0.2s-0.4-0.1-0.6-0.1c-0.3,0-0.7,0.1-1,0.3s-0.6,0.5-0.8,0.9
				s-0.5,0.8-0.7,1.2s-0.3,0.9-0.4,1.4l-0.8,3.9h-1.4l1.3-6c0.1-0.2,0.1-0.5,0.2-0.8s0.1-0.5,0.1-0.8s0.1-0.5,0.1-0.8
				s0.1-0.5,0.1-0.7h1.4c0,0.2,0,0.4-0.1,0.6s0,0.4-0.1,0.6s0,0.4-0.1,0.5s0,0.3-0.1,0.3l0,0c0.2-0.3,0.4-0.6,0.6-0.9
				s0.4-0.5,0.6-0.7s0.4-0.3,0.7-0.4s0.5-0.2,0.8-0.2c0.2,0,0.3,0,0.5,0s0.3,0.1,0.4,0.1L307.6,51.1z M319.8,51.4
				c-0.2-0.2-0.5-0.4-0.9-0.5s-0.7-0.2-1.2-0.2c-0.4,0-0.8,0.1-1.1,0.2s-0.6,0.3-0.9,0.6s-0.5,0.5-0.7,0.8s-0.3,0.6-0.4,0.9
				s-0.2,0.7-0.3,1s-0.1,0.6-0.1,0.9c0,0.8,0.2,1.5,0.6,1.9s0.9,0.7,1.5,0.7c0.4,0,0.8-0.1,1.2-0.2s0.8-0.4,1.2-0.6l-0.3,1.4
				c-0.4,0.2-0.8,0.4-1.1,0.5s-0.8,0.2-1.2,0.2c-0.6,0-1-0.1-1.4-0.3s-0.7-0.4-1-0.8s-0.5-0.7-0.6-1.2s-0.2-0.9-0.2-1.5
				c0-0.5,0-1,0.1-1.5s0.2-0.9,0.4-1.4s0.4-0.8,0.7-1.2s0.6-0.7,1-0.9s0.8-0.5,1.2-0.6s1-0.2,1.5-0.2c0.3,0,0.5,0,0.7,0.1
				s0.4,0.1,0.6,0.1s0.4,0.1,0.5,0.2s0.3,0.1,0.4,0.2L319.8,51.4z M326.8,51.1L326.8,51.1c-0.2-0.1-0.3-0.1-0.5-0.2
				s-0.4-0.1-0.6-0.1c-0.3,0-0.7,0.1-1,0.3s-0.6,0.5-0.8,0.9s-0.5,0.8-0.7,1.2s-0.3,0.9-0.4,1.4l-0.8,3.9h-1.4l1.3-6
				c0.1-0.2,0.1-0.5,0.2-0.8s0.1-0.5,0.1-0.8s0.1-0.5,0.1-0.8s0.1-0.5,0.1-0.7h1.4c0,0.2,0,0.4-0.1,0.6s0,0.4-0.1,0.6s0,0.4-0.1,0.5
				s0,0.3-0.1,0.3l0,0c0.2-0.3,0.4-0.6,0.6-0.9s0.4-0.5,0.6-0.7s0.4-0.3,0.7-0.4s0.5-0.2,0.8-0.2c0.2,0,0.3,0,0.5,0s0.3,0.1,0.4,0.1
				L326.8,51.1z M334.9,51.7c0,0.5-0.1,0.9-0.3,1.3s-0.6,0.7-1,1s-1.1,0.5-1.9,0.6s-1.8,0.2-3,0.2c0,0.1,0,0.1,0,0.2v0.2
				c0,0.3,0,0.6,0.1,0.9s0.2,0.5,0.4,0.7s0.4,0.4,0.7,0.5s0.6,0.2,1,0.2s0.8-0.1,1.3-0.2s0.9-0.4,1.4-0.7l-0.3,1.4
				c-0.3,0.2-0.7,0.4-1.2,0.5s-0.9,0.2-1.5,0.2c-0.7,0-1.2-0.1-1.7-0.3s-0.8-0.5-1.1-0.8s-0.5-0.7-0.6-1.2S327,55.5,327,55
				s0.1-1,0.2-1.5s0.3-0.9,0.5-1.4s0.5-0.8,0.8-1.2s0.6-0.6,1-0.9s0.8-0.4,1.2-0.6s0.8-0.2,1.3-0.2s0.9,0.1,1.2,0.2s0.7,0.3,0.9,0.5
				s0.4,0.5,0.5,0.7S334.9,51.4,334.9,51.7L334.9,51.7z M333.4,51.8c0-0.4-0.1-0.7-0.4-0.9s-0.6-0.3-1.1-0.3c-0.4,0-0.7,0.1-1,0.2
				s-0.6,0.4-0.9,0.6s-0.5,0.6-0.7,1s-0.4,0.8-0.4,1.2c0.8,0,1.5,0,2.1-0.1s1.1-0.2,1.4-0.4s0.6-0.4,0.8-0.6S333.4,52.1,333.4,51.8
				L333.4,51.8z M343.2,55.7c0,0.2-0.1,0.5-0.1,0.8s-0.1,0.6-0.1,0.8s-0.1,0.5-0.1,0.8s0,0.4,0,0.5h-1.5c0-0.1,0-0.3,0-0.4
				s0-0.3,0-0.5s0-0.3,0.1-0.5s0-0.3,0.1-0.4l0,0c-0.2,0.3-0.4,0.6-0.6,0.8s-0.4,0.5-0.6,0.7s-0.5,0.3-0.8,0.5s-0.6,0.2-1,0.2
				s-0.8-0.1-1.1-0.2s-0.6-0.4-0.8-0.6s-0.4-0.6-0.5-1s-0.2-0.9-0.2-1.5c0-0.3,0-0.7,0.1-1.2s0.2-0.9,0.4-1.3s0.4-0.9,0.7-1.3
				s0.6-0.8,1-1.2s0.9-0.6,1.5-0.8s1.2-0.3,2-0.3c0.5,0,1,0,1.5,0.1s1,0.2,1.5,0.3L343.2,55.7z M342.8,50.8c-0.2,0-0.4-0.1-0.7-0.1
				s-0.5-0.1-0.8-0.1c-0.5,0-1,0.1-1.3,0.2s-0.7,0.4-1,0.6s-0.5,0.6-0.7,0.9s-0.4,0.7-0.5,1s-0.2,0.7-0.3,1.1s-0.1,0.7-0.1,0.9
				c0,0.3,0,0.6,0.1,0.9s0.2,0.5,0.3,0.7s0.3,0.3,0.5,0.4s0.4,0.2,0.7,0.2c0.3,0,0.6-0.1,0.8-0.2s0.5-0.3,0.7-0.5s0.4-0.4,0.6-0.7
				s0.3-0.6,0.5-0.9s0.3-0.6,0.4-0.9s0.2-0.6,0.3-0.9L342.8,50.8z M351.1,50.8h-2.3l-1,4.8c0,0.2-0.1,0.4-0.1,0.6s-0.1,0.4-0.1,0.5
				c0,0.3,0.1,0.5,0.2,0.6s0.3,0.2,0.6,0.2c0.1,0,0.2,0,0.3,0s0.2-0.1,0.3-0.1s0.2-0.1,0.3-0.1s0.2-0.1,0.3-0.1l-0.3,1.3
				c-0.2,0.1-0.4,0.2-0.7,0.2s-0.5,0.1-0.7,0.1c-0.3,0-0.6,0-0.9-0.1s-0.4-0.2-0.6-0.4s-0.3-0.4-0.3-0.6s-0.1-0.5-0.1-0.8
				c0-0.2,0-0.4,0-0.6s0.1-0.4,0.1-0.6l1-4.9h-1.5l0.3-1.2h1.5l0.5-2.2c0,0,0.1,0,0.3-0.1s0.3-0.1,0.5-0.1s0.4-0.1,0.5-0.2
				s0.2-0.1,0.3-0.1l-0.6,2.7h2.3L351.1,50.8z M354.5,58.6c-0.1,0-0.3,0.1-0.5,0.1s-0.4,0-0.5,0c-0.6,0-1-0.1-1.3-0.4
				s-0.4-0.7-0.4-1.2c0-0.1,0-0.3,0-0.5s0.1-0.4,0.1-0.7l1.3-6.2h1.5l-1.3,6.3c-0.1,0.2-0.1,0.4-0.1,0.6s0,0.2,0,0.3
				c0,0.2,0.1,0.4,0.2,0.5s0.3,0.2,0.6,0.2c0.2,0,0.3,0,0.4,0s0.2,0,0.3-0.1L354.5,58.6z M355.5,46.4c0,0.3-0.1,0.5-0.3,0.7
				s-0.4,0.3-0.7,0.3c-0.3,0-0.5-0.1-0.7-0.3s-0.3-0.4-0.3-0.7s0.1-0.5,0.3-0.7s0.4-0.3,0.7-0.3s0.5,0.1,0.7,0.3
				S355.5,46.1,355.5,46.4L355.5,46.4z M364.7,51.8c0,0.1,0,0.2,0,0.4s0,0.3-0.1,0.5s-0.1,0.4-0.1,0.5s-0.1,0.3-0.1,0.4l-1,4.9h-1.5
				l1.1-5.3c0-0.1,0-0.2,0.1-0.3s0-0.2,0.1-0.4s0-0.2,0-0.3s0-0.2,0-0.2c0-0.4-0.1-0.8-0.3-1.1s-0.5-0.4-1-0.4
				c-0.4,0-0.8,0.1-1.2,0.3s-0.7,0.5-1.1,0.9s-0.6,0.7-0.8,1.2s-0.4,0.8-0.5,1.2l-0.9,4.4H356l1.4-6.4c0-0.2,0.1-0.5,0.1-0.7
				s0.1-0.5,0.1-0.7s0.1-0.4,0.1-0.6s0.1-0.4,0.1-0.5h1.4c0,0.2-0.1,0.5-0.1,0.7S359,50.8,359,51s-0.1,0.5-0.1,0.7l0,0
				c0.2-0.3,0.4-0.6,0.7-0.9s0.5-0.5,0.8-0.7s0.6-0.4,0.9-0.5s0.7-0.2,1-0.2c0.4,0,0.7,0.1,1,0.2s0.5,0.3,0.7,0.5s0.3,0.5,0.4,0.8
				S364.7,51.5,364.7,51.8L364.7,51.8z M373.1,57.9c-0.1,0.7-0.3,1.4-0.6,1.9s-0.6,1.1-1,1.5s-0.9,0.8-1.5,1s-1.3,0.4-2.1,0.4
				c-0.6,0-1.1-0.1-1.5-0.2s-0.8-0.3-1.2-0.5l0.3-1.3c0.4,0.2,0.8,0.4,1.2,0.6s0.9,0.2,1.3,0.2c0.5,0,1-0.1,1.4-0.2s0.7-0.4,1-0.7
				s0.5-0.7,0.7-1.1s0.3-0.9,0.5-1.5l0.3-1.4l0,0c-0.2,0.4-0.4,0.7-0.7,0.9s-0.4,0.5-0.7,0.7s-0.5,0.3-0.7,0.4s-0.5,0.1-0.9,0.1
				s-0.8-0.1-1.1-0.2s-0.6-0.4-0.8-0.6s-0.4-0.6-0.5-1.1s-0.2-0.9-0.2-1.5c0-0.5,0.1-1,0.2-1.5s0.3-1,0.5-1.4s0.5-0.9,0.8-1.2
				s0.7-0.7,1.1-1s0.8-0.5,1.3-0.6s1-0.2,1.5-0.2s1.1,0,1.6,0.1s1,0.1,1.5,0.2L373.1,57.9z M373.1,50.8c-0.2,0-0.4-0.1-0.7-0.1
				s-0.6-0.1-0.9-0.1c-0.6,0-1.1,0.1-1.5,0.4s-0.9,0.6-1.2,1s-0.6,0.9-0.8,1.5s-0.3,1.2-0.3,1.8c0,0.3,0,0.6,0.1,0.9
				s0.1,0.5,0.3,0.7s0.3,0.3,0.5,0.5s0.4,0.2,0.7,0.2c0.3,0,0.6-0.1,0.9-0.2s0.5-0.3,0.8-0.5s0.4-0.5,0.6-0.8s0.3-0.6,0.5-0.9
				s0.3-0.6,0.3-0.9s0.2-0.6,0.2-0.8L373.1,50.8z M389.4,52.7c0,0.4,0,0.9-0.1,1.3s-0.2,0.9-0.4,1.4s-0.4,0.9-0.7,1.3
				s-0.6,0.8-1,1.1s-0.8,0.6-1.3,0.7s-1,0.3-1.7,0.3c-0.3,0-0.7,0-1-0.1s-0.6-0.1-0.9-0.2l-0.9,4.3h-1.5l2.2-10.4
				c0-0.2,0.1-0.4,0.1-0.7s0.1-0.5,0.1-0.8s0-0.5,0.1-0.8s0-0.4,0-0.5h1.5c0,0.1,0,0.2,0,0.4s0,0.3-0.1,0.5s0,0.4-0.1,0.5
				s0,0.3-0.1,0.4l0,0c0.4-0.7,0.9-1.2,1.4-1.6s1.1-0.5,1.7-0.5c0.4,0,0.8,0.1,1.1,0.2s0.6,0.4,0.8,0.6s0.4,0.6,0.5,1.1
				S389.4,52.2,389.4,52.7L389.4,52.7z M387.9,52.8c0-0.3,0-0.6-0.1-0.9s-0.1-0.5-0.3-0.7s-0.3-0.3-0.5-0.5s-0.4-0.2-0.7-0.2
				c-0.3,0-0.6,0.1-0.9,0.2s-0.5,0.3-0.7,0.5s-0.4,0.5-0.6,0.7s-0.4,0.6-0.5,0.9s-0.3,0.6-0.4,0.9s-0.2,0.6-0.2,0.8l-0.6,2.6
				c0.1,0,0.2,0.1,0.4,0.1s0.3,0.1,0.5,0.1s0.3,0.1,0.5,0.1s0.3,0,0.5,0c0.4,0,0.8-0.1,1.1-0.2s0.7-0.3,0.9-0.5s0.5-0.5,0.7-0.8
				s0.4-0.6,0.5-1s0.2-0.7,0.3-1.1S387.9,53.2,387.9,52.8L387.9,52.8z M396.8,51.1L396.8,51.1c-0.2-0.1-0.3-0.1-0.5-0.2
				s-0.4-0.1-0.6-0.1c-0.3,0-0.7,0.1-1,0.3s-0.6,0.5-0.8,0.9s-0.5,0.8-0.7,1.2s-0.3,0.9-0.4,1.4l-0.8,3.9h-1.4l1.3-6
				c0.1-0.2,0.1-0.5,0.2-0.8s0.1-0.5,0.1-0.8s0.1-0.5,0.1-0.8s0.1-0.5,0.1-0.7h1.4c0,0.2,0,0.4-0.1,0.6s0,0.4-0.1,0.6s0,0.4-0.1,0.5
				s0,0.3-0.1,0.3l0,0c0.2-0.3,0.4-0.6,0.6-0.9s0.4-0.5,0.6-0.7s0.4-0.3,0.7-0.4s0.5-0.2,0.8-0.2c0.2,0,0.3,0,0.5,0s0.3,0.1,0.4,0.1
				L396.8,51.1z M405.4,52.9c0,0.8-0.1,1.6-0.3,2.3s-0.6,1.3-1,1.9s-0.9,1-1.5,1.3s-1.3,0.5-2.1,0.5c-0.5,0-1-0.1-1.4-0.2
				s-0.8-0.4-1.1-0.7s-0.5-0.7-0.7-1.1s-0.2-0.9-0.2-1.5c0-0.8,0.1-1.6,0.4-2.3s0.6-1.3,1-1.9s0.9-0.9,1.5-1.2s1.3-0.5,2-0.5
				c0.5,0,1,0.1,1.4,0.2s0.8,0.4,1.1,0.7s0.5,0.7,0.7,1.1S405.4,52.4,405.4,52.9L405.4,52.9z M403.9,53c0-0.4,0-0.7-0.1-1
				s-0.2-0.5-0.4-0.7s-0.4-0.4-0.6-0.5s-0.5-0.2-0.8-0.2c-0.5,0-1,0.1-1.4,0.4s-0.8,0.6-1.1,1s-0.5,0.9-0.7,1.5s-0.2,1.1-0.2,1.7
				c0,0.4,0,0.7,0.1,1s0.2,0.5,0.4,0.8s0.4,0.4,0.6,0.5s0.5,0.2,0.8,0.2c0.5,0,1-0.1,1.4-0.4s0.8-0.6,1.1-1s0.5-0.9,0.7-1.5
				S403.9,53.6,403.9,53L403.9,53z M414,55.8c0,0.2-0.1,0.4-0.1,0.7s-0.1,0.5-0.1,0.8s-0.1,0.5-0.1,0.8s0,0.4,0,0.5h-1.5
				c0-0.1,0-0.2,0-0.4s0-0.3,0.1-0.5s0-0.4,0.1-0.5s0-0.3,0.1-0.4l0,0c-0.2,0.3-0.4,0.6-0.6,0.9s-0.4,0.5-0.7,0.7s-0.5,0.3-0.7,0.4
				s-0.6,0.1-0.9,0.1c-0.4,0-0.8-0.1-1.1-0.2s-0.6-0.4-0.8-0.6s-0.4-0.6-0.5-1.1s-0.2-0.9-0.2-1.4c0-0.4,0-0.9,0.1-1.4
				s0.2-0.9,0.4-1.4s0.4-0.9,0.7-1.3s0.6-0.8,1-1.1s0.9-0.5,1.4-0.7s1.1-0.3,1.7-0.3c0.3,0,0.6,0,0.9,0.1s0.5,0.1,0.7,0.1l0.9-4.3
				h1.4L414,55.8z M413.6,50.8c-0.2-0.1-0.5-0.1-0.7-0.2s-0.5-0.1-0.8-0.1c-0.5,0-1,0.1-1.3,0.2s-0.7,0.4-1,0.6s-0.5,0.6-0.7,0.9
				s-0.4,0.7-0.5,1s-0.2,0.7-0.3,1s-0.1,0.7-0.1,0.9c0,0.3,0,0.6,0.1,0.9s0.1,0.5,0.3,0.7s0.3,0.3,0.5,0.4s0.4,0.2,0.7,0.2
				c0.3,0,0.6-0.1,0.8-0.2s0.5-0.3,0.7-0.5s0.4-0.5,0.6-0.7s0.3-0.6,0.5-0.9s0.3-0.6,0.4-0.9s0.2-0.6,0.3-0.9L413.6,50.8z M424,56
				c-0.1,0.2-0.1,0.5-0.1,0.7s-0.1,0.5-0.1,0.7s-0.1,0.4-0.1,0.6s-0.1,0.4-0.1,0.5h-1.4c0-0.2,0.1-0.5,0.1-0.7s0.1-0.5,0.1-0.7
				s0.1-0.5,0.1-0.7l0,0c-0.2,0.3-0.4,0.6-0.7,0.9s-0.5,0.5-0.8,0.7s-0.6,0.4-0.9,0.5s-0.7,0.2-1,0.2c-0.4,0-0.7-0.1-1-0.2
				s-0.5-0.3-0.7-0.5s-0.3-0.5-0.4-0.8s-0.1-0.6-0.1-1c0-0.1,0-0.2,0-0.3s0-0.3,0.1-0.5s0.1-0.4,0.1-0.5s0.1-0.3,0.1-0.4l1-4.9h1.5
				l-1.1,5.3c0,0.1,0,0.2-0.1,0.3s0,0.2-0.1,0.4s0,0.2,0,0.3s0,0.2,0,0.2c0,0.4,0.1,0.8,0.3,1.1s0.5,0.4,1,0.4
				c0.3,0,0.5-0.1,0.8-0.2s0.5-0.2,0.8-0.4s0.5-0.4,0.7-0.6s0.4-0.5,0.6-0.8s0.3-0.5,0.4-0.8s0.2-0.6,0.3-0.8l0.9-4.4h1.5L424,56z
				 M433.4,51.4c-0.2-0.2-0.5-0.4-0.9-0.5s-0.7-0.2-1.2-0.2c-0.4,0-0.8,0.1-1.1,0.2s-0.6,0.3-0.9,0.6s-0.5,0.5-0.7,0.8
				s-0.3,0.6-0.4,0.9s-0.2,0.7-0.3,1s-0.1,0.6-0.1,0.9c0,0.8,0.2,1.5,0.6,1.9s0.9,0.7,1.5,0.7c0.4,0,0.8-0.1,1.2-0.2
				s0.8-0.4,1.2-0.6l-0.3,1.4c-0.4,0.2-0.8,0.4-1.1,0.5s-0.8,0.2-1.2,0.2c-0.6,0-1-0.1-1.4-0.3s-0.7-0.4-1-0.8s-0.5-0.7-0.6-1.2
				s-0.2-0.9-0.2-1.5c0-0.5,0-1,0.1-1.5s0.2-0.9,0.4-1.4s0.4-0.8,0.7-1.2s0.6-0.7,1-0.9s0.8-0.5,1.2-0.6s1-0.2,1.5-0.2
				c0.3,0,0.5,0,0.7,0.1s0.4,0.1,0.6,0.1s0.4,0.1,0.5,0.2s0.3,0.1,0.4,0.2L433.4,51.4z M439.8,50.8h-2.3l-1,4.8
				c0,0.2-0.1,0.4-0.1,0.6s-0.1,0.4-0.1,0.5c0,0.3,0.1,0.5,0.2,0.6s0.3,0.2,0.6,0.2c0.1,0,0.2,0,0.3,0s0.2-0.1,0.3-0.1
				s0.2-0.1,0.3-0.1s0.2-0.1,0.3-0.1l-0.3,1.3c-0.2,0.1-0.4,0.2-0.7,0.2s-0.5,0.1-0.7,0.1c-0.3,0-0.6,0-0.9-0.1s-0.4-0.2-0.6-0.4
				s-0.3-0.4-0.3-0.6s-0.1-0.5-0.1-0.8c0-0.2,0-0.4,0-0.6s0.1-0.4,0.1-0.6l1-4.9h-1.5l0.3-1.2h1.5l0.5-2.2c0,0,0.1,0,0.3-0.1
				s0.3-0.1,0.5-0.1s0.4-0.1,0.5-0.2s0.2-0.1,0.3-0.1l-0.6,2.7h2.3L439.8,50.8z M445.9,51.2c-0.3-0.2-0.6-0.3-0.9-0.4
				s-0.7-0.2-1-0.2c-0.6,0-1,0.1-1.3,0.4s-0.5,0.6-0.5,1c0,0.2,0,0.3,0.1,0.5s0.1,0.3,0.2,0.4s0.2,0.2,0.4,0.4s0.4,0.2,0.6,0.4
				c0.7,0.4,1.1,0.8,1.4,1.2s0.4,0.9,0.4,1.4c0,0.3-0.1,0.7-0.2,1s-0.3,0.6-0.6,0.9s-0.6,0.4-1.1,0.6s-1,0.2-1.6,0.2
				c-0.2,0-0.4,0-0.6,0s-0.4-0.1-0.6-0.1s-0.4-0.1-0.6-0.2s-0.4-0.1-0.5-0.2l0.3-1.4c0.1,0.1,0.3,0.2,0.4,0.2s0.4,0.2,0.6,0.2
				s0.4,0.1,0.6,0.2s0.4,0.1,0.7,0.1c0.6,0,1-0.1,1.3-0.4s0.4-0.6,0.4-1c0-0.2,0-0.3-0.1-0.4s-0.1-0.3-0.2-0.4s-0.3-0.3-0.4-0.4
				s-0.4-0.3-0.7-0.4c-0.6-0.4-1-0.7-1.3-1.1s-0.4-0.8-0.4-1.3c0-0.4,0.1-0.7,0.2-1s0.3-0.6,0.6-0.9s0.6-0.5,1-0.6s0.9-0.2,1.4-0.2
				c0.4,0,0.8,0,1.2,0.1s0.7,0.2,1,0.3L445.9,51.2z M458.8,46.5c-0.1,0-0.1-0.1-0.2-0.1s-0.2-0.1-0.3-0.1s-0.2,0-0.3-0.1
				s-0.2,0-0.3,0c-0.5,0-0.9,0.2-1.1,0.5s-0.5,0.8-0.6,1.4l-0.3,1.4h2.1l-0.3,1.2h-2.1l-2.3,10.8h-1.5l2.3-10.8h-1.5l0.3-1.2h1.5
				l0.4-1.7c0.1-0.5,0.3-1,0.5-1.3s0.4-0.7,0.7-0.9s0.6-0.4,0.9-0.5s0.7-0.2,1.1-0.2c0.2,0,0.4,0,0.6,0.1s0.4,0.1,0.5,0.1
				L458.8,46.5z M465.8,52.9c0,0.8-0.1,1.6-0.3,2.3s-0.6,1.3-1,1.9s-0.9,1-1.5,1.3s-1.3,0.5-2.1,0.5c-0.5,0-1-0.1-1.4-0.2
				s-0.8-0.4-1.1-0.7s-0.5-0.7-0.7-1.1s-0.2-0.9-0.2-1.5c0-0.8,0.1-1.6,0.4-2.3s0.6-1.3,1-1.9s0.9-0.9,1.5-1.2s1.3-0.5,2-0.5
				c0.5,0,1,0.1,1.4,0.2s0.8,0.4,1.1,0.7s0.5,0.7,0.7,1.1S465.8,52.4,465.8,52.9L465.8,52.9z M464.4,53c0-0.4,0-0.7-0.1-1
				s-0.2-0.5-0.4-0.7s-0.4-0.4-0.6-0.5s-0.5-0.2-0.8-0.2c-0.5,0-1,0.1-1.4,0.4s-0.8,0.6-1.1,1s-0.5,0.9-0.7,1.5s-0.2,1.1-0.2,1.7
				c0,0.4,0,0.7,0.1,1s0.2,0.5,0.4,0.8s0.4,0.4,0.6,0.5s0.5,0.2,0.8,0.2c0.5,0,1-0.1,1.4-0.4s0.8-0.6,1.1-1s0.5-0.9,0.7-1.5
				S464.4,53.6,464.4,53L464.4,53z M473.2,51.1L473.2,51.1c-0.2-0.1-0.3-0.1-0.5-0.2s-0.4-0.1-0.6-0.1c-0.3,0-0.7,0.1-1,0.3
				s-0.6,0.5-0.8,0.9s-0.5,0.8-0.7,1.2s-0.3,0.9-0.4,1.4l-0.8,3.9H467l1.3-6c0.1-0.2,0.1-0.5,0.2-0.8s0.1-0.5,0.1-0.8
				s0.1-0.5,0.1-0.8s0.1-0.5,0.1-0.7h1.4c0,0.2,0,0.4-0.1,0.6s0,0.4-0.1,0.6s0,0.4-0.1,0.5s0,0.3-0.1,0.3l0,0
				c0.2-0.3,0.4-0.6,0.6-0.9s0.4-0.5,0.6-0.7s0.4-0.3,0.7-0.4s0.5-0.2,0.8-0.2c0.2,0,0.3,0,0.5,0s0.3,0.1,0.4,0.1L473.2,51.1z
				 M486,56c-0.1,0.2-0.1,0.5-0.1,0.7s-0.1,0.5-0.1,0.7s-0.1,0.4-0.1,0.6s-0.1,0.4-0.1,0.5h-1.4c0-0.2,0.1-0.5,0.1-0.7
				s0.1-0.5,0.1-0.7s0.1-0.5,0.1-0.7l0,0c-0.2,0.3-0.4,0.6-0.7,0.9s-0.5,0.5-0.8,0.7s-0.6,0.4-0.9,0.5s-0.7,0.2-1,0.2
				c-0.4,0-0.7-0.1-1-0.2s-0.5-0.3-0.7-0.5s-0.3-0.5-0.4-0.8s-0.1-0.6-0.1-1c0-0.1,0-0.2,0-0.3s0-0.3,0.1-0.5s0.1-0.4,0.1-0.5
				s0.1-0.3,0.1-0.4l1-4.9h1.5l-1.1,5.3c0,0.1,0,0.2-0.1,0.3s0,0.2-0.1,0.4s0,0.2,0,0.3s0,0.2,0,0.2c0,0.4,0.1,0.8,0.3,1.1
				s0.5,0.4,1,0.4c0.3,0,0.5-0.1,0.8-0.2s0.5-0.2,0.8-0.4s0.5-0.4,0.7-0.6s0.4-0.5,0.6-0.8s0.3-0.5,0.4-0.8s0.2-0.6,0.3-0.8l0.9-4.4
				h1.5L486,56z M494.3,51.2c-0.3-0.2-0.6-0.3-0.9-0.4s-0.7-0.2-1-0.2c-0.6,0-1,0.1-1.3,0.4s-0.5,0.6-0.5,1c0,0.2,0,0.3,0.1,0.5
				s0.1,0.3,0.2,0.4s0.2,0.2,0.4,0.4s0.4,0.2,0.6,0.4c0.7,0.4,1.1,0.8,1.4,1.2s0.4,0.9,0.4,1.4c0,0.3-0.1,0.7-0.2,1
				s-0.3,0.6-0.6,0.9s-0.6,0.4-1.1,0.6s-1,0.2-1.6,0.2c-0.2,0-0.4,0-0.6,0s-0.4-0.1-0.6-0.1s-0.4-0.1-0.6-0.2s-0.4-0.1-0.5-0.2
				l0.3-1.4c0.1,0.1,0.3,0.2,0.4,0.2s0.4,0.2,0.6,0.2s0.4,0.1,0.6,0.2s0.4,0.1,0.7,0.1c0.6,0,1-0.1,1.3-0.4s0.4-0.6,0.4-1
				c0-0.2,0-0.3-0.1-0.4s-0.1-0.3-0.2-0.4s-0.3-0.3-0.4-0.4s-0.4-0.3-0.7-0.4c-0.6-0.4-1-0.7-1.3-1.1s-0.4-0.8-0.4-1.3
				c0-0.4,0.1-0.7,0.2-1s0.3-0.6,0.6-0.9s0.6-0.5,1-0.6s0.9-0.2,1.4-0.2c0.4,0,0.8,0,1.2,0.1s0.7,0.2,1,0.3L494.3,51.2z M503.3,51.7
				c0,0.5-0.1,0.9-0.3,1.3s-0.6,0.7-1,1s-1.1,0.5-1.9,0.6s-1.8,0.2-3,0.2c0,0.1,0,0.1,0,0.2v0.2c0,0.3,0,0.6,0.1,0.9
				s0.2,0.5,0.4,0.7s0.4,0.4,0.7,0.5s0.6,0.2,1,0.2s0.8-0.1,1.3-0.2s0.9-0.4,1.4-0.7l-0.3,1.4c-0.3,0.2-0.7,0.4-1.2,0.5
				s-0.9,0.2-1.5,0.2c-0.7,0-1.2-0.1-1.7-0.3s-0.8-0.5-1.1-0.8s-0.5-0.7-0.6-1.2s-0.2-0.9-0.2-1.4s0.1-1,0.2-1.5s0.3-0.9,0.5-1.4
				s0.5-0.8,0.8-1.2s0.6-0.6,1-0.9s0.8-0.4,1.2-0.6s0.8-0.2,1.3-0.2s0.9,0.1,1.2,0.2s0.7,0.3,0.9,0.5s0.4,0.5,0.5,0.7
				S503.3,51.4,503.3,51.7L503.3,51.7z M501.8,51.8c0-0.4-0.1-0.7-0.4-0.9s-0.6-0.3-1.1-0.3c-0.4,0-0.7,0.1-1,0.2s-0.6,0.4-0.9,0.6
				s-0.5,0.6-0.7,1s-0.4,0.8-0.4,1.2c0.8,0,1.5,0,2.1-0.1s1.1-0.2,1.4-0.4s0.6-0.4,0.8-0.6S501.8,52.1,501.8,51.8L501.8,51.8z
				 M510.3,51.1L510.3,51.1c-0.2-0.1-0.3-0.1-0.5-0.2s-0.4-0.1-0.6-0.1c-0.3,0-0.7,0.1-1,0.3s-0.6,0.5-0.8,0.9s-0.5,0.8-0.7,1.2
				s-0.3,0.9-0.4,1.4l-0.8,3.9H504l1.3-6c0.1-0.2,0.1-0.5,0.2-0.8s0.1-0.5,0.1-0.8s0.1-0.5,0.1-0.8s0.1-0.5,0.1-0.7h1.4
				c0,0.2,0,0.4-0.1,0.6s0,0.4-0.1,0.6s0,0.4-0.1,0.5s0,0.3-0.1,0.3l0,0c0.2-0.3,0.4-0.6,0.6-0.9s0.4-0.5,0.6-0.7s0.4-0.3,0.7-0.4
				s0.5-0.2,0.8-0.2c0.2,0,0.3,0,0.5,0s0.3,0.1,0.4,0.1L510.3,51.1z M516.5,51.2c-0.3-0.2-0.6-0.3-0.9-0.4s-0.7-0.2-1-0.2
				c-0.6,0-1,0.1-1.3,0.4s-0.5,0.6-0.5,1c0,0.2,0,0.3,0.1,0.5s0.1,0.3,0.2,0.4s0.2,0.2,0.4,0.4s0.4,0.2,0.6,0.4
				c0.7,0.4,1.1,0.8,1.4,1.2s0.4,0.9,0.4,1.4c0,0.3-0.1,0.7-0.2,1s-0.3,0.6-0.6,0.9s-0.6,0.4-1.1,0.6s-1,0.2-1.6,0.2
				c-0.2,0-0.4,0-0.6,0s-0.4-0.1-0.6-0.1s-0.4-0.1-0.6-0.2s-0.4-0.1-0.5-0.2l0.3-1.4c0.1,0.1,0.3,0.2,0.4,0.2s0.4,0.2,0.6,0.2
				s0.4,0.1,0.6,0.2s0.4,0.1,0.7,0.1c0.6,0,1-0.1,1.3-0.4s0.4-0.6,0.4-1c0-0.2,0-0.3-0.1-0.4s-0.1-0.3-0.2-0.4s-0.3-0.3-0.4-0.4
				s-0.4-0.3-0.7-0.4c-0.6-0.4-1-0.7-1.3-1.1s-0.4-0.8-0.4-1.3c0-0.4,0.1-0.7,0.2-1s0.3-0.6,0.6-0.9c0.3-0.3,0.6-0.5,1-0.6
				s0.9-0.2,1.4-0.2c0.4,0,0.8,0,1.2,0.1s0.7,0.2,1,0.3L516.5,51.2z M519.4,57.8c0,0.1,0,0.3-0.1,0.4s-0.1,0.2-0.2,0.3
				s-0.2,0.2-0.3,0.2s-0.2,0.1-0.4,0.1s-0.3,0-0.4-0.1s-0.2-0.1-0.3-0.2s-0.2-0.2-0.2-0.3s-0.1-0.2-0.1-0.4s0-0.3,0.1-0.4
				s0.1-0.2,0.2-0.3s0.2-0.2,0.3-0.2s0.2-0.1,0.4-0.1s0.3,0,0.4,0.1s0.2,0.1,0.3,0.2s0.2,0.2,0.2,0.3S519.4,57.7,519.4,57.8
				L519.4,57.8z"/>
			<text transform="matrix(1 0 0 1 111.5854 64.5964)" class="st1 st2 st3">“</text>
		</g>
	</g>
</g>
</svg>
