<?xml version="1.0" encoding="UTF-8"?>
<svg width="28px" height="21px" viewBox="0 0 28 21" version="1.1" xmlns="http://www.w3.org/2000/svg" xmlns:xlink="http://www.w3.org/1999/xlink">
    <!-- Generator: Sketch 48.2 (47327) - http://www.bohemiancoding.com/sketch -->
    <title>“</title>
    <desc>Created with Sketch.</desc>
    <defs></defs>
    <g id="E-coupons" stroke="none" stroke-width="1" fill="none" fill-rule="evenodd">
        <path d="M17.5507812,13.0273438 C17.5507812,9.46482594 18.4121008,6.67579133 20.1347656,4.66015625 C21.8574305,2.64452117 24.2773282,1.32031566 27.3945312,0.6875 L27.3945312,4.34375 C25.0273319,5.07031613 23.4335979,6.38280301 22.6132812,8.28125 C22.1445289,9.28906754 21.9570308,10.2617141 22.0507812,11.1992188 L27.5703125,11.1992188 L27.5703125,20.4453125 L17.5507812,20.4453125 L17.5507812,13.0273438 Z M0.88671875,13.0273438 C0.88671875,9.51170117 1.724601,6.7343852 3.40039062,4.6953125 C5.07618025,2.6562398 7.5195152,1.32031566 10.7304688,0.6875 L10.7304688,4.34375 C8.3398318,5.09375375 6.7343791,6.38280336 5.9140625,8.2109375 C5.49218539,9.1718798 5.3164059,10.1679636 5.38671875,11.1992188 L10.90625,11.1992188 L10.90625,20.4453125 L0.88671875,20.4453125 L0.88671875,13.0273438 Z" id="“" fill="#000000"></path>
    </g>
</svg>