<?xml version="1.0" encoding="utf-8"?>
<!-- Generator: Adobe Illustrator 21.0.0, SVG Export Plug-In . SVG Version: 6.00 Build 0)  -->
<svg version="1.1" id="Layer_1" xmlns="http://www.w3.org/2000/svg" xmlns:xlink="http://www.w3.org/1999/xlink" x="0px" y="0px"
	 viewBox="0 0 490 920" style="enable-background:new 0 0 490 920;" xml:space="preserve">
<style type="text/css">
	.st0{fill:none;stroke:#979797;stroke-miterlimit:10;}
	.st1{clip-path:url(#SVGID_2_);fill:#979797;}
	.st2{clip-path:url(#SVGID_4_);fill:#FFFFFF;}
	.st3{clip-path:url(#SVGID_6_);fill:#FFFFFF;}
	.st4{clip-path:url(#SVGID_8_);fill:#979797;}
	.st5{clip-path:url(#SVGID_10_);fill:#979797;}
	.st6{clip-path:url(#SVGID_12_);fill:#979797;}
	.st7{font-family:'Helvetica';}
	.st8{font-size:18px;}
	.st9{letter-spacing:-1;}
	.st10{font-family:'Helvetica-Oblique';}
	.st11{opacity:0.7;enable-background:new    ;}
	.st12{clip-path:url(#SVGID_14_);}
	.st13{clip-path:url(#SVGID_16_);}
	.st14{font-family:'Helvetica-BoldOblique';}
	.st15{font-size:14px;}
	.st16{clip-path:url(#SVGID_18_);}
	.st17{clip-path:url(#SVGID_20_);}
	.st18{font-family:'Helvetica-Bold';}
	.st19{font-size:20px;}
	.st20{font-family:'Helvetica-Light';}
	.st21{opacity:0.54;enable-background:new    ;}
	.st22{clip-path:url(#SVGID_22_);}
	.st23{clip-path:url(#SVGID_24_);}
	.st24{clip-path:url(#SVGID_26_);}
	.st25{clip-path:url(#SVGID_28_);}
	.st26{clip-path:url(#SVGID_30_);}
	.st27{clip-path:url(#SVGID_32_);}
	.st28{clip-path:url(#SVGID_34_);}
	.st29{clip-path:url(#SVGID_36_);}
	.st30{clip-path:url(#SVGID_38_);fill:#979797;}
</style>
<title>Artboard</title>
<desc>Created with Sketch.</desc>
<circle class="st0" cx="76" cy="21" r="9"/>
<g>
	<defs>
		<circle id="SVGID_1_" cx="76" cy="21" r="4"/>
	</defs>
	<clipPath id="SVGID_2_">
		<use xlink:href="#SVGID_1_"  style="overflow:visible;"/>
	</clipPath>
	<rect x="67" y="12" class="st1" width="18" height="18"/>
</g>
<circle class="st0" cx="76" cy="21" r="4"/>
<line class="st0" x1="76" y1="29.5" x2="76" y2="840.5"/>
<g>
	<defs>
		<circle id="SVGID_3_" cx="76" cy="472" r="9"/>
	</defs>
	<clipPath id="SVGID_4_">
		<use xlink:href="#SVGID_3_"  style="overflow:visible;"/>
	</clipPath>
	<rect x="62" y="458" class="st2" width="28" height="28"/>
</g>
<circle class="st0" cx="76" cy="472" r="9"/>
<g>
	<defs>
		<circle id="SVGID_5_" cx="76" cy="731" r="9"/>
	</defs>
	<clipPath id="SVGID_6_">
		<use xlink:href="#SVGID_5_"  style="overflow:visible;"/>
	</clipPath>
	<rect x="62" y="717" class="st3" width="28" height="28"/>
</g>
<circle class="st0" cx="76" cy="731" r="9"/>
<g>
	<defs>
		<circle id="SVGID_7_" cx="76" cy="319" r="6"/>
	</defs>
	<clipPath id="SVGID_8_">
		<use xlink:href="#SVGID_7_"  style="overflow:visible;"/>
	</clipPath>
	<rect x="65" y="308" class="st4" width="22" height="22"/>
</g>
<circle class="st0" cx="76" cy="319" r="6"/>
<g>
	<defs>
		<circle id="SVGID_9_" cx="76" cy="170" r="6"/>
	</defs>
	<clipPath id="SVGID_10_">
		<use xlink:href="#SVGID_9_"  style="overflow:visible;"/>
	</clipPath>
	<rect x="65" y="159" class="st5" width="22" height="22"/>
</g>
<circle class="st0" cx="76" cy="170" r="6"/>
<g>
	<defs>
		<circle id="SVGID_11_" cx="76" cy="579" r="6"/>
	</defs>
	<clipPath id="SVGID_12_">
		<use xlink:href="#SVGID_11_"  style="overflow:visible;"/>
	</clipPath>
	<rect x="65" y="568" class="st6" width="22" height="22"/>
</g>
<circle class="st0" cx="76" cy="579" r="6"/>
<text transform="matrix(1 0 0 1 11 846)" class="st7 st8">2006</text>
<text transform="matrix(1 0 0 1 11 177)" class="st7 st8">2015</text>
<text transform="matrix(1 0 0 1 11 28)" class="st7 st8">2016</text>
<text transform="matrix(1 0 0 1 11 326)" class="st7 st8">2013</text>
<text transform="matrix(1 0 0 1 11 586)"><tspan x="0" y="0" class="st7 st8">20</tspan><tspan x="20" y="0" class="st7 st8 st9">1</tspan><tspan x="28.7" y="0" class="st7 st8">1</tspan></text>
<text transform="matrix(1 0 0 1 11 738)" class="st10 st8">2010</text>
<text transform="matrix(1 0 0 1 11 479)" class="st10 st8">2012</text>
<g class="st11">
	<g>
		<defs>
			<rect id="SVGID_13_" x="109" y="713" width="375" height="48"/>
		</defs>
		<clipPath id="SVGID_14_">
			<use xlink:href="#SVGID_13_"  style="overflow:visible;"/>
		</clipPath>
		<g class="st12">
			<defs>
				<rect id="SVGID_15_" x="124" y="716" width="343" height="42"/>
			</defs>
			<clipPath id="SVGID_16_">
				<use xlink:href="#SVGID_15_"  style="overflow:visible;"/>
			</clipPath>
			<g class="st13">
				<text transform="matrix(1 0 0 1 124 730)" class="st14 st15">Created the animation design of the meteorological</text>
			</g>
			<g class="st13">
				<text transform="matrix(1 0 0 1 124 754)"><tspan x="0" y="0" class="st14 st15">pavilion at the </tspan><tspan x="98" y="0" class="st14 st15">W</tspan><tspan x="111" y="0" class="st14 st15">orld Expo in Shanghai in 2010.</tspan></text>
			</g>
		</g>
	</g>
</g>
<g class="st11">
	<g>
		<defs>
			<rect id="SVGID_17_" x="109" y="453" width="359" height="48"/>
		</defs>
		<clipPath id="SVGID_18_">
			<use xlink:href="#SVGID_17_"  style="overflow:visible;"/>
		</clipPath>
		<g class="st16">
			<defs>
				<rect id="SVGID_19_" x="124" y="456" width="330" height="41"/>
			</defs>
			<clipPath id="SVGID_20_">
				<use xlink:href="#SVGID_19_"  style="overflow:visible;"/>
			</clipPath>
			<g class="st17">
				<text transform="matrix(1 0 0 1 124 470)"><tspan x="0" y="0" class="st14 st15">Led and designed user interface for one of</tspan><tspan x="283.2" y="0" class="st14 st15"> </tspan><tspan x="286.5" y="0" class="st14 st15">Acer&apos;s</tspan></text>
			</g>
			<g class="st17">
				<text transform="matrix(1 0 0 1 124 494)" class="st14 st15">mobile phones that launched in 2012.</text>
			</g>
		</g>
	</g>
</g>
<text transform="matrix(1 0 0 1 125 177)" class="st18 st19">UX Manager / Senior UX Designer</text>
<text transform="matrix(1 0 0 1 125 28)" class="st18 st19">UX Manager</text>
<text transform="matrix(1 0 0 1 237 58)"><tspan x="0" y="0" class="st10 st15">- Digital </tspan><tspan x="51.3" y="0" class="st10 st15">V</tspan><tspan x="59.9" y="0" class="st10 st15">entures</tspan></text>
<text transform="matrix(1 0 0 1 125 59)" class="st7 st8">@ Starbucks</text>
<text transform="matrix(1 0 0 1 125 85)"><tspan x="0" y="0" class="st20 st15">December 2016 – P</tspan><tspan x="124.5" y="0" class="st20 st15">r</tspan><tspan x="128.9" y="0" class="st20 st15">esent</tspan></text>
<text transform="matrix(1 0 0 1 271 207)"><tspan x="0" y="0" class="st10 st15">-</tspan><tspan x="4.7" y="0" class="st10 st15"> </tspan><tspan x="8.3" y="0" class="st10 st15 st9">Y</tspan><tspan x="16.4" y="0" class="st10 st15">ouku Business Group</tspan></text>
<text transform="matrix(1 0 0 1 125 208)"><tspan x="0" y="0" class="st7 st8">@</tspan><tspan x="18.3" y="0" class="st7 st8"> </tspan><tspan x="22.3" y="0" class="st7 st8">Alibaba Group</tspan></text>
<g class="st21">
	<g>
		<defs>
			<rect id="SVGID_21_" x="118" y="217" width="355" height="22"/>
		</defs>
		<clipPath id="SVGID_22_">
			<use xlink:href="#SVGID_21_"  style="overflow:visible;"/>
		</clipPath>
		<g class="st22">
			<defs>
				<rect id="SVGID_23_" x="125" y="220" width="334" height="17"/>
			</defs>
			<clipPath id="SVGID_24_">
				<use xlink:href="#SVGID_23_"  style="overflow:visible;"/>
			</clipPath>
			<g class="st23">
				<text transform="matrix(1 0 0 1 125 234)" class="st20 st15">September 2015 – December 2016 (1 year 3 months)</text>
			</g>
		</g>
	</g>
</g>
<text transform="matrix(1 0 0 1 125 326)" class="st18 st19">Chief Designer</text>
<text transform="matrix(1 0 0 1 125 357)"><tspan x="0" y="0" class="st7 st8">@ </tspan><tspan x="23.3" y="0" class="st7 st8">V</tspan><tspan x="35" y="0" class="st7 st8">ibin, Inc</tspan></text>
<g class="st21">
	<g>
		<defs>
			<rect id="SVGID_25_" x="118" y="366" width="346" height="22"/>
		</defs>
		<clipPath id="SVGID_26_">
			<use xlink:href="#SVGID_25_"  style="overflow:visible;"/>
		</clipPath>
		<g class="st24">
			<defs>
				<rect id="SVGID_27_" x="125" y="369" width="325" height="17"/>
			</defs>
			<clipPath id="SVGID_28_">
				<use xlink:href="#SVGID_27_"  style="overflow:visible;"/>
			</clipPath>
			<g class="st25">
				<text transform="matrix(1 0 0 1 125 383)"><tspan x="0" y="0" class="st20 st15">Janua</tspan><tspan x="38.1" y="0" class="st20 st15">r</tspan><tspan x="43" y="0" class="st20 st15">y 2013 – September 2015 (2 years 9 months)</tspan></text>
			</g>
		</g>
	</g>
</g>
<text transform="matrix(1 0 0 1 124 586)" class="st18 st19">Lead UX Designer</text>
<text transform="matrix(1 0 0 1 124 617)"><tspan x="0" y="0" class="st7 st8">@ Le</tspan><tspan x="43.3" y="0" class="st7 st8">W</tspan><tspan x="59.6" y="0" class="st7 st8">a</tspan><tspan x="69.6" y="0" class="st7 st8"> </tspan><tspan x="74.3" y="0" class="st7 st8 st9">T</tspan><tspan x="83.4" y="0" class="st7 st8">ek</tspan></text>
<g class="st21">
	<g>
		<defs>
			<rect id="SVGID_29_" x="117" y="626" width="302" height="22"/>
		</defs>
		<clipPath id="SVGID_30_">
			<use xlink:href="#SVGID_29_"  style="overflow:visible;"/>
		</clipPath>
		<g class="st26">
			<defs>
				<rect id="SVGID_31_" x="124" y="629" width="281" height="17"/>
			</defs>
			<clipPath id="SVGID_32_">
				<use xlink:href="#SVGID_31_"  style="overflow:visible;"/>
			</clipPath>
			<g class="st27">
				<text transform="matrix(1 0 0 1 124 643)"><tspan x="0" y="0" class="st20 st15">July 2011 – Janua</tspan><tspan x="112.8" y="0" class="st20 st15">r</tspan><tspan x="117.7" y="0" class="st20 st15">y 2013 (1 years 7 months)</tspan></text>
			</g>
		</g>
	</g>
</g>
<text transform="matrix(1 0 0 1 124 846)" class="st18 st19">Graphic Design Freelancer</text>
<text transform="matrix(1 0 0 1 124 877)" class="st7 st8">Freelance Designer</text>
<g class="st21">
	<g>
		<defs>
			<rect id="SVGID_33_" x="117" y="886" width="270" height="22"/>
		</defs>
		<clipPath id="SVGID_34_">
			<use xlink:href="#SVGID_33_"  style="overflow:visible;"/>
		</clipPath>
		<g class="st28">
			<defs>
				<rect id="SVGID_35_" x="124" y="889" width="250" height="17"/>
			</defs>
			<clipPath id="SVGID_36_">
				<use xlink:href="#SVGID_35_"  style="overflow:visible;"/>
			</clipPath>
			<g class="st29">
				<text transform="matrix(1 0 0 1 124 903)" class="st20 st15">July 2006 – July 2011 (4 years 1 month)</text>
			</g>
		</g>
	</g>
</g>
<g>
	<defs>
		<circle id="SVGID_37_" cx="76" cy="839" r="6"/>
	</defs>
	<clipPath id="SVGID_38_">
		<use xlink:href="#SVGID_37_"  style="overflow:visible;"/>
	</clipPath>
	<rect x="65" y="828" class="st30" width="22" height="22"/>
</g>
<circle class="st0" cx="76" cy="839" r="6"/>
</svg>
