<?xml version="1.0" encoding="UTF-8"?>
<svg width="1417px" height="782px" viewBox="0 0 1417 782" version="1.1" xmlns="http://www.w3.org/2000/svg" xmlns:xlink="http://www.w3.org/1999/xlink">
    <!-- Generator: Sketch 48.2 (47327) - http://www.bohemiancoding.com/sketch -->
    <title>Group 2</title>
    <desc>Created with Sketch.</desc>
    <defs>
        <circle id="path-1" cx="80" cy="80" r="80"></circle>
    </defs>
    <g id="App" stroke="none" stroke-width="1" fill="none" fill-rule="evenodd">
        <g id="Group-2" transform="translate(0.000000, -8.000000)">
            <path d="M433.5,41.9856589 L433.5,748.004906" id="Line" stroke-opacity="0.36" stroke="#000000" stroke-width="2" stroke-linecap="round" stroke-linejoin="round" stroke-dasharray="1,5"></path>
            <path d="M1414.99609,661 L550,661" id="Line-Copy-3" stroke-opacity="0.821897645" stroke="#000000" stroke-width="4" stroke-linecap="round" stroke-linejoin="round" stroke-dasharray="1,12"></path>
            <text id="Preference-on-Starbu" font-family="AvenirNext-Bold, Avenir Next" font-size="24" font-weight="bold" fill="#000000">
                <tspan x="550" y="255">Preference on </tspan>
                <tspan x="550" y="288">Starbucks product</tspan>
            </text>
            <g id="Group" transform="translate(0.000000, 65.000000)">
                <g id="Group-5" transform="translate(0.000000, 321.000000)" fill="#000000">
                    <text id="I-would-spend-my-tim" font-family="AvenirNext-DemiBold, Avenir Next" font-size="24" font-weight="500">
                        <tspan x="0" y="74">I would spend my time on </tspan>
                        <tspan x="0" y="107">valuable things. Petty profits </tspan>
                        <tspan x="0" y="140">can not get my attention.</tspan>
                    </text>
                    <text id="“" font-family="Helvetica-Bold, Helvetica" font-size="72" font-weight="bold">
                        <tspan x="0" y="69">“</tspan>
                    </text>
                    <text id="“-copy" transform="translate(318.000000, 154.000000) scale(-1, -1) translate(-318.000000, -154.000000) " font-family="Helvetica-Bold, Helvetica" font-size="72" font-weight="bold">
                        <tspan x="300" y="180">“</tspan>
                    </text>
                </g>
                <circle id="Oval" stroke="#979797" fill="#D6EEEC" cx="168" cy="80" r="80"></circle>
                <g id="Group-4" transform="translate(88.000000, 0.000000)">
                    <g id="users-9">
                        <mask id="mask-2" fill="white">
                            <use xlink:href="#path-1"></use>
                        </mask>
                        <g id="Mask"></g>
                        <g mask="url(#mask-2)" id="svg9797">
                            <g transform="translate(23.000000, 4.000000)">
                                <g>
                                    <path d="M1.15540541,163.224586 C1.15540541,163.224586 -2.81221054,128.210343 31.3654062,124.303991 L45.990269,124.303991 L45.990269,117.5217 C45.990269,117.5217 56.2778716,121.969988 66.6951377,118.017965 L67.0237858,124.303991 L84.1135112,124.303991 C84.1135112,124.303991 113.874239,127.294864 112.074324,163.224586 L1.15540541,163.224586 L1.15540541,163.224586 Z" id="body-bg-flat" fill="#FFFFFF"></path>
                                    <path d="M51.9932432,142.676123 L56.6148649,137.635934 L61.6216216,142.676123 L58.9256757,145.390071 L63.1621622,162.836879 L50.0675676,162.836879 L54.6891892,145.390071 L51.9932432,142.676123 L51.9932432,142.676123 Z" id="Shape-34" fill="#3B434F"></path>
                                    <path d="M111.790068,163.839749 L111.790068,163.839749 L2.21281086,163.839749 L2.21281086,163.839749 L0.08768025,163.839749 L0.618146128,154.717078 C1.65389043,136.904961 15.5948464,123.311462 31.5483481,123.311462 L45.990269,123.311462 L45.990269,125.131098 L32.5168509,125.131098 C17.1409584,125.131098 3.70473965,138.215589 2.70648864,155.360732 L2.33801984,161.689271 L111.500535,161.689271 L111.296391,155.360732 C110.29814,138.215589 96.8619213,125.131098 81.4860169,125.131098 L67.8454069,125.131098 L67.8454069,123.311462 L82.3570728,123.311462 C98.310574,123.311462 112.25153,136.904961 113.287274,154.717078 L113.81774,163.839749 L111.790068,163.839749 L111.790068,163.839749 Z" id="Rounded-Rectangle-13-copy-3" fill="#3B434F"></path>
                                    <path d="M47.1405382,116.756403 L47.1405382,126.958945 C47.1405382,132.253271 51.4076306,136.545189 56.6713515,136.545189 C61.9350727,136.545189 66.2021651,132.253271 66.2021651,126.958945 L66.2021651,116.966892 C66.7552796,116.797412 67.3031875,116.613332 67.8454069,116.414462 L67.8454069,127.028386 C67.8454069,133.289317 62.8058347,138.364825 56.5891956,138.364825 C50.3725565,138.364825 45.3329723,133.289317 45.3329723,127.028386 L45.3329723,116.100242 C45.9283285,116.337223 46.5313365,116.55519 47.1405382,116.756403 L47.1405382,116.756403 Z" id="neck-copy-7" fill="#3B434F"></path>
                                    <path d="M86.1624093,145.192088 L81.5079137,154.96498 C81.2725049,155.459268 80.6836248,155.667852 80.1926268,155.430872 C79.7016172,155.193891 79.4944165,154.601079 79.7298253,154.10679 L84.225133,144.668161 L80.712632,138.543711 C80.4403765,138.068992 80.6019388,137.46197 81.0735082,137.187896 C81.5450897,136.913811 82.1480738,137.076464 82.4203412,137.551182 L86.1997971,144.14111 C86.3945622,144.480697 86.3663191,144.887405 86.1624093,145.192088 L86.1624093,145.192088 Z" id="Rounded-Rectangle-2" fill="#3B434F"></path>
                                    <path d="M27.0990309,145.201625 L31.7785029,155.004605 C32.0151692,155.500419 32.6072109,155.709642 33.1008417,155.471928 C33.594484,155.234214 33.8028013,154.639579 33.566123,154.143777 L29.046709,144.676088 L32.5780508,138.532778 C32.8517636,138.056604 32.6893317,137.447712 32.2152354,137.172787 C31.7411271,136.897861 31.1349105,137.061011 30.8611857,137.537197 L27.0614556,144.147417 C26.865644,144.488044 26.8940285,144.896007 27.0990309,145.201625 L27.0990309,145.201625 Z" id="Rounded-Rectangle-2-copy-3" fill="#3B434F"></path>
                                    <path d="M45.3329723,122.980619 L47.1405382,122.980619 L47.1405382,163.178063 L45.3329723,163.178063 L45.3329723,122.980619 L45.3329723,122.980619 Z" id="Rectangle-24" fill="#3B434F"></path>
                                    <path d="M66.2021651,123.311462 L68.009731,123.311462 L68.009731,163.508906 L66.2021651,163.508906 L66.2021651,123.311462 L66.2021651,123.311462 Z" id="Rectangle-24-copy" fill="#3B434F"></path>
                                    <path d="M62.6612092,163.104268 L58.0033987,145.605021 L58.97189,145.312525 L59.6140601,144.625673 L64.5404118,163.133824 L62.6612092,163.104268 L62.6612092,163.104268 Z M49.5225979,162.897613 L54.3853642,144.710661 L54.6994615,144.981682 L55.6854067,145.643368 L56.0104819,145.676095 L51.3979811,162.927109 L49.5225979,162.897613 L49.5225979,162.897613 Z" id="Rectangle-24-copy-4" fill="#3B434F"></path>
                                    <path d="M67.8398475,147.634021 L66.5617015,148.920702 L61.5883479,143.914139 C60.6286246,145.448615 58.9343143,146.470475 57,146.470475 C54.9875256,146.470475 53.2349775,145.364467 52.2994542,143.725539 L47.1079462,148.951725 L45.8263678,147.66159 L56.047411,137.372296 L56.8467944,136.626178 L57.6461778,137.372296 L67.8398475,147.634021 L67.8398475,147.634021 Z M53.3048394,142.71344 C53.960138,144.056619 55.330889,144.981682 56.9178322,144.981682 C58.4690918,144.981682 59.8118227,144.096468 60.4837641,142.80218 L56.8502267,139.144379 L53.3048394,142.71344 L53.3048394,142.71344 Z" id="Ellipse-6" fill="#3B434F"></path>
                                    <path d="M57.0026798,16.4490976 C77.8112839,16.4490976 93.6407516,34.8200818 92.793755,55.841406 L91.6443204,84.3687295 C88.3879493,103.736632 75.123906,117.719529 57.147893,119.672191 C39.6129376,117.81713 26.0886978,103.731651 22.3610272,84.3687295 L21.2115926,55.841406 C20.364596,34.8200818 36.1940757,16.4490976 57.0026798,16.4490976 L57.0026798,16.4490976 Z" id="1-copy-4" fill="#FFFFFF"></path>
                                    <path d="M95.0924364,54.6314195 L93.8690966,84.4388215 C90.4033503,104.675787 76.2864811,119.286129 57.1546745,121.326405 C38.4922752,119.388107 24.0984723,104.670581 20.1311267,84.4388215 L18.907787,54.6314195 C18.006337,32.6668347 34.8536013,13.4715117 57.0001175,13.4715117 C79.1466456,13.4715117 95.9938864,32.6668347 95.0924364,54.6314195 L95.0924364,54.6314195 Z M57.0026798,15.7874119 C36.1940757,15.7874119 20.364596,34.1583961 21.2115926,55.1797203 L22.3610272,83.7070438 C26.0886978,103.069965 39.6129376,117.155444 57.147893,119.010505 C75.123906,117.057843 88.3879493,103.074946 91.6443204,83.7070438 L92.793755,55.1797203 C93.6407516,34.1583961 77.8112839,15.7874119 57.0026798,15.7874119 L57.0026798,15.7874119 Z" id="1-line" fill="#3B434F"></path>
                                    <path d="M74.747022,94.7268373 C71.7602147,97.3375875 65.0138973,99.821583 57.164336,99.821583 C49.3147628,99.821583 42.5684454,97.3375875 39.5816265,94.7268373 C39.5816265,94.7268373 39.2760383,93.8803612 39.7243949,93.4290107 C40.1810493,92.9693071 40.8962198,93.0693572 40.8962198,93.0693572 C43.8799006,95.6818826 49.3117657,97.8365379 57.164336,97.8365379 C65.0168944,97.8365379 70.4487595,95.6818826 73.4324403,93.0693572 C73.4324403,93.0693572 74.162279,92.7964313 74.5168198,93.1533399 C75.1996802,93.8407601 74.747022,94.7268373 74.747022,94.7268373 L74.747022,94.7268373 Z" id="-" fill="#3B434F"></path>
                                    <path d="M51.7416268,103.791709 L62.2583852,103.791709 L62.2583852,105.445924 L51.7416268,105.445924 L51.7416268,103.791709 L51.7416268,103.791709 Z" id="-_1" fill="#3B434F"></path>
                                    <path d="M19.1825104,58.2774353 C19.1779739,58.2776954 18.7790401,57.9569808 18.0257181,57.7182135 C17.64921,57.5990902 17.1812724,57.5010984 16.6479153,57.4769381 C16.514714,57.4709038 16.3776224,57.469472 16.2373458,57.4734829 C16.0970688,57.4774941 15.9535952,57.4869359 15.8077592,57.5026132 C15.5161225,57.5339795 15.2149183,57.5903466 14.9118216,57.6781153 C13.6982019,58.0292145 12.4601584,58.8828485 11.7330583,60.6447567 C11.3680684,61.5257581 11.1272885,62.6339313 11.0636322,64.0204497 C11.0477061,64.3670879 11.0428403,64.7311191 11.0498217,65.113348 C11.0568149,65.4955766 11.0756677,65.8960026 11.1071548,66.3154308 C11.1700944,67.1542517 11.2837497,68.0690921 11.4530924,69.0659748 C11.4493901,69.0649928 11.2951504,72.0784528 12.36532,75.5411217 C13.371387,78.926564 15.7872731,83.0852787 20.2478381,84.273672 C19.7348258,75.6745735 19.7188885,66.9142894 19.1825104,58.2774353 L19.1825104,58.2774353 L19.1825104,58.2774353 Z" id="Shape-11-copy" fill="#FFFFFF"></path>
                                    <path d="M19.6911387,58.6240972 C19.6911387,58.6240972 11.9205013,56.2002787 12.1939676,64.2422855 C12.1939676,64.2422855 13.3508774,75.9034493 13.8532642,76.9781738 C13.8532642,76.9781738 16.9050088,83.7677056 21.9414783,84.0686022 C26.8638928,84.3626833 21.9414783,84.0686022 21.9414783,84.0686022 L22.0026077,86.2570255 C22.0026077,86.2570255 13.1504115,85.1144569 11.4406691,74.8450289 L10.0912034,65.5157501 C10.0912034,65.5157501 9.04340047,53.1693668 19.2071456,56.3085284 C29.1086965,59.3667132 19.2071456,56.3085284 19.2071456,56.3085284 L19.6911387,58.6240972" id="Shape-3" fill="#3B434F"></path>
                                    <path d="M17.1263136,74.8254117 C17.1263136,74.8254117 16.6914379,75.1562548 16.3178564,75.1562548 C15.9442749,75.1562548 15.5147002,74.8254117 15.5147002,74.8254117 L14.7127664,66.690241 C14.7127664,66.690241 15.8192304,62.6838854 20.5143697,64.8011285 L20.6253568,67.127263 C20.6253568,67.127263 16.506087,65.6566083 16.5912638,67.4879102 C16.6732556,69.250635 17.1263136,74.8254117 17.1263136,74.8254117 L17.1263136,74.8254117 Z" id="Shape-4" fill="#3B434F"></path>
                                    <path d="M94.6713832,58.2964256 C94.6759432,58.2966857 95.0766282,57.9761956 95.8332411,57.7375822 C96.2114065,57.6185418 96.6813892,57.5206214 97.2170852,57.4964723 C97.3508623,57.4904501 97.4885535,57.4890183 97.6294533,57.4930295 C97.7703411,57.4970283 97.9144375,57.5064701 98.0609202,57.5221358 C98.3538262,57.5534784 98.6563587,57.6098099 98.9607834,57.6975197 C100.179716,58.0483819 101.423178,58.9014363 102.153463,60.6621496 C102.520051,61.5425473 102.761889,62.6499633 102.825816,64.035547 C102.841812,64.3819487 102.846701,64.7457318 102.839696,65.1277002 C102.832668,65.5096682 102.813733,65.9098224 102.782105,66.3289664 C102.718895,67.1672193 102.604734,68.0814445 102.434651,69.0776409 C102.438377,69.0766589 102.593286,72.0880839 101.518427,75.5483986 C100.507964,78.9315453 98.0814887,83.087432 93.6013896,84.2750208 C94.1166465,75.6817554 94.1326546,66.9274226 94.6713832,58.2964256 L94.6713832,58.2964256 L94.6713832,58.2964256 Z" id="Shape-11-copy_1" fill="#FFFFFF"></path>
                                    <path d="M94.1588411,58.6428626 C94.1588411,58.6428626 101.963516,56.2206888 101.688851,64.2572289 C101.688851,64.2572289 100.526876,75.9104776 100.022279,76.9844686 C100.022279,76.9844686 96.957171,83.7693976 91.8986521,84.0700929 C86.9546704,84.3639732 91.8986521,84.0700929 91.8986521,84.0700929 L91.8372523,86.2570255 C91.8372523,86.2570255 100.728211,85.1152378 102.445441,74.8527788 L103.800818,65.5298297 C103.800818,65.5298297 104.853217,53.1918236 94.6449494,56.3288555 C84.7000408,59.3849695 94.6449494,56.3288555 94.6449494,56.3288555 L94.1588411,58.6428626" id="Shape-3_1" fill="#3B434F"></path>
                                    <path d="M96.7349026,74.8331736 C96.7349026,74.8331736 97.171682,75.1637914 97.5468972,75.1637914 C97.9221124,75.1637914 98.3535678,74.8331736 98.3535678,74.8331736 L99.1590159,66.7035281 C99.1590159,66.7035281 98.0477093,62.6998942 93.3320018,64.8156935 L93.2205325,67.1402543 C93.2205325,67.1402543 97.357844,65.6705937 97.2722909,67.5006534 C97.1899467,69.2621828 96.7349026,74.8331736 96.7349026,74.8331736 L96.7349026,74.8331736 Z" id="Shape-4_1" fill="#3B434F"></path>
                                    <path d="M60.040003,74.1812492 L60.6151318,74.1812492 C61.8042223,75.8068893 62.2879921,78.3050595 62.9156699,80.4672634 C63.1101886,81.1373379 62.9214762,82.30938 62.7513458,82.7831636 C62.1282869,84.5183553 60.1718524,84.4872139 58.5610856,85.2644851 C58.1284902,85.4732467 57.8067056,85.8335744 57.2464923,85.9261825 C56.8812671,85.6023205 56.4402916,85.5387125 56.2605355,85.016359 C55.8167389,84.4011725 56.3887178,84.0170034 56.8356759,83.7756924 C57.6468595,83.3377472 60.1509785,82.9061085 60.4508073,82.1214779 C60.8217799,81.6966543 60.5751112,80.41938 60.4508073,79.9709994 C60.132455,78.82255 59.9796492,77.8637661 59.5470304,76.8279921 C59.2596602,76.140004 58.755122,75.4146037 59.0540582,74.5947967 C59.3017725,74.4877183 59.8371511,74.3659683 60.040003,74.1812492 L60.040003,74.1812492 Z" id="new_vector_shape_done" fill="#3B434F"></path>
                                    <path d="M37.2810765,61.4437868 L39.5816265,61.4437868 C40.85218,61.4437868 41.882165,62.4806494 41.882165,63.759687 C41.882165,65.0387242 40.85218,66.0755868 39.5816265,66.0755868 L37.2810765,66.0755868 C36.010523,66.0755868 34.980538,65.0387242 34.980538,63.759687 C34.980538,62.4806494 36.010523,61.4437868 37.2810765,61.4437868 L37.2810765,61.4437868 Z" id="Rounded-Rectangle-8" fill="#3B434F"></path>
                                    <path d="M74.747022,61.4437868 L77.0475721,61.4437868 C78.3181252,61.4437868 79.3481102,62.4806494 79.3481102,63.759687 C79.3481102,65.0387242 78.3181252,66.0755868 77.0475721,66.0755868 L74.747022,66.0755868 C73.4764685,66.0755868 72.4464835,65.0387242 72.4464835,63.759687 C72.4464835,62.4806494 73.4764685,61.4437868 74.747022,61.4437868 L74.747022,61.4437868 Z" id="Rounded-Rectangle-8-copy" fill="#3B434F"></path>
                                    <path d="M38.7600058,72.3616134 C41.9363832,72.3616134 44.5113516,72.5450782 44.5113516,76.1663064 C44.5113516,79.9014397 41.9363832,79.9709994 38.7600058,79.9709994 C35.5836165,79.9709994 33.0086599,79.2907611 33.0086599,76.1663064 C33.0086599,72.5165515 35.5836165,72.3616134 38.7600058,72.3616134 L38.7600058,72.3616134 Z" id="Ellipse-3-copy" fill="#F5F3EF"></path>
                                    <path d="M76.8832476,72.3616134 C80.0596254,72.3616134 82.6345938,72.5450782 82.6345938,76.1663064 C82.6345938,79.9014397 80.0596254,79.9709994 76.8832476,79.9709994 C73.7068583,79.9709994 71.1319018,79.2907611 71.1319018,76.1663064 C71.1319018,72.5165515 73.7068583,72.3616134 76.8832476,72.3616134 L76.8832476,72.3616134 Z" id="Ellipse-3-copy-2" fill="#F5F3EF"></path>
                                    <path d="M67.3986486,55.0543735 C67.3986486,55.0543735 77.4072494,49.2673447 84.0055913,56.5769108 L87.4051306,56.4792741 C87.4051306,56.4792741 83.1653181,47.1618979 65.7605434,53.040766 L67.3986486,55.4420804" id="R-copy" fill="#3B434F"></path>
                                    <path d="M46.510533,55.0921172 C46.510533,55.0921172 36.5353235,49.3562967 29.9590074,56.6011781 L26.57081,56.5044053 C26.57081,56.5044053 30.7964718,47.2694854 48.1431729,53.0963287 L46.510533,55.4763928" id="R-copy-3" fill="#3B434F"></path>
                                    <path d="M22.1981254,52.1714664 C22.1981254,52.1714664 33.0178038,46.6492347 31.8219199,27.6597627 C31.8219199,27.6597627 49.1300936,46.7509892 90.8508138,40.9315054 L92.8227037,58.7970319 C92.8227037,58.7970319 117.348835,13.0476702 73.4324283,2.55369712 C30.4546713,-7.71599103 29.9592424,19.3787878 29.9592424,19.3787878 C29.9592424,19.3787878 16.7793064,17.3961325 15.6787774,30.3096767 C14.5782603,43.2232208 18.5481096,56.8119747 18.5481096,56.8119747 L21.8345929,59.4587176 L22.1981254,52.1714664 L22.1981254,52.1714664 Z" id="Shape-1" fill="#3B434F"></path>
                                </g>
                            </g>
                        </g>
                    </g>
                    <text id="Chen-Ming" font-family="AvenirNext-Bold, Avenir Next" font-size="24" font-weight="bold" fill="#000000">
                        <tspan x="16.4" y="208">Chen Ming</tspan>
                    </text>
                    <text id="Male,-35-Years-Gener" font-family="AvenirNext-Medium, Avenir Next" font-size="18" font-weight="400" line-spacing="28" fill="#000000">
                        <tspan x="20.92" y="241">Male, 35 Years</tspan>
                        <tspan x="8.257" y="269">General manager</tspan>
                    </text>
                </g>
            </g>
            <text id="Starbucks-is-a-part" font-family="AvenirNext-Regular, Avenir Next" font-size="24" font-weight="normal" fill="#000000">
                <tspan x="550" y="718">Starbucks is a part of my daily life as other necessity consumption. It doesn’t </tspan>
                <tspan x="550" y="751">interest me with a small amount of discount. I am expecting less </tspan>
                <tspan x="550" y="784">complicated interactions even one step or a click. </tspan>
            </text>
            <text id="Almost-everyday" font-family="AvenirNext-Regular, Avenir Next" font-size="24" font-weight="normal" fill="#000000">
                <tspan x="1210.696" y="188">Almost everyday</tspan>
            </text>
            <text id="Cold-brew" font-family="AvenirNext-Regular, Avenir Next" font-size="24" font-weight="normal" fill="#000000">
                <tspan x="1278.88" y="272">Cold brew</tspan>
            </text>
            <text id="Takes-way-in-the-mor" font-family="AvenirNext-Regular, Avenir Next" font-size="24" font-weight="normal" fill="#000000">
                <tspan x="978" y="356">Takes way in the morning, works in </tspan>
                <tspan x="978" y="389">Starbucks, takes orders for co-workers</tspan>
            </text>
            <text id="Yes,-has-used-before" font-family="AvenirNext-Regular, Avenir Next" font-size="24" font-weight="normal" fill="#000000">
                <tspan x="989" y="455">Yes, has used before, stopped using </tspan>
                <tspan x="989" y="488">for a while after log-out compulsively</tspan>
            </text>
            <text id="Owns-over-8-special" font-family="AvenirNext-Regular, Avenir Next" font-size="24" font-weight="normal" fill="#000000">
                <tspan x="894" y="554">Owns over 8 special MSR cards from different </tspan>
                <tspan x="894" y="587">city. Has no knowledge on SVC cards</tspan>
            </text>
            <path d="M1414.99609,147 L550,147" id="Line-Copy-2" stroke-opacity="0.36" stroke="#000000" stroke-width="2" stroke-linecap="round" stroke-linejoin="round" stroke-dasharray="1,5"></path>
            <path d="M1414.99609,214 L550,214" id="Line-Copy-4" stroke-opacity="0.36" stroke="#000000" stroke-width="2" stroke-linecap="round" stroke-linejoin="round" stroke-dasharray="1,5"></path>
            <path d="M1414.99609,414 L550,414" id="Line-Copy-6" stroke-opacity="0.36" stroke="#000000" stroke-width="2" stroke-linecap="round" stroke-linejoin="round" stroke-dasharray="1,5"></path>
            <path d="M1414.99609,513 L550,513" id="Line-Copy-7" stroke-opacity="0.36" stroke="#000000" stroke-width="2" stroke-linecap="round" stroke-linejoin="round" stroke-dasharray="1,5"></path>
            <path d="M1414.99609,314 L550,314" id="Line-Copy-5" stroke-opacity="0.36" stroke="#000000" stroke-width="2" stroke-linecap="round" stroke-linejoin="round" stroke-dasharray="1,5"></path>
            <text id="Starbucks-membership" font-family="AvenirNext-Bold, Avenir Next" font-size="36" font-weight="bold" fill="#000000">
                <tspan x="550" y="36">Starbucks membership profile</tspan>
            </text>
            <rect id="Rectangle" fill="#000000" x="545" y="65" width="871" height="3"></rect>
            <text id="Grade" font-family="AvenirNext-Bold, Avenir Next" font-size="24" font-weight="bold" fill="#000000">
                <tspan x="550" y="121">Grade</tspan>
            </text>
            <text id="Gold" font-family="AvenirNext-Regular, Avenir Next" font-size="24" font-weight="normal" fill="#000000">
                <tspan x="1338.304" y="121">Gold</tspan>
            </text>
            <text id="Frequency" font-family="AvenirNext-Bold, Avenir Next" font-size="24" font-weight="bold" fill="#000000">
                <tspan x="550" y="188">Frequency</tspan>
            </text>
            <text id="Scenario" font-family="AvenirNext-Bold, Avenir Next" font-size="24" font-weight="bold" fill="#000000">
                <tspan x="550" y="372">Scenario</tspan>
            </text>
            <text id="App-usage" font-family="AvenirNext-Bold, Avenir Next" font-size="24" font-weight="bold" fill="#000000">
                <tspan x="550" y="471">App usage</tspan>
            </text>
            <text id="MSR-and-SVC" font-family="AvenirNext-Bold, Avenir Next" font-size="24" font-weight="bold" fill="#000000">
                <tspan x="550" y="571">MSR and SVC</tspan>
            </text>
        </g>
    </g>
</svg>